<?xml version="1.0" encoding="UTF-8" standalone="no"?>
<!DOCTYPE svg PUBLIC "-//W3C//DTD SVG 1.1//EN"
 "http://www.w3.org/Graphics/SVG/1.1/DTD/svg11.dtd">
<!-- Generated by graphviz version 2.48.0 (20210717.1556)
 -->
<!-- Pages: 1 -->
<svg width="333pt" height="284pt"
 viewBox="0.00 0.00 333.00 284.00" xmlns="http://www.w3.org/2000/svg" xmlns:xlink="http://www.w3.org/1999/xlink">
<g id="graph0" class="graph" transform="scale(1 1) rotate(0) translate(4 280)">
<polygon fill="white" stroke="transparent" points="-4,4 -4,-280 329,-280 329,4 -4,4"/>
<g id="clust1" class="cluster">
<title>cluster&#45;00182438&#45;cc0b&#45;4341&#45;b127&#45;2b891440121b</title>
<polygon fill="none" stroke="black" points="8,-8 8,-212 317,-212 317,-8 8,-8"/>
</g>
<g id="clust3" class="cluster">
<title>cluster&#45;10ecdab1&#45;6766&#45;4a76&#45;9eb6&#45;037b13b28899</title>
<polygon fill="none" stroke="black" points="16,-16 16,-68 309,-68 309,-16 16,-16"/>
</g>
<!-- df2c75ad&#45;f872&#45;4f05&#45;9675&#45;2a122f7c324a -->
<g id="node1" class="node">
<title>df2c75ad&#45;f872&#45;4f05&#45;9675&#45;2a122f7c324a</title>
<g id="a_node1"><a xlink:href="../../index.html" xlink:title="Click to HomePage">
<polygon fill="none" stroke="#ff3030" stroke-width="3" points="225,-276 99,-276 99,-240 225,-240 225,-276"/>
<text text-anchor="middle" x="162" y="-254.3" font-family="Times,serif" font-size="14.00">Click to HomePage</text>
</a>
</g>
</g>
<!-- 4993f871&#45;01f3&#45;43de&#45;bd43&#45;cde5091d84ad -->
<g id="node2" class="node">
<title>4993f871&#45;01f3&#45;43de&#45;bd43&#45;cde5091d84ad</title>
<g id="a_node2"><a xlink:href="../../index.html" xlink:title="America/Los_Angeles">
<polygon fill="none" stroke="mediumspringgreen" points="233,-204 91,-204 91,-168 233,-168 233,-204"/>
<text text-anchor="middle" x="162" y="-182.3" font-family="Times,serif" font-size="14.00">America/Los_Angeles</text>
</a>
</g>
</g>
<!-- df2c75ad&#45;f872&#45;4f05&#45;9675&#45;2a122f7c324a&#45;&gt;4993f871&#45;01f3&#45;43de&#45;bd43&#45;cde5091d84ad -->
<g id="edge1" class="edge">
<title>df2c75ad&#45;f872&#45;4f05&#45;9675&#45;2a122f7c324a&#45;&gt;4993f871&#45;01f3&#45;43de&#45;bd43&#45;cde5091d84ad</title>
<path fill="none" stroke="red" d="M162,-239.7C162,-231.98 162,-222.71 162,-214.11"/>
<polygon fill="red" stroke="red" points="165.5,-214.1 162,-204.1 158.5,-214.1 165.5,-214.1"/>
</g>
<!-- 842f375f&#45;8134&#45;4bb0&#45;bd0b&#45;b4583ed41d33 -->
<g id="node3" class="node">
<title>842f375f&#45;8134&#45;4bb0&#45;bd0b&#45;b4583ed41d33</title>
<g id="a_node3"><a xlink:href="../../index.html" xlink:title="+echo_task1">
<polygon fill="none" stroke="#ff3030" stroke-width="3" points="205.5,-132 118.5,-132 118.5,-96 205.5,-96 205.5,-132"/>
<text text-anchor="middle" x="162" y="-110.3" font-family="Times,serif" font-size="14.00">+echo_task1</text>
</a>
</g>
</g>
<!-- 4993f871&#45;01f3&#45;43de&#45;bd43&#45;cde5091d84ad&#45;&gt;842f375f&#45;8134&#45;4bb0&#45;bd0b&#45;b4583ed41d33 -->
<g id="edge2" class="edge">
<title>4993f871&#45;01f3&#45;43de&#45;bd43&#45;cde5091d84ad&#45;&gt;842f375f&#45;8134&#45;4bb0&#45;bd0b&#45;b4583ed41d33</title>
<path fill="none" stroke="red" d="M162,-167.7C162,-159.98 162,-150.71 162,-142.11"/>
<polygon fill="red" stroke="red" points="165.5,-142.1 162,-132.1 158.5,-142.1 165.5,-142.1"/>
</g>
<!-- 0bf358fa&#45;79a7&#45;4573&#45;ba79&#45;5f3e85e8b5f9 -->
<g id="node4" class="node">
<title>0bf358fa&#45;79a7&#45;4573&#45;ba79&#45;5f3e85e8b5f9</title>
<g id="a_node4"><a xlink:href="../../index.html" xlink:title="+echo_task1_child1">
<polygon fill="none" stroke="orangered" points="300.5,-60 171.5,-60 171.5,-24 300.5,-24 300.5,-60"/>
<text text-anchor="middle" x="236" y="-38.3" font-family="Times,serif" font-size="14.00">+echo_task1_child1</text>
</a>
</g>
</g>
<!-- 842f375f&#45;8134&#45;4bb0&#45;bd0b&#45;b4583ed41d33&#45;&gt;0bf358fa&#45;79a7&#45;4573&#45;ba79&#45;5f3e85e8b5f9 -->
<g id="edge3" class="edge">
<title>842f375f&#45;8134&#45;4bb0&#45;bd0b&#45;b4583ed41d33&#45;&gt;0bf358fa&#45;79a7&#45;4573&#45;ba79&#45;5f3e85e8b5f9</title>
<path fill="none" stroke="red" d="M180.29,-95.7C189.43,-87.05 200.64,-76.45 210.6,-67.03"/>
<polygon fill="red" stroke="red" points="213.06,-69.52 217.92,-60.1 208.25,-64.43 213.06,-69.52"/>
</g>
<!-- 70773b76&#45;8e71&#45;4fb9&#45;b5e7&#45;d0d783acf72a -->
<g id="node5" class="node">
<title>70773b76&#45;8e71&#45;4fb9&#45;b5e7&#45;d0d783acf72a</title>
<g id="a_node5"><a xlink:href="../../index.html" xlink:title="+echo_task1_child2">
<polygon fill="none" stroke="orangered" points="153.5,-60 24.5,-60 24.5,-24 153.5,-24 153.5,-60"/>
<text text-anchor="middle" x="89" y="-38.3" font-family="Times,serif" font-size="14.00">+echo_task1_child2</text>
</a>
</g>
</g>
<!-- 842f375f&#45;8134&#45;4bb0&#45;bd0b&#45;b4583ed41d33&#45;&gt;70773b76&#45;8e71&#45;4fb9&#45;b5e7&#45;d0d783acf72a -->
<g id="edge4" class="edge">
<title>842f375f&#45;8134&#45;4bb0&#45;bd0b&#45;b4583ed41d33&#45;&gt;70773b76&#45;8e71&#45;4fb9&#45;b5e7&#45;d0d783acf72a</title>
<path fill="none" stroke="red" d="M143.96,-95.7C134.94,-87.05 123.88,-76.45 114.06,-67.03"/>
<polygon fill="red" stroke="red" points="116.48,-64.5 106.84,-60.1 111.63,-69.55 116.48,-64.5"/>
</g>
</g>
</svg>
