<?xml version="1.0" encoding="UTF-8" standalone="no"?>
<!DOCTYPE svg PUBLIC "-//W3C//DTD SVG 1.1//EN"
 "http://www.w3.org/Graphics/SVG/1.1/DTD/svg11.dtd">
<!-- Generated by graphviz version 2.48.0 (20210717.1556)
 -->
<!-- Pages: 1 -->
<svg width="667pt" height="435pt"
 viewBox="0.00 0.00 667.00 435.00" xmlns="http://www.w3.org/2000/svg" xmlns:xlink="http://www.w3.org/1999/xlink">
<g id="graph0" class="graph" transform="scale(1 1) rotate(0) translate(4 431)">
<polygon fill="white" stroke="transparent" points="-4,4 -4,-431 663,-431 663,4 -4,4"/>
<g id="clust1" class="cluster">
<title>cluster&#45;c95d925c&#45;a37e&#45;42ef&#45;bf04&#45;5d26212ba6dd</title>
<polygon fill="none" stroke="black" points="8,-8 8,-363 651,-363 651,-8 8,-8"/>
</g>
<g id="clust4" class="cluster">
<title>cluster&#45;a163466b&#45;22b3&#45;4dfd&#45;a310&#45;421050aadd09</title>
<polygon fill="none" stroke="black" points="16,-16 16,-115 643,-115 643,-16 16,-16"/>
</g>
<!-- 27a4dfd7&#45;6f78&#45;419b&#45;9271&#45;4cd1444e3e2b -->
<g id="node1" class="node">
<title>27a4dfd7&#45;6f78&#45;419b&#45;9271&#45;4cd1444e3e2b</title>
<g id="a_node1"><a xlink:href="../../index.html" xlink:title="Click to HomePage">
<polygon fill="none" stroke="brown" points="392,-427 266,-427 266,-391 392,-391 392,-427"/>
<text text-anchor="middle" x="329" y="-405.3" font-family="Times,serif" font-size="14.00">Click to HomePage</text>
</a>
</g>
</g>
<!-- 41640f1e&#45;027d&#45;4129&#45;bff8&#45;384a07f286d2 -->
<g id="node2" class="node">
<title>41640f1e&#45;027d&#45;4129&#45;bff8&#45;384a07f286d2</title>
<polygon fill="none" stroke="mediumspringgreen" points="388,-349 258,-349 258,-325 388,-325 400,-337 388,-349"/>
<text text-anchor="middle" x="329" y="-333.3" font-family="Times,serif" font-size="14.00">America/Los_Angeles</text>
</g>
<!-- 27a4dfd7&#45;6f78&#45;419b&#45;9271&#45;4cd1444e3e2b&#45;&gt;41640f1e&#45;027d&#45;4129&#45;bff8&#45;384a07f286d2 -->
<g id="edge1" class="edge">
<title>27a4dfd7&#45;6f78&#45;419b&#45;9271&#45;4cd1444e3e2b&#45;&gt;41640f1e&#45;027d&#45;4129&#45;bff8&#45;384a07f286d2</title>
<path fill="none" stroke="red" d="M329,-390.7C329,-382.98 329,-373.71 329,-365.11"/>
<polygon fill="red" stroke="red" points="332.5,-365.1 329,-355.1 325.5,-365.1 332.5,-365.1"/>
</g>
<!-- 4cd55077&#45;6fa1&#45;41cd&#45;a3ce&#45;49925ccd415e -->
<g id="node3" class="node">
<title>4cd55077&#45;6fa1&#45;41cd&#45;a3ce&#45;49925ccd415e</title>
<polygon fill="none" stroke="#8b6914" stroke-width="2" points="467,-283 195,-283 191,-279 191,-215 463,-215 467,-219 467,-283"/>
<polyline fill="none" stroke="#8b6914" stroke-width="2" points="463,-279 191,-279 "/>
<polyline fill="none" stroke="#8b6914" stroke-width="2" points="463,-279 463,-215 "/>
<polyline fill="none" stroke="#8b6914" stroke-width="2" points="463,-279 467,-283 "/>
<text text-anchor="middle" x="329" y="-267.8" font-family="Times,serif" font-size="14.00">_export</text>
<text text-anchor="middle" x="329" y="-252.8" font-family="Times,serif" font-size="14.00">{&quot;db_info&quot;: {&quot;include &quot;: &quot;config/database.dig&quot;</text>
<text text-anchor="middle" x="329" y="-237.8" font-family="Times,serif" font-size="14.00"> &quot;src&quot;: &quot;inside workflow1 dig file&quot;</text>
<text text-anchor="middle" x="329" y="-222.8" font-family="Times,serif" font-size="14.00"> &quot;env&quot;: &quot;Updated env in workflow file&quot;}}</text>
</g>
<!-- 41640f1e&#45;027d&#45;4129&#45;bff8&#45;384a07f286d2&#45;&gt;4cd55077&#45;6fa1&#45;41cd&#45;a3ce&#45;49925ccd415e -->
<g id="edge2" class="edge">
<title>41640f1e&#45;027d&#45;4129&#45;bff8&#45;384a07f286d2&#45;&gt;4cd55077&#45;6fa1&#45;41cd&#45;a3ce&#45;49925ccd415e</title>
<path fill="none" stroke="red" d="M329,-318.6C329,-311.18 329,-302.16 329,-293.14"/>
<polygon fill="red" stroke="red" points="332.5,-293.03 329,-283.03 325.5,-293.03 332.5,-293.03"/>
</g>
<!-- 0d1ee354&#45;9178&#45;4110&#45;adc1&#45;743d499b577e -->
<g id="node4" class="node">
<title>0d1ee354&#45;9178&#45;4110&#45;adc1&#45;743d499b577e</title>
<polygon fill="none" stroke="#912cee" points="372.5,-179 285.5,-179 285.5,-143 372.5,-143 372.5,-179"/>
<text text-anchor="middle" x="329" y="-157.3" font-family="Times,serif" font-size="14.00">+echo_task1</text>
</g>
<!-- 4cd55077&#45;6fa1&#45;41cd&#45;a3ce&#45;49925ccd415e&#45;&gt;0d1ee354&#45;9178&#45;4110&#45;adc1&#45;743d499b577e -->
<g id="edge3" class="edge">
<title>4cd55077&#45;6fa1&#45;41cd&#45;a3ce&#45;49925ccd415e&#45;&gt;0d1ee354&#45;9178&#45;4110&#45;adc1&#45;743d499b577e</title>
<path fill="none" stroke="red" d="M329,-215C329,-206.56 329,-197.59 329,-189.47"/>
<polygon fill="red" stroke="red" points="332.5,-189.4 329,-179.4 325.5,-189.4 332.5,-189.4"/>
</g>
<!-- 0c956f8e&#45;a814&#45;4a77&#45;938f&#45;e0dd5daa7667 -->
<g id="node5" class="node">
<title>0c956f8e&#45;a814&#45;4a77&#45;938f&#45;e0dd5daa7667</title>
<polygon fill="none" stroke="#8b6914" stroke-width="2" points="635,-107 447,-107 443,-103 443,-24 631,-24 635,-28 635,-107"/>
<polyline fill="none" stroke="#8b6914" stroke-width="2" points="631,-103 443,-103 "/>
<polyline fill="none" stroke="#8b6914" stroke-width="2" points="631,-103 631,-24 "/>
<polyline fill="none" stroke="#8b6914" stroke-width="2" points="631,-103 635,-107 "/>
<text text-anchor="middle" x="539" y="-91.8" font-family="Times,serif" font-size="14.00">_export</text>
<text text-anchor="middle" x="539" y="-76.8" font-family="Times,serif" font-size="14.00">{&quot;dest_tbl&quot;: &quot;dest_table_name&quot;</text>
<text text-anchor="middle" x="539" y="-61.8" font-family="Times,serif" font-size="14.00"> &quot;src_db&quot;: &quot;${dbname}&quot;</text>
<text text-anchor="middle" x="539" y="-46.8" font-family="Times,serif" font-size="14.00"> &quot;src_tbl1&quot;: &quot;${dbname}&quot;</text>
<text text-anchor="middle" x="539" y="-31.8" font-family="Times,serif" font-size="14.00"> &quot;src_tbl2&quot;: &quot;${dbname}&quot;}</text>
</g>
<!-- 0d1ee354&#45;9178&#45;4110&#45;adc1&#45;743d499b577e&#45;&gt;0c956f8e&#45;a814&#45;4a77&#45;938f&#45;e0dd5daa7667 -->
<g id="edge4" class="edge">
<title>0d1ee354&#45;9178&#45;4110&#45;adc1&#45;743d499b577e&#45;&gt;0c956f8e&#45;a814&#45;4a77&#45;938f&#45;e0dd5daa7667</title>
<path fill="none" stroke="red" d="M369.5,-142.95C389.05,-134.65 412.8,-124.44 434,-115 436.8,-113.75 439.64,-112.48 442.5,-111.2"/>
<polygon fill="red" stroke="red" points="444.03,-114.35 451.71,-107.04 441.16,-107.97 444.03,-114.35"/>
</g>
<!-- c6cc4c09&#45;a55d&#45;4b9f&#45;8e87&#45;a3331b1c4c89 -->
<g id="node6" class="node">
<title>c6cc4c09&#45;a55d&#45;4b9f&#45;8e87&#45;a3331b1c4c89</title>
<polygon fill="none" stroke="lightslategray" stroke-width="1.9" points="424.5,-84.5 233.5,-84.5 233.5,-46.5 424.5,-46.5 424.5,-84.5"/>
<text text-anchor="middle" x="329" y="-69.3" font-family="Times,serif" font-size="14.00">+echo_task1_child1</text>
<text text-anchor="middle" x="329" y="-54.3" font-family="Times,serif" font-size="14.00">{&#39;echo&gt;&#39;: &#39;this is Child task 1!&#39;}</text>
</g>
<!-- 0d1ee354&#45;9178&#45;4110&#45;adc1&#45;743d499b577e&#45;&gt;c6cc4c09&#45;a55d&#45;4b9f&#45;8e87&#45;a3331b1c4c89 -->
<g id="edge5" class="edge">
<title>0d1ee354&#45;9178&#45;4110&#45;adc1&#45;743d499b577e&#45;&gt;c6cc4c09&#45;a55d&#45;4b9f&#45;8e87&#45;a3331b1c4c89</title>
<path fill="none" stroke="red" d="M329,-142.85C329,-129.49 329,-110.64 329,-95.01"/>
<polygon fill="red" stroke="red" points="332.5,-94.82 329,-84.82 325.5,-94.82 332.5,-94.82"/>
</g>
<!-- 16ca3d19&#45;ef4d&#45;489c&#45;b346&#45;815d36889356 -->
<g id="node7" class="node">
<title>16ca3d19&#45;ef4d&#45;489c&#45;b346&#45;815d36889356</title>
<polygon fill="none" stroke="lightslategray" stroke-width="1.9" points="215.5,-84.5 24.5,-84.5 24.5,-46.5 215.5,-46.5 215.5,-84.5"/>
<text text-anchor="middle" x="120" y="-69.3" font-family="Times,serif" font-size="14.00">+echo_task1_child2</text>
<text text-anchor="middle" x="120" y="-54.3" font-family="Times,serif" font-size="14.00">{&#39;echo&gt;&#39;: &#39;this is Child task 2!&#39;}</text>
</g>
<!-- 0d1ee354&#45;9178&#45;4110&#45;adc1&#45;743d499b577e&#45;&gt;16ca3d19&#45;ef4d&#45;489c&#45;b346&#45;815d36889356 -->
<g id="edge6" class="edge">
<title>0d1ee354&#45;9178&#45;4110&#45;adc1&#45;743d499b577e&#45;&gt;16ca3d19&#45;ef4d&#45;489c&#45;b346&#45;815d36889356</title>
<path fill="none" stroke="red" d="M288.9,-142.92C269.54,-134.6 246.01,-124.4 225,-115 206.27,-106.62 185.76,-97.21 167.88,-88.91"/>
<polygon fill="red" stroke="red" points="169.34,-85.73 158.79,-84.69 166.39,-92.08 169.34,-85.73"/>
</g>
</g>
</svg>
