<?xml version="1.0" encoding="UTF-8" standalone="no"?>
<!DOCTYPE svg PUBLIC "-//W3C//DTD SVG 1.1//EN"
 "http://www.w3.org/Graphics/SVG/1.1/DTD/svg11.dtd">
<!-- Generated by graphviz version 2.48.0 (20210717.1556)
 -->
<!-- Pages: 1 -->
<svg width="333pt" height="284pt"
 viewBox="0.00 0.00 333.00 284.00" xmlns="http://www.w3.org/2000/svg" xmlns:xlink="http://www.w3.org/1999/xlink">
<g id="graph0" class="graph" transform="scale(1 1) rotate(0) translate(4 280)">
<polygon fill="white" stroke="transparent" points="-4,4 -4,-280 329,-280 329,4 -4,4"/>
<g id="clust1" class="cluster">
<title>cluster&#45;eadb1af3&#45;1eca&#45;44f1&#45;98f5&#45;b75198d92dfd</title>
<polygon fill="none" stroke="black" points="8,-8 8,-212 317,-212 317,-8 8,-8"/>
</g>
<g id="clust3" class="cluster">
<title>cluster&#45;1890ec9c&#45;88e1&#45;4b47&#45;9d89&#45;7d6d495481f1</title>
<polygon fill="none" stroke="black" points="16,-16 16,-68 309,-68 309,-16 16,-16"/>
</g>
<!-- aa9e690c&#45;cb1e&#45;4eaf&#45;8dec&#45;70bad5ac01ab -->
<g id="node1" class="node">
<title>aa9e690c&#45;cb1e&#45;4eaf&#45;8dec&#45;70bad5ac01ab</title>
<g id="a_node1"><a xlink:href="../../index.html" xlink:title="Click to HomePage">
<polygon fill="none" stroke="#ff3030" stroke-width="3" points="225,-276 99,-276 99,-240 225,-240 225,-276"/>
<text text-anchor="middle" x="162" y="-254.3" font-family="Times,serif" font-size="14.00">Click to HomePage</text>
</a>
</g>
</g>
<!-- edf4c92f&#45;600f&#45;4cae&#45;b364&#45;c6ed5894c902 -->
<g id="node2" class="node">
<title>edf4c92f&#45;600f&#45;4cae&#45;b364&#45;c6ed5894c902</title>
<polygon fill="none" stroke="mediumspringgreen" points="233,-204 91,-204 91,-168 233,-168 233,-204"/>
<text text-anchor="middle" x="162" y="-182.3" font-family="Times,serif" font-size="14.00">America/Los_Angeles</text>
</g>
<!-- aa9e690c&#45;cb1e&#45;4eaf&#45;8dec&#45;70bad5ac01ab&#45;&gt;edf4c92f&#45;600f&#45;4cae&#45;b364&#45;c6ed5894c902 -->
<g id="edge1" class="edge">
<title>aa9e690c&#45;cb1e&#45;4eaf&#45;8dec&#45;70bad5ac01ab&#45;&gt;edf4c92f&#45;600f&#45;4cae&#45;b364&#45;c6ed5894c902</title>
<path fill="none" stroke="red" d="M162,-239.7C162,-231.98 162,-222.71 162,-214.11"/>
<polygon fill="red" stroke="red" points="165.5,-214.1 162,-204.1 158.5,-214.1 165.5,-214.1"/>
</g>
<!-- 49463494&#45;cb12&#45;46aa&#45;9822&#45;d12ce375bdf9 -->
<g id="node3" class="node">
<title>49463494&#45;cb12&#45;46aa&#45;9822&#45;d12ce375bdf9</title>
<polygon fill="none" stroke="#ff3030" stroke-width="3" points="205.5,-132 118.5,-132 118.5,-96 205.5,-96 205.5,-132"/>
<text text-anchor="middle" x="162" y="-110.3" font-family="Times,serif" font-size="14.00">+echo_task1</text>
</g>
<!-- edf4c92f&#45;600f&#45;4cae&#45;b364&#45;c6ed5894c902&#45;&gt;49463494&#45;cb12&#45;46aa&#45;9822&#45;d12ce375bdf9 -->
<g id="edge2" class="edge">
<title>edf4c92f&#45;600f&#45;4cae&#45;b364&#45;c6ed5894c902&#45;&gt;49463494&#45;cb12&#45;46aa&#45;9822&#45;d12ce375bdf9</title>
<path fill="none" stroke="red" d="M162,-167.7C162,-159.98 162,-150.71 162,-142.11"/>
<polygon fill="red" stroke="red" points="165.5,-142.1 162,-132.1 158.5,-142.1 165.5,-142.1"/>
</g>
<!-- e5d3d8c3&#45;66b5&#45;46ea&#45;b825&#45;f23e062d60d8 -->
<g id="node4" class="node">
<title>e5d3d8c3&#45;66b5&#45;46ea&#45;b825&#45;f23e062d60d8</title>
<polygon fill="none" stroke="orangered" points="300.5,-60 171.5,-60 171.5,-24 300.5,-24 300.5,-60"/>
<text text-anchor="middle" x="236" y="-38.3" font-family="Times,serif" font-size="14.00">+echo_task1_child1</text>
</g>
<!-- 49463494&#45;cb12&#45;46aa&#45;9822&#45;d12ce375bdf9&#45;&gt;e5d3d8c3&#45;66b5&#45;46ea&#45;b825&#45;f23e062d60d8 -->
<g id="edge3" class="edge">
<title>49463494&#45;cb12&#45;46aa&#45;9822&#45;d12ce375bdf9&#45;&gt;e5d3d8c3&#45;66b5&#45;46ea&#45;b825&#45;f23e062d60d8</title>
<path fill="none" stroke="red" d="M180.29,-95.7C189.43,-87.05 200.64,-76.45 210.6,-67.03"/>
<polygon fill="red" stroke="red" points="213.06,-69.52 217.92,-60.1 208.25,-64.43 213.06,-69.52"/>
</g>
<!-- bb6c2390&#45;54a4&#45;4f1d&#45;8f1c&#45;89193b9ce6af -->
<g id="node5" class="node">
<title>bb6c2390&#45;54a4&#45;4f1d&#45;8f1c&#45;89193b9ce6af</title>
<polygon fill="none" stroke="orangered" points="153.5,-60 24.5,-60 24.5,-24 153.5,-24 153.5,-60"/>
<text text-anchor="middle" x="89" y="-38.3" font-family="Times,serif" font-size="14.00">+echo_task1_child2</text>
</g>
<!-- 49463494&#45;cb12&#45;46aa&#45;9822&#45;d12ce375bdf9&#45;&gt;bb6c2390&#45;54a4&#45;4f1d&#45;8f1c&#45;89193b9ce6af -->
<g id="edge4" class="edge">
<title>49463494&#45;cb12&#45;46aa&#45;9822&#45;d12ce375bdf9&#45;&gt;bb6c2390&#45;54a4&#45;4f1d&#45;8f1c&#45;89193b9ce6af</title>
<path fill="none" stroke="red" d="M143.96,-95.7C134.94,-87.05 123.88,-76.45 114.06,-67.03"/>
<polygon fill="red" stroke="red" points="116.48,-64.5 106.84,-60.1 111.63,-69.55 116.48,-64.5"/>
</g>
</g>
</svg>
