<?xml version="1.0" encoding="UTF-8" standalone="no"?>
<!DOCTYPE svg PUBLIC "-//W3C//DTD SVG 1.1//EN"
 "http://www.w3.org/Graphics/SVG/1.1/DTD/svg11.dtd">
<!-- Generated by graphviz version 2.48.0 (20210717.1556)
 -->
<!-- Pages: 1 -->
<svg width="333pt" height="284pt"
 viewBox="0.00 0.00 333.00 284.00" xmlns="http://www.w3.org/2000/svg" xmlns:xlink="http://www.w3.org/1999/xlink">
<g id="graph0" class="graph" transform="scale(1 1) rotate(0) translate(4 280)">
<polygon fill="white" stroke="transparent" points="-4,4 -4,-280 329,-280 329,4 -4,4"/>
<g id="clust1" class="cluster">
<title>cluster&#45;c82c5e37&#45;026d&#45;40af&#45;859f&#45;e5067b6e0a5e</title>
<polygon fill="none" stroke="black" points="8,-8 8,-212 317,-212 317,-8 8,-8"/>
</g>
<g id="clust3" class="cluster">
<title>cluster&#45;d3dad9cb&#45;8c2f&#45;4f08&#45;badd&#45;cfc70cfffa94</title>
<polygon fill="none" stroke="black" points="16,-16 16,-68 309,-68 309,-16 16,-16"/>
</g>
<!-- b3a5e6dc&#45;40d5&#45;47d7&#45;a4a3&#45;bb80e5208339 -->
<g id="node1" class="node">
<title>b3a5e6dc&#45;40d5&#45;47d7&#45;a4a3&#45;bb80e5208339</title>
<polygon fill="none" stroke="#ff3030" stroke-width="3" points="189,-276 135,-276 135,-240 189,-240 189,-276"/>
<text text-anchor="middle" x="162" y="-254.3" font-family="Times,serif" font-size="14.00">root</text>
</g>
<!-- f1e3a5af&#45;0a4a&#45;4b01&#45;bf39&#45;9e2965ea42c0 -->
<g id="node2" class="node">
<title>f1e3a5af&#45;0a4a&#45;4b01&#45;bf39&#45;9e2965ea42c0</title>
<polygon fill="none" stroke="mediumspringgreen" points="233,-204 91,-204 91,-168 233,-168 233,-204"/>
<text text-anchor="middle" x="162" y="-182.3" font-family="Times,serif" font-size="14.00">America/Los_Angeles</text>
</g>
<!-- b3a5e6dc&#45;40d5&#45;47d7&#45;a4a3&#45;bb80e5208339&#45;&gt;f1e3a5af&#45;0a4a&#45;4b01&#45;bf39&#45;9e2965ea42c0 -->
<g id="edge1" class="edge">
<title>b3a5e6dc&#45;40d5&#45;47d7&#45;a4a3&#45;bb80e5208339&#45;&gt;f1e3a5af&#45;0a4a&#45;4b01&#45;bf39&#45;9e2965ea42c0</title>
<path fill="none" stroke="red" d="M162,-239.7C162,-231.98 162,-222.71 162,-214.11"/>
<polygon fill="red" stroke="red" points="165.5,-214.1 162,-204.1 158.5,-214.1 165.5,-214.1"/>
</g>
<!-- fb599603&#45;c47f&#45;4bdc&#45;84df&#45;ff8d7d51dfdc -->
<g id="node3" class="node">
<title>fb599603&#45;c47f&#45;4bdc&#45;84df&#45;ff8d7d51dfdc</title>
<polygon fill="none" stroke="#ff3030" stroke-width="3" points="205.5,-132 118.5,-132 118.5,-96 205.5,-96 205.5,-132"/>
<text text-anchor="middle" x="162" y="-110.3" font-family="Times,serif" font-size="14.00">+echo_task1</text>
</g>
<!-- f1e3a5af&#45;0a4a&#45;4b01&#45;bf39&#45;9e2965ea42c0&#45;&gt;fb599603&#45;c47f&#45;4bdc&#45;84df&#45;ff8d7d51dfdc -->
<g id="edge2" class="edge">
<title>f1e3a5af&#45;0a4a&#45;4b01&#45;bf39&#45;9e2965ea42c0&#45;&gt;fb599603&#45;c47f&#45;4bdc&#45;84df&#45;ff8d7d51dfdc</title>
<path fill="none" stroke="red" d="M162,-167.7C162,-159.98 162,-150.71 162,-142.11"/>
<polygon fill="red" stroke="red" points="165.5,-142.1 162,-132.1 158.5,-142.1 165.5,-142.1"/>
</g>
<!-- 1d03dbd0&#45;6fa3&#45;45ac&#45;aedb&#45;e7a22ecf8387 -->
<g id="node4" class="node">
<title>1d03dbd0&#45;6fa3&#45;45ac&#45;aedb&#45;e7a22ecf8387</title>
<polygon fill="none" stroke="orangered" points="300.5,-60 171.5,-60 171.5,-24 300.5,-24 300.5,-60"/>
<text text-anchor="middle" x="236" y="-38.3" font-family="Times,serif" font-size="14.00">+echo_task1_child1</text>
</g>
<!-- fb599603&#45;c47f&#45;4bdc&#45;84df&#45;ff8d7d51dfdc&#45;&gt;1d03dbd0&#45;6fa3&#45;45ac&#45;aedb&#45;e7a22ecf8387 -->
<g id="edge3" class="edge">
<title>fb599603&#45;c47f&#45;4bdc&#45;84df&#45;ff8d7d51dfdc&#45;&gt;1d03dbd0&#45;6fa3&#45;45ac&#45;aedb&#45;e7a22ecf8387</title>
<path fill="none" stroke="red" d="M180.29,-95.7C189.43,-87.05 200.64,-76.45 210.6,-67.03"/>
<polygon fill="red" stroke="red" points="213.06,-69.52 217.92,-60.1 208.25,-64.43 213.06,-69.52"/>
</g>
<!-- 81e82ddb&#45;3f21&#45;4ce3&#45;b525&#45;97a42419639c -->
<g id="node5" class="node">
<title>81e82ddb&#45;3f21&#45;4ce3&#45;b525&#45;97a42419639c</title>
<polygon fill="none" stroke="orangered" points="153.5,-60 24.5,-60 24.5,-24 153.5,-24 153.5,-60"/>
<text text-anchor="middle" x="89" y="-38.3" font-family="Times,serif" font-size="14.00">+echo_task1_child2</text>
</g>
<!-- fb599603&#45;c47f&#45;4bdc&#45;84df&#45;ff8d7d51dfdc&#45;&gt;81e82ddb&#45;3f21&#45;4ce3&#45;b525&#45;97a42419639c -->
<g id="edge4" class="edge">
<title>fb599603&#45;c47f&#45;4bdc&#45;84df&#45;ff8d7d51dfdc&#45;&gt;81e82ddb&#45;3f21&#45;4ce3&#45;b525&#45;97a42419639c</title>
<path fill="none" stroke="red" d="M143.96,-95.7C134.94,-87.05 123.88,-76.45 114.06,-67.03"/>
<polygon fill="red" stroke="red" points="116.48,-64.5 106.84,-60.1 111.63,-69.55 116.48,-64.5"/>
</g>
</g>
</svg>
