<?xml version="1.0" encoding="UTF-8" standalone="no"?>
<!DOCTYPE svg PUBLIC "-//W3C//DTD SVG 1.1//EN"
 "http://www.w3.org/Graphics/SVG/1.1/DTD/svg11.dtd">
<!-- Generated by graphviz version 2.48.0 (20210717.1556)
 -->
<!-- Pages: 1 -->
<svg width="333pt" height="284pt"
 viewBox="0.00 0.00 333.00 284.00" xmlns="http://www.w3.org/2000/svg" xmlns:xlink="http://www.w3.org/1999/xlink">
<g id="graph0" class="graph" transform="scale(1 1) rotate(0) translate(4 280)">
<polygon fill="white" stroke="transparent" points="-4,4 -4,-280 329,-280 329,4 -4,4"/>
<g id="clust1" class="cluster">
<title>cluster&#45;957fc29b&#45;fbc9&#45;44c7&#45;9c03&#45;5220e45edbce</title>
<polygon fill="none" stroke="black" points="8,-8 8,-212 317,-212 317,-8 8,-8"/>
</g>
<g id="clust3" class="cluster">
<title>cluster&#45;f8b59449&#45;fc95&#45;4f34&#45;be68&#45;41d6904da2d8</title>
<polygon fill="none" stroke="black" points="16,-16 16,-68 309,-68 309,-16 16,-16"/>
</g>
<!-- c40a5b2c&#45;a694&#45;47b4&#45;bf08&#45;d29309ec1977 -->
<g id="node1" class="node">
<title>c40a5b2c&#45;a694&#45;47b4&#45;bf08&#45;d29309ec1977</title>
<g id="a_node1"><a xlink:href="../../index.html" xlink:title="Click to HomePage">
<polygon fill="none" stroke="#ff3030" stroke-width="3" points="225,-276 99,-276 99,-240 225,-240 225,-276"/>
<text text-anchor="middle" x="162" y="-254.3" font-family="Times,serif" font-size="14.00">Click to HomePage</text>
</a>
</g>
</g>
<!-- 6e38723e&#45;a784&#45;4976&#45;b16e&#45;04050e811291 -->
<g id="node2" class="node">
<title>6e38723e&#45;a784&#45;4976&#45;b16e&#45;04050e811291</title>
<polygon fill="none" stroke="mediumspringgreen" points="233,-204 91,-204 91,-168 233,-168 233,-204"/>
<text text-anchor="middle" x="162" y="-182.3" font-family="Times,serif" font-size="14.00">America/Los_Angeles</text>
</g>
<!-- c40a5b2c&#45;a694&#45;47b4&#45;bf08&#45;d29309ec1977&#45;&gt;6e38723e&#45;a784&#45;4976&#45;b16e&#45;04050e811291 -->
<g id="edge1" class="edge">
<title>c40a5b2c&#45;a694&#45;47b4&#45;bf08&#45;d29309ec1977&#45;&gt;6e38723e&#45;a784&#45;4976&#45;b16e&#45;04050e811291</title>
<path fill="none" stroke="red" d="M162,-239.7C162,-231.98 162,-222.71 162,-214.11"/>
<polygon fill="red" stroke="red" points="165.5,-214.1 162,-204.1 158.5,-214.1 165.5,-214.1"/>
</g>
<!-- fe7f315b&#45;467b&#45;4b2c&#45;8261&#45;d7598f0dba13 -->
<g id="node3" class="node">
<title>fe7f315b&#45;467b&#45;4b2c&#45;8261&#45;d7598f0dba13</title>
<polygon fill="none" stroke="#ff3030" stroke-width="3" points="205.5,-132 118.5,-132 118.5,-96 205.5,-96 205.5,-132"/>
<text text-anchor="middle" x="162" y="-110.3" font-family="Times,serif" font-size="14.00">+echo_task1</text>
</g>
<!-- 6e38723e&#45;a784&#45;4976&#45;b16e&#45;04050e811291&#45;&gt;fe7f315b&#45;467b&#45;4b2c&#45;8261&#45;d7598f0dba13 -->
<g id="edge2" class="edge">
<title>6e38723e&#45;a784&#45;4976&#45;b16e&#45;04050e811291&#45;&gt;fe7f315b&#45;467b&#45;4b2c&#45;8261&#45;d7598f0dba13</title>
<path fill="none" stroke="red" d="M162,-167.7C162,-159.98 162,-150.71 162,-142.11"/>
<polygon fill="red" stroke="red" points="165.5,-142.1 162,-132.1 158.5,-142.1 165.5,-142.1"/>
</g>
<!-- 084af87f&#45;2531&#45;45bd&#45;a99c&#45;3d0a67c7407b -->
<g id="node4" class="node">
<title>084af87f&#45;2531&#45;45bd&#45;a99c&#45;3d0a67c7407b</title>
<polygon fill="none" stroke="orangered" points="300.5,-60 171.5,-60 171.5,-24 300.5,-24 300.5,-60"/>
<text text-anchor="middle" x="236" y="-38.3" font-family="Times,serif" font-size="14.00">+echo_task1_child1</text>
</g>
<!-- fe7f315b&#45;467b&#45;4b2c&#45;8261&#45;d7598f0dba13&#45;&gt;084af87f&#45;2531&#45;45bd&#45;a99c&#45;3d0a67c7407b -->
<g id="edge3" class="edge">
<title>fe7f315b&#45;467b&#45;4b2c&#45;8261&#45;d7598f0dba13&#45;&gt;084af87f&#45;2531&#45;45bd&#45;a99c&#45;3d0a67c7407b</title>
<path fill="none" stroke="red" d="M180.29,-95.7C189.43,-87.05 200.64,-76.45 210.6,-67.03"/>
<polygon fill="red" stroke="red" points="213.06,-69.52 217.92,-60.1 208.25,-64.43 213.06,-69.52"/>
</g>
<!-- 0d8d497b&#45;35db&#45;4466&#45;be09&#45;c6bec514e4d9 -->
<g id="node5" class="node">
<title>0d8d497b&#45;35db&#45;4466&#45;be09&#45;c6bec514e4d9</title>
<polygon fill="none" stroke="orangered" points="153.5,-60 24.5,-60 24.5,-24 153.5,-24 153.5,-60"/>
<text text-anchor="middle" x="89" y="-38.3" font-family="Times,serif" font-size="14.00">+echo_task1_child2</text>
</g>
<!-- fe7f315b&#45;467b&#45;4b2c&#45;8261&#45;d7598f0dba13&#45;&gt;0d8d497b&#45;35db&#45;4466&#45;be09&#45;c6bec514e4d9 -->
<g id="edge4" class="edge">
<title>fe7f315b&#45;467b&#45;4b2c&#45;8261&#45;d7598f0dba13&#45;&gt;0d8d497b&#45;35db&#45;4466&#45;be09&#45;c6bec514e4d9</title>
<path fill="none" stroke="red" d="M143.96,-95.7C134.94,-87.05 123.88,-76.45 114.06,-67.03"/>
<polygon fill="red" stroke="red" points="116.48,-64.5 106.84,-60.1 111.63,-69.55 116.48,-64.5"/>
</g>
</g>
</svg>
