<?xml version="1.0" encoding="UTF-8" standalone="no"?>
<!DOCTYPE svg PUBLIC "-//W3C//DTD SVG 1.1//EN"
 "http://www.w3.org/Graphics/SVG/1.1/DTD/svg11.dtd">
<!-- Generated by graphviz version 2.48.0 (20210717.1556)
 -->
<!-- Pages: 1 -->
<svg width="667pt" height="435pt"
 viewBox="0.00 0.00 667.00 435.00" xmlns="http://www.w3.org/2000/svg" xmlns:xlink="http://www.w3.org/1999/xlink">
<g id="graph0" class="graph" transform="scale(1 1) rotate(0) translate(4 431)">
<polygon fill="white" stroke="transparent" points="-4,4 -4,-431 663,-431 663,4 -4,4"/>
<g id="clust1" class="cluster">
<title>cluster&#45;ed327e6d&#45;951a&#45;4965&#45;a9ed&#45;9cbd8aba7486</title>
<polygon fill="none" stroke="black" points="8,-8 8,-363 651,-363 651,-8 8,-8"/>
</g>
<g id="clust4" class="cluster">
<title>cluster&#45;971c5ed4&#45;69b1&#45;4c18&#45;b23e&#45;a30ed301dbc9</title>
<polygon fill="none" stroke="black" points="16,-16 16,-115 643,-115 643,-16 16,-16"/>
</g>
<!-- 371f5a9d&#45;44f5&#45;4426&#45;9bf0&#45;b437d7cb9cab -->
<g id="node1" class="node">
<title>371f5a9d&#45;44f5&#45;4426&#45;9bf0&#45;b437d7cb9cab</title>
<g id="a_node1"><a xlink:href="../../index.html" xlink:title="Click to HomePage">
<polygon fill="none" stroke="brown" points="392,-427 266,-427 266,-391 392,-391 392,-427"/>
<text text-anchor="middle" x="329" y="-405.3" font-family="Times,serif" font-size="14.00">Click to HomePage</text>
</a>
</g>
</g>
<!-- 4b553aae&#45;1aef&#45;4325&#45;bd3c&#45;e36ebdacdbae -->
<g id="node2" class="node">
<title>4b553aae&#45;1aef&#45;4325&#45;bd3c&#45;e36ebdacdbae</title>
<polygon fill="none" stroke="mediumspringgreen" points="388,-349 258,-349 258,-325 388,-325 400,-337 388,-349"/>
<text text-anchor="middle" x="329" y="-333.3" font-family="Times,serif" font-size="14.00">America/Los_Angeles</text>
</g>
<!-- 371f5a9d&#45;44f5&#45;4426&#45;9bf0&#45;b437d7cb9cab&#45;&gt;4b553aae&#45;1aef&#45;4325&#45;bd3c&#45;e36ebdacdbae -->
<g id="edge1" class="edge">
<title>371f5a9d&#45;44f5&#45;4426&#45;9bf0&#45;b437d7cb9cab&#45;&gt;4b553aae&#45;1aef&#45;4325&#45;bd3c&#45;e36ebdacdbae</title>
<path fill="none" stroke="red" d="M329,-390.7C329,-382.98 329,-373.71 329,-365.11"/>
<polygon fill="red" stroke="red" points="332.5,-365.1 329,-355.1 325.5,-365.1 332.5,-365.1"/>
</g>
<!-- a89b6701&#45;f3de&#45;4b57&#45;84b5&#45;a5775e884b27 -->
<g id="node3" class="node">
<title>a89b6701&#45;f3de&#45;4b57&#45;84b5&#45;a5775e884b27</title>
<polygon fill="none" stroke="#8b6914" stroke-width="2" points="467,-283 195,-283 191,-279 191,-215 463,-215 467,-219 467,-283"/>
<polyline fill="none" stroke="#8b6914" stroke-width="2" points="463,-279 191,-279 "/>
<polyline fill="none" stroke="#8b6914" stroke-width="2" points="463,-279 463,-215 "/>
<polyline fill="none" stroke="#8b6914" stroke-width="2" points="463,-279 467,-283 "/>
<text text-anchor="middle" x="329" y="-267.8" font-family="Times,serif" font-size="14.00">_export</text>
<text text-anchor="middle" x="329" y="-252.8" font-family="Times,serif" font-size="14.00">{&quot;db_info&quot;: {&quot;include &quot;: &quot;config/database.dig&quot;</text>
<text text-anchor="middle" x="329" y="-237.8" font-family="Times,serif" font-size="14.00"> &quot;src&quot;: &quot;inside workflow1 dig file&quot;</text>
<text text-anchor="middle" x="329" y="-222.8" font-family="Times,serif" font-size="14.00"> &quot;env&quot;: &quot;Updated env in workflow file&quot;}}</text>
</g>
<!-- 4b553aae&#45;1aef&#45;4325&#45;bd3c&#45;e36ebdacdbae&#45;&gt;a89b6701&#45;f3de&#45;4b57&#45;84b5&#45;a5775e884b27 -->
<g id="edge2" class="edge">
<title>4b553aae&#45;1aef&#45;4325&#45;bd3c&#45;e36ebdacdbae&#45;&gt;a89b6701&#45;f3de&#45;4b57&#45;84b5&#45;a5775e884b27</title>
<path fill="none" stroke="red" d="M329,-318.6C329,-311.18 329,-302.16 329,-293.14"/>
<polygon fill="red" stroke="red" points="332.5,-293.03 329,-283.03 325.5,-293.03 332.5,-293.03"/>
</g>
<!-- 4bca03b3&#45;d30b&#45;43eb&#45;af64&#45;5a8de202dce9 -->
<g id="node4" class="node">
<title>4bca03b3&#45;d30b&#45;43eb&#45;af64&#45;5a8de202dce9</title>
<polygon fill="none" stroke="#912cee" points="372.5,-179 285.5,-179 285.5,-143 372.5,-143 372.5,-179"/>
<text text-anchor="middle" x="329" y="-157.3" font-family="Times,serif" font-size="14.00">+echo_task1</text>
</g>
<!-- a89b6701&#45;f3de&#45;4b57&#45;84b5&#45;a5775e884b27&#45;&gt;4bca03b3&#45;d30b&#45;43eb&#45;af64&#45;5a8de202dce9 -->
<g id="edge3" class="edge">
<title>a89b6701&#45;f3de&#45;4b57&#45;84b5&#45;a5775e884b27&#45;&gt;4bca03b3&#45;d30b&#45;43eb&#45;af64&#45;5a8de202dce9</title>
<path fill="none" stroke="red" d="M329,-215C329,-206.56 329,-197.59 329,-189.47"/>
<polygon fill="red" stroke="red" points="332.5,-189.4 329,-179.4 325.5,-189.4 332.5,-189.4"/>
</g>
<!-- eadb1412&#45;d08c&#45;4d25&#45;acca&#45;dc2f9a16ff3b -->
<g id="node5" class="node">
<title>eadb1412&#45;d08c&#45;4d25&#45;acca&#45;dc2f9a16ff3b</title>
<polygon fill="none" stroke="#8b6914" stroke-width="2" points="635,-107 447,-107 443,-103 443,-24 631,-24 635,-28 635,-107"/>
<polyline fill="none" stroke="#8b6914" stroke-width="2" points="631,-103 443,-103 "/>
<polyline fill="none" stroke="#8b6914" stroke-width="2" points="631,-103 631,-24 "/>
<polyline fill="none" stroke="#8b6914" stroke-width="2" points="631,-103 635,-107 "/>
<text text-anchor="middle" x="539" y="-91.8" font-family="Times,serif" font-size="14.00">_export</text>
<text text-anchor="middle" x="539" y="-76.8" font-family="Times,serif" font-size="14.00">{&quot;dest_tbl&quot;: &quot;dest_table_name&quot;</text>
<text text-anchor="middle" x="539" y="-61.8" font-family="Times,serif" font-size="14.00"> &quot;src_db&quot;: &quot;${dbname}&quot;</text>
<text text-anchor="middle" x="539" y="-46.8" font-family="Times,serif" font-size="14.00"> &quot;src_tbl1&quot;: &quot;${dbname}&quot;</text>
<text text-anchor="middle" x="539" y="-31.8" font-family="Times,serif" font-size="14.00"> &quot;src_tbl2&quot;: &quot;${dbname}&quot;}</text>
</g>
<!-- 4bca03b3&#45;d30b&#45;43eb&#45;af64&#45;5a8de202dce9&#45;&gt;eadb1412&#45;d08c&#45;4d25&#45;acca&#45;dc2f9a16ff3b -->
<g id="edge4" class="edge">
<title>4bca03b3&#45;d30b&#45;43eb&#45;af64&#45;5a8de202dce9&#45;&gt;eadb1412&#45;d08c&#45;4d25&#45;acca&#45;dc2f9a16ff3b</title>
<path fill="none" stroke="red" d="M369.5,-142.95C389.05,-134.65 412.8,-124.44 434,-115 436.8,-113.75 439.64,-112.48 442.5,-111.2"/>
<polygon fill="red" stroke="red" points="444.03,-114.35 451.71,-107.04 441.16,-107.97 444.03,-114.35"/>
</g>
<!-- 191acbef&#45;76c4&#45;47f9&#45;bb57&#45;f28a41f65697 -->
<g id="node6" class="node">
<title>191acbef&#45;76c4&#45;47f9&#45;bb57&#45;f28a41f65697</title>
<polygon fill="none" stroke="lightslategray" stroke-width="1.9" points="424.5,-84.5 233.5,-84.5 233.5,-46.5 424.5,-46.5 424.5,-84.5"/>
<text text-anchor="middle" x="329" y="-69.3" font-family="Times,serif" font-size="14.00">+echo_task1_child1</text>
<text text-anchor="middle" x="329" y="-54.3" font-family="Times,serif" font-size="14.00">{&#39;echo&gt;&#39;: &#39;this is Child task 1!&#39;}</text>
</g>
<!-- 4bca03b3&#45;d30b&#45;43eb&#45;af64&#45;5a8de202dce9&#45;&gt;191acbef&#45;76c4&#45;47f9&#45;bb57&#45;f28a41f65697 -->
<g id="edge5" class="edge">
<title>4bca03b3&#45;d30b&#45;43eb&#45;af64&#45;5a8de202dce9&#45;&gt;191acbef&#45;76c4&#45;47f9&#45;bb57&#45;f28a41f65697</title>
<path fill="none" stroke="red" d="M329,-142.85C329,-129.49 329,-110.64 329,-95.01"/>
<polygon fill="red" stroke="red" points="332.5,-94.82 329,-84.82 325.5,-94.82 332.5,-94.82"/>
</g>
<!-- 19d2418a&#45;2bbd&#45;4287&#45;b795&#45;81d550ad6ae7 -->
<g id="node7" class="node">
<title>19d2418a&#45;2bbd&#45;4287&#45;b795&#45;81d550ad6ae7</title>
<polygon fill="none" stroke="lightslategray" stroke-width="1.9" points="215.5,-84.5 24.5,-84.5 24.5,-46.5 215.5,-46.5 215.5,-84.5"/>
<text text-anchor="middle" x="120" y="-69.3" font-family="Times,serif" font-size="14.00">+echo_task1_child2</text>
<text text-anchor="middle" x="120" y="-54.3" font-family="Times,serif" font-size="14.00">{&#39;echo&gt;&#39;: &#39;this is Child task 2!&#39;}</text>
</g>
<!-- 4bca03b3&#45;d30b&#45;43eb&#45;af64&#45;5a8de202dce9&#45;&gt;19d2418a&#45;2bbd&#45;4287&#45;b795&#45;81d550ad6ae7 -->
<g id="edge6" class="edge">
<title>4bca03b3&#45;d30b&#45;43eb&#45;af64&#45;5a8de202dce9&#45;&gt;19d2418a&#45;2bbd&#45;4287&#45;b795&#45;81d550ad6ae7</title>
<path fill="none" stroke="red" d="M288.9,-142.92C269.54,-134.6 246.01,-124.4 225,-115 206.27,-106.62 185.76,-97.21 167.88,-88.91"/>
<polygon fill="red" stroke="red" points="169.34,-85.73 158.79,-84.69 166.39,-92.08 169.34,-85.73"/>
</g>
</g>
</svg>
