<?xml version="1.0" encoding="UTF-8" standalone="no"?>
<!DOCTYPE svg PUBLIC "-//W3C//DTD SVG 1.1//EN"
 "http://www.w3.org/Graphics/SVG/1.1/DTD/svg11.dtd">
<!-- Generated by graphviz version 2.48.0 (20210717.1556)
 -->
<!-- Pages: 1 -->
<svg width="333pt" height="566pt"
 viewBox="0.00 0.00 333.00 566.00" xmlns="http://www.w3.org/2000/svg" xmlns:xlink="http://www.w3.org/1999/xlink">
<g id="graph0" class="graph" transform="scale(1 1) rotate(0) translate(4 562)">
<polygon fill="white" stroke="transparent" points="-4,4 -4,-562 329,-562 329,4 -4,4"/>
<g id="clust1" class="cluster">
<title>cluster&#45;052842c5&#45;d69e&#45;4eb0&#45;8516&#45;14ea98bf8e24</title>
<polygon fill="none" stroke="black" points="8,-8 8,-494 317,-494 317,-8 8,-8"/>
</g>
<g id="clust4" class="cluster">
<title>cluster&#45;61ccd586&#45;912d&#45;45d3&#45;ad2c&#45;f8051090913a</title>
<polygon fill="none" stroke="black" points="16,-226 16,-278 309,-278 309,-226 16,-226"/>
</g>
<!-- 43bdcf46&#45;d2ac&#45;41ca&#45;bccb&#45;688e5619e1f3 -->
<g id="node1" class="node">
<title>43bdcf46&#45;d2ac&#45;41ca&#45;bccb&#45;688e5619e1f3</title>
<g id="a_node1"><a xlink:href="../../index.html" xlink:title="Click to HomePage">
<polygon fill="none" stroke="#ff3030" stroke-width="3" points="225,-558 99,-558 99,-522 225,-522 225,-558"/>
<text text-anchor="middle" x="162" y="-536.3" font-family="Times,serif" font-size="14.00">Click to HomePage</text>
</a>
</g>
</g>
<!-- a58446c4&#45;97a3&#45;4960&#45;b769&#45;20907acee636 -->
<g id="node2" class="node">
<title>a58446c4&#45;97a3&#45;4960&#45;b769&#45;20907acee636</title>
<polygon fill="none" stroke="mediumspringgreen" points="233,-486 91,-486 91,-450 233,-450 233,-486"/>
<text text-anchor="middle" x="162" y="-464.3" font-family="Times,serif" font-size="14.00">America/Los_Angeles</text>
</g>
<!-- 43bdcf46&#45;d2ac&#45;41ca&#45;bccb&#45;688e5619e1f3&#45;&gt;a58446c4&#45;97a3&#45;4960&#45;b769&#45;20907acee636 -->
<g id="edge1" class="edge">
<title>43bdcf46&#45;d2ac&#45;41ca&#45;bccb&#45;688e5619e1f3&#45;&gt;a58446c4&#45;97a3&#45;4960&#45;b769&#45;20907acee636</title>
<path fill="none" stroke="red" d="M162,-521.7C162,-513.98 162,-504.71 162,-496.11"/>
<polygon fill="red" stroke="red" points="165.5,-496.1 162,-486.1 158.5,-496.1 165.5,-496.1"/>
</g>
<!-- cff193fb&#45;f78f&#45;4769&#45;a463&#45;a40c50a1136c -->
<g id="node3" class="node">
<title>cff193fb&#45;f78f&#45;4769&#45;a463&#45;a40c50a1136c</title>
<polygon fill="none" stroke="#ff00ff" points="245,-414 79,-414 79,-378 245,-378 245,-414"/>
<text text-anchor="middle" x="162" y="-392.3" font-family="Times,serif" font-size="14.00">{&quot;cron&gt;&quot;: &quot;30 6,18 * * *&quot;}</text>
</g>
<!-- a58446c4&#45;97a3&#45;4960&#45;b769&#45;20907acee636&#45;&gt;cff193fb&#45;f78f&#45;4769&#45;a463&#45;a40c50a1136c -->
<g id="edge2" class="edge">
<title>a58446c4&#45;97a3&#45;4960&#45;b769&#45;20907acee636&#45;&gt;cff193fb&#45;f78f&#45;4769&#45;a463&#45;a40c50a1136c</title>
<path fill="none" stroke="red" d="M162,-449.7C162,-441.98 162,-432.71 162,-424.11"/>
<polygon fill="red" stroke="red" points="165.5,-424.1 162,-414.1 158.5,-424.1 165.5,-424.1"/>
</g>
<!-- cf236cad&#45;5a41&#45;4d0a&#45;8e41&#45;b6273f527387 -->
<g id="node4" class="node">
<title>cf236cad&#45;5a41&#45;4d0a&#45;8e41&#45;b6273f527387</title>
<polygon fill="none" stroke="#ff3030" stroke-width="3" points="205.5,-342 118.5,-342 118.5,-306 205.5,-306 205.5,-342"/>
<text text-anchor="middle" x="162" y="-320.3" font-family="Times,serif" font-size="14.00">+echo_task1</text>
</g>
<!-- cff193fb&#45;f78f&#45;4769&#45;a463&#45;a40c50a1136c&#45;&gt;cf236cad&#45;5a41&#45;4d0a&#45;8e41&#45;b6273f527387 -->
<g id="edge3" class="edge">
<title>cff193fb&#45;f78f&#45;4769&#45;a463&#45;a40c50a1136c&#45;&gt;cf236cad&#45;5a41&#45;4d0a&#45;8e41&#45;b6273f527387</title>
<path fill="none" stroke="red" d="M162,-377.7C162,-369.98 162,-360.71 162,-352.11"/>
<polygon fill="red" stroke="red" points="165.5,-352.1 162,-342.1 158.5,-352.1 165.5,-352.1"/>
</g>
<!-- dd5f0de5&#45;9f63&#45;4212&#45;89d6&#45;f22162f0b252 -->
<g id="node5" class="node">
<title>dd5f0de5&#45;9f63&#45;4212&#45;89d6&#45;f22162f0b252</title>
<polygon fill="none" stroke="orangered" points="300.5,-270 171.5,-270 171.5,-234 300.5,-234 300.5,-270"/>
<text text-anchor="middle" x="236" y="-248.3" font-family="Times,serif" font-size="14.00">+echo_task1_child1</text>
</g>
<!-- cf236cad&#45;5a41&#45;4d0a&#45;8e41&#45;b6273f527387&#45;&gt;dd5f0de5&#45;9f63&#45;4212&#45;89d6&#45;f22162f0b252 -->
<g id="edge8" class="edge">
<title>cf236cad&#45;5a41&#45;4d0a&#45;8e41&#45;b6273f527387&#45;&gt;dd5f0de5&#45;9f63&#45;4212&#45;89d6&#45;f22162f0b252</title>
<path fill="none" stroke="red" d="M180.29,-305.7C189.43,-297.05 200.64,-286.45 210.6,-277.03"/>
<polygon fill="red" stroke="red" points="213.06,-279.52 217.92,-270.1 208.25,-274.43 213.06,-279.52"/>
</g>
<!-- 39c2d299&#45;c64d&#45;43c5&#45;a298&#45;323fd04d0c6c -->
<g id="node7" class="node">
<title>39c2d299&#45;c64d&#45;43c5&#45;a298&#45;323fd04d0c6c</title>
<polygon fill="none" stroke="orangered" points="153.5,-270 24.5,-270 24.5,-234 153.5,-234 153.5,-270"/>
<text text-anchor="middle" x="89" y="-248.3" font-family="Times,serif" font-size="14.00">+echo_task1_child2</text>
</g>
<!-- cf236cad&#45;5a41&#45;4d0a&#45;8e41&#45;b6273f527387&#45;&gt;39c2d299&#45;c64d&#45;43c5&#45;a298&#45;323fd04d0c6c -->
<g id="edge9" class="edge">
<title>cf236cad&#45;5a41&#45;4d0a&#45;8e41&#45;b6273f527387&#45;&gt;39c2d299&#45;c64d&#45;43c5&#45;a298&#45;323fd04d0c6c</title>
<path fill="none" stroke="red" d="M143.96,-305.7C134.94,-297.05 123.88,-286.45 114.06,-277.03"/>
<polygon fill="red" stroke="red" points="116.48,-274.5 106.84,-270.1 111.63,-279.55 116.48,-274.5"/>
</g>
<!-- cb899d65&#45;01e5&#45;4bec&#45;9b81&#45;460ed5f73ab6 -->
<g id="node6" class="node">
<title>cb899d65&#45;01e5&#45;4bec&#45;9b81&#45;460ed5f73ab6</title>
<polygon fill="none" stroke="orangered" points="205.5,-198 118.5,-198 118.5,-162 205.5,-162 205.5,-198"/>
<text text-anchor="middle" x="162" y="-176.3" font-family="Times,serif" font-size="14.00">+echo_task2</text>
</g>
<!-- dd5f0de5&#45;9f63&#45;4212&#45;89d6&#45;f22162f0b252&#45;&gt;cb899d65&#45;01e5&#45;4bec&#45;9b81&#45;460ed5f73ab6 -->
<g id="edge4" class="edge">
<title>dd5f0de5&#45;9f63&#45;4212&#45;89d6&#45;f22162f0b252&#45;&gt;cb899d65&#45;01e5&#45;4bec&#45;9b81&#45;460ed5f73ab6</title>
<path fill="none" stroke="red" d="M217.71,-233.7C208.57,-225.05 197.36,-214.45 187.4,-205.03"/>
<polygon fill="red" stroke="red" points="189.75,-202.43 180.08,-198.1 184.94,-207.52 189.75,-202.43"/>
</g>
<!-- 20ae3c4e&#45;dd3e&#45;458a&#45;9ae7&#45;dc6c9bc64390 -->
<g id="node8" class="node">
<title>20ae3c4e&#45;dd3e&#45;458a&#45;9ae7&#45;dc6c9bc64390</title>
<polygon fill="none" stroke="orangered" points="205.5,-126 118.5,-126 118.5,-90 205.5,-90 205.5,-126"/>
<text text-anchor="middle" x="162" y="-104.3" font-family="Times,serif" font-size="14.00">+echo_task3</text>
</g>
<!-- cb899d65&#45;01e5&#45;4bec&#45;9b81&#45;460ed5f73ab6&#45;&gt;20ae3c4e&#45;dd3e&#45;458a&#45;9ae7&#45;dc6c9bc64390 -->
<g id="edge6" class="edge">
<title>cb899d65&#45;01e5&#45;4bec&#45;9b81&#45;460ed5f73ab6&#45;&gt;20ae3c4e&#45;dd3e&#45;458a&#45;9ae7&#45;dc6c9bc64390</title>
<path fill="none" stroke="red" d="M162,-161.7C162,-153.98 162,-144.71 162,-136.11"/>
<polygon fill="red" stroke="red" points="165.5,-136.1 162,-126.1 158.5,-136.1 165.5,-136.1"/>
</g>
<!-- 39c2d299&#45;c64d&#45;43c5&#45;a298&#45;323fd04d0c6c&#45;&gt;cb899d65&#45;01e5&#45;4bec&#45;9b81&#45;460ed5f73ab6 -->
<g id="edge5" class="edge">
<title>39c2d299&#45;c64d&#45;43c5&#45;a298&#45;323fd04d0c6c&#45;&gt;cb899d65&#45;01e5&#45;4bec&#45;9b81&#45;460ed5f73ab6</title>
<path fill="none" stroke="red" d="M107.04,-233.7C116.06,-225.05 127.12,-214.45 136.94,-205.03"/>
<polygon fill="red" stroke="red" points="139.37,-207.55 144.16,-198.1 134.52,-202.5 139.37,-207.55"/>
</g>
<!-- 004c27fa&#45;717c&#45;41f2&#45;af5c&#45;aadf63ebf8c7 -->
<g id="node9" class="node">
<title>004c27fa&#45;717c&#45;41f2&#45;af5c&#45;aadf63ebf8c7</title>
<g id="a_node9"><a xlink:href="../project1/workflow2.html" xlink:title="+call_workflow2&#10;workflow2.dig">
<polygon fill="none" stroke="#ff3030" stroke-width="3" points="218,-54 106,-54 106,-16 218,-16 218,-54"/>
<text text-anchor="middle" x="162" y="-38.8" font-family="Times,serif" font-size="14.00">+call_workflow2</text>
<text text-anchor="middle" x="162" y="-23.8" font-family="Times,serif" font-size="14.00">workflow2.dig</text>
</a>
</g>
</g>
<!-- 20ae3c4e&#45;dd3e&#45;458a&#45;9ae7&#45;dc6c9bc64390&#45;&gt;004c27fa&#45;717c&#45;41f2&#45;af5c&#45;aadf63ebf8c7 -->
<g id="edge7" class="edge">
<title>20ae3c4e&#45;dd3e&#45;458a&#45;9ae7&#45;dc6c9bc64390&#45;&gt;004c27fa&#45;717c&#45;41f2&#45;af5c&#45;aadf63ebf8c7</title>
<path fill="none" stroke="red" d="M162,-89.81C162,-82.11 162,-72.82 162,-64.15"/>
<polygon fill="red" stroke="red" points="165.5,-64.02 162,-54.02 158.5,-64.02 165.5,-64.02"/>
</g>
</g>
</svg>
