<?xml version="1.0" encoding="UTF-8" standalone="no"?>
<!DOCTYPE svg PUBLIC "-//W3C//DTD SVG 1.1//EN"
 "http://www.w3.org/Graphics/SVG/1.1/DTD/svg11.dtd">
<!-- Generated by graphviz version 2.48.0 (20210717.1556)
 -->
<!-- Pages: 1 -->
<svg width="836pt" height="725pt"
 viewBox="0.00 0.00 836.00 725.00" xmlns="http://www.w3.org/2000/svg" xmlns:xlink="http://www.w3.org/1999/xlink">
<g id="graph0" class="graph" transform="scale(1 1) rotate(0) translate(4 721)">
<polygon fill="white" stroke="transparent" points="-4,4 -4,-721 832,-721 832,4 -4,4"/>
<g id="clust1" class="cluster">
<title>cluster&#45;33f570fb&#45;3c47&#45;4022&#45;b9d6&#45;82f33ae5828c</title>
<polygon fill="none" stroke="black" points="8,-8 8,-653 820,-653 820,-8 8,-8"/>
</g>
<g id="clust4" class="cluster">
<title>cluster&#45;7003db35&#45;a57c&#45;4ebb&#45;ba52&#45;aa00e1f4062e</title>
<polygon fill="none" stroke="black" points="310,-304 310,-403 518,-403 518,-304 310,-304"/>
</g>
<!-- 798ccf13&#45;4a3a&#45;4fee&#45;a7a5&#45;e7801d39082c -->
<g id="node1" class="node">
<title>798ccf13&#45;4a3a&#45;4fee&#45;a7a5&#45;e7801d39082c</title>
<g id="a_node1"><a xlink:href="../../index.html" xlink:title="Click to HomePage">
<polygon fill="none" stroke="brown" points="477,-717 351,-717 351,-681 477,-681 477,-717"/>
<text text-anchor="middle" x="414" y="-695.3" font-family="Times,serif" font-size="14.00">Click to HomePage</text>
</a>
</g>
</g>
<!-- 96b816a4&#45;bfef&#45;47d0&#45;af0a&#45;710e6ade8082 -->
<g id="node2" class="node">
<title>96b816a4&#45;bfef&#45;47d0&#45;af0a&#45;710e6ade8082</title>
<polygon fill="none" stroke="mediumspringgreen" points="473,-639 343,-639 343,-615 473,-615 485,-627 473,-639"/>
<text text-anchor="middle" x="414" y="-623.3" font-family="Times,serif" font-size="14.00">America/Los_Angeles</text>
</g>
<!-- 798ccf13&#45;4a3a&#45;4fee&#45;a7a5&#45;e7801d39082c&#45;&gt;96b816a4&#45;bfef&#45;47d0&#45;af0a&#45;710e6ade8082 -->
<g id="edge1" class="edge">
<title>798ccf13&#45;4a3a&#45;4fee&#45;a7a5&#45;e7801d39082c&#45;&gt;96b816a4&#45;bfef&#45;47d0&#45;af0a&#45;710e6ade8082</title>
<path fill="none" stroke="red" d="M414,-680.7C414,-672.98 414,-663.71 414,-655.11"/>
<polygon fill="red" stroke="red" points="417.5,-655.1 414,-645.1 410.5,-655.1 417.5,-655.1"/>
</g>
<!-- 057d44b5&#45;b3e9&#45;4b05&#45;96b3&#45;38c2d288a8c9 -->
<g id="node3" class="node">
<title>057d44b5&#45;b3e9&#45;4b05&#45;96b3&#45;38c2d288a8c9</title>
<polygon fill="none" stroke="#8b6914" stroke-width="2" points="552,-573 280,-573 276,-569 276,-505 548,-505 552,-509 552,-573"/>
<polyline fill="none" stroke="#8b6914" stroke-width="2" points="548,-569 276,-569 "/>
<polyline fill="none" stroke="#8b6914" stroke-width="2" points="548,-569 548,-505 "/>
<polyline fill="none" stroke="#8b6914" stroke-width="2" points="548,-569 552,-573 "/>
<text text-anchor="middle" x="414" y="-557.8" font-family="Times,serif" font-size="14.00">_export</text>
<text text-anchor="middle" x="414" y="-542.8" font-family="Times,serif" font-size="14.00">{&quot;db_info&quot;: {&quot;include &quot;: &quot;config/database.dig&quot;</text>
<text text-anchor="middle" x="414" y="-527.8" font-family="Times,serif" font-size="14.00"> &quot;src&quot;: &quot;inside workflow1 dig file&quot;</text>
<text text-anchor="middle" x="414" y="-512.8" font-family="Times,serif" font-size="14.00"> &quot;env&quot;: &quot;Updated env in workflow file&quot;}}</text>
</g>
<!-- 96b816a4&#45;bfef&#45;47d0&#45;af0a&#45;710e6ade8082&#45;&gt;057d44b5&#45;b3e9&#45;4b05&#45;96b3&#45;38c2d288a8c9 -->
<g id="edge2" class="edge">
<title>96b816a4&#45;bfef&#45;47d0&#45;af0a&#45;710e6ade8082&#45;&gt;057d44b5&#45;b3e9&#45;4b05&#45;96b3&#45;38c2d288a8c9</title>
<path fill="none" stroke="red" d="M414,-608.6C414,-601.18 414,-592.16 414,-583.14"/>
<polygon fill="red" stroke="red" points="417.5,-583.03 414,-573.03 410.5,-583.03 417.5,-583.03"/>
</g>
<!-- ffce4539&#45;6d9f&#45;4d57&#45;a677&#45;22338ae0136f -->
<g id="node4" class="node">
<title>ffce4539&#45;6d9f&#45;4d57&#45;a677&#45;22338ae0136f</title>
<polygon fill="none" stroke="lightslategray" stroke-width="1.9" points="811.5,-469 16.5,-469 16.5,-431 811.5,-431 811.5,-469"/>
<text text-anchor="middle" x="414" y="-453.8" font-family="Times,serif" font-size="14.00">+echo_task1</text>
<text text-anchor="middle" x="414" y="-438.8" font-family="Times,serif" font-size="14.00">{&#39;_export&#39;: {&#39;dest_tbl&#39;: &#39;dest_table_name&#39;, &#39;src_db&#39;: &#39;${dbname}&#39;, &#39;src_tbl1&#39;: &#39;${dbname}&#39;, &#39;src_tbl2&#39;: &#39;${dbname}&#39;}, &#39;echo&gt;&#39;: &#39;this is test task!&#39;}</text>
</g>
<!-- 057d44b5&#45;b3e9&#45;4b05&#45;96b3&#45;38c2d288a8c9&#45;&gt;ffce4539&#45;6d9f&#45;4d57&#45;a677&#45;22338ae0136f -->
<g id="edge3" class="edge">
<title>057d44b5&#45;b3e9&#45;4b05&#45;96b3&#45;38c2d288a8c9&#45;&gt;ffce4539&#45;6d9f&#45;4d57&#45;a677&#45;22338ae0136f</title>
<path fill="none" stroke="red" d="M414,-504.61C414,-496.22 414,-487.29 414,-479.17"/>
<polygon fill="red" stroke="red" points="417.5,-479.09 414,-469.09 410.5,-479.09 417.5,-479.09"/>
</g>
<!-- 85a4e8b6&#45;f303&#45;4364&#45;b3f5&#45;2f61fa82b893 -->
<g id="node5" class="node">
<title>85a4e8b6&#45;f303&#45;4364&#45;b3f5&#45;2f61fa82b893</title>
<polygon fill="none" stroke="#8b6914" stroke-width="2" points="510,-395 322,-395 318,-391 318,-312 506,-312 510,-316 510,-395"/>
<polyline fill="none" stroke="#8b6914" stroke-width="2" points="506,-391 318,-391 "/>
<polyline fill="none" stroke="#8b6914" stroke-width="2" points="506,-391 506,-312 "/>
<polyline fill="none" stroke="#8b6914" stroke-width="2" points="506,-391 510,-395 "/>
<text text-anchor="middle" x="414" y="-379.8" font-family="Times,serif" font-size="14.00">_export</text>
<text text-anchor="middle" x="414" y="-364.8" font-family="Times,serif" font-size="14.00">{&quot;dest_tbl&quot;: &quot;dest_table_name&quot;</text>
<text text-anchor="middle" x="414" y="-349.8" font-family="Times,serif" font-size="14.00"> &quot;src_db&quot;: &quot;${dbname}&quot;</text>
<text text-anchor="middle" x="414" y="-334.8" font-family="Times,serif" font-size="14.00"> &quot;src_tbl1&quot;: &quot;${dbname}&quot;</text>
<text text-anchor="middle" x="414" y="-319.8" font-family="Times,serif" font-size="14.00"> &quot;src_tbl2&quot;: &quot;${dbname}&quot;}</text>
</g>
<!-- ffce4539&#45;6d9f&#45;4d57&#45;a677&#45;22338ae0136f&#45;&gt;85a4e8b6&#45;f303&#45;4364&#45;b3f5&#45;2f61fa82b893 -->
<g id="edge8" class="edge">
<title>ffce4539&#45;6d9f&#45;4d57&#45;a677&#45;22338ae0136f&#45;&gt;85a4e8b6&#45;f303&#45;4364&#45;b3f5&#45;2f61fa82b893</title>
<path fill="none" stroke="red" d="M414,-430.78C414,-423.45 414,-414.61 414,-405.57"/>
<polygon fill="red" stroke="red" points="417.5,-405.37 414,-395.37 410.5,-405.37 417.5,-405.37"/>
</g>
<!-- 799b8dd2&#45;42fa&#45;43b2&#45;8726&#45;80139651c887 -->
<g id="node6" class="node">
<title>799b8dd2&#45;42fa&#45;43b2&#45;8726&#45;80139651c887</title>
<polygon fill="none" stroke="lightslategray" stroke-width="1.9" points="532,-276 296,-276 296,-238 532,-238 532,-276"/>
<text text-anchor="middle" x="414" y="-260.8" font-family="Times,serif" font-size="14.00">+echo_task2</text>
<text text-anchor="middle" x="414" y="-245.8" font-family="Times,serif" font-size="14.00">{&#39;echo&gt;&#39;: &#39;${db_info.global_variable}&#39;}</text>
</g>
<!-- 85a4e8b6&#45;f303&#45;4364&#45;b3f5&#45;2f61fa82b893&#45;&gt;799b8dd2&#45;42fa&#45;43b2&#45;8726&#45;80139651c887 -->
<g id="edge4" class="edge">
<title>85a4e8b6&#45;f303&#45;4364&#45;b3f5&#45;2f61fa82b893&#45;&gt;799b8dd2&#45;42fa&#45;43b2&#45;8726&#45;80139651c887</title>
<path fill="none" stroke="red" d="M414,-311.88C414,-303.35 414,-294.52 414,-286.55"/>
<polygon fill="red" stroke="red" points="417.5,-286.3 414,-276.3 410.5,-286.3 417.5,-286.3"/>
</g>
<!-- 787c8803&#45;42cf&#45;4088&#45;8f41&#45;646760e8b10e -->
<g id="node7" class="node">
<title>787c8803&#45;42cf&#45;4088&#45;8f41&#45;646760e8b10e</title>
<polygon fill="none" stroke="lightslategray" stroke-width="1.9" points="600,-202 228,-202 228,-164 600,-164 600,-202"/>
<text text-anchor="middle" x="414" y="-186.8" font-family="Times,serif" font-size="14.00">+echo_task3</text>
<text text-anchor="middle" x="414" y="-171.8" font-family="Times,serif" font-size="14.00">{&#39;echo&gt;&#39;: &#39;Source is ${db_info.src} and env is ${db_info.env}&#39;}</text>
</g>
<!-- 799b8dd2&#45;42fa&#45;43b2&#45;8726&#45;80139651c887&#45;&gt;787c8803&#45;42cf&#45;4088&#45;8f41&#45;646760e8b10e -->
<g id="edge5" class="edge">
<title>799b8dd2&#45;42fa&#45;43b2&#45;8726&#45;80139651c887&#45;&gt;787c8803&#45;42cf&#45;4088&#45;8f41&#45;646760e8b10e</title>
<path fill="none" stroke="red" d="M414,-237.83C414,-230.13 414,-220.97 414,-212.42"/>
<polygon fill="red" stroke="red" points="417.5,-212.41 414,-202.41 410.5,-212.41 417.5,-212.41"/>
</g>
<!-- 566b06d0&#45;551c&#45;4bee&#45;b2f3&#45;02396b9db7ec -->
<g id="node8" class="node">
<title>566b06d0&#45;551c&#45;4bee&#45;b2f3&#45;02396b9db7ec</title>
<g id="a_node8"><a xlink:title="select&#10;col1,&#10;col2,&#10;col3&#10;from&#10;sourcedb.sourcetable;">
<polygon fill="none" stroke="#008000" stroke-width="1.5" points="478,-128 350,-128 350,-90 478,-90 478,-128"/>
<text text-anchor="middle" x="414" y="-112.8" font-family="Times,serif" font-size="14.00">+run_query1</text>
<text text-anchor="middle" x="414" y="-97.8" font-family="Times,serif" font-size="14.00">queries/example.sql</text>
</a>
</g>
</g>
<!-- 787c8803&#45;42cf&#45;4088&#45;8f41&#45;646760e8b10e&#45;&gt;566b06d0&#45;551c&#45;4bee&#45;b2f3&#45;02396b9db7ec -->
<g id="edge6" class="edge">
<title>787c8803&#45;42cf&#45;4088&#45;8f41&#45;646760e8b10e&#45;&gt;566b06d0&#45;551c&#45;4bee&#45;b2f3&#45;02396b9db7ec</title>
<path fill="none" stroke="red" d="M414,-163.83C414,-156.13 414,-146.97 414,-138.42"/>
<polygon fill="red" stroke="red" points="417.5,-138.41 414,-128.41 410.5,-138.41 417.5,-138.41"/>
</g>
<!-- 95cec122&#45;d0e4&#45;4021&#45;b08f&#45;850bd54e7148 -->
<g id="node9" class="node">
<title>95cec122&#45;d0e4&#45;4021&#45;b08f&#45;850bd54e7148</title>
<g id="a_node9"><a xlink:href="../project2/workflow3.html" xlink:title="+call_project3_workflow3&#10;workflow3.dig">
<polygon fill="none" stroke="cornflowerblue" stroke-width="3" points="496.5,-54 331.5,-54 331.5,-16 496.5,-16 496.5,-54"/>
<text text-anchor="middle" x="414" y="-38.8" font-family="Times,serif" font-size="14.00">+call_project3_workflow3</text>
<text text-anchor="middle" x="414" y="-23.8" font-family="Times,serif" font-size="14.00">workflow3.dig</text>
</a>
</g>
</g>
<!-- 566b06d0&#45;551c&#45;4bee&#45;b2f3&#45;02396b9db7ec&#45;&gt;95cec122&#45;d0e4&#45;4021&#45;b08f&#45;850bd54e7148 -->
<g id="edge7" class="edge">
<title>566b06d0&#45;551c&#45;4bee&#45;b2f3&#45;02396b9db7ec&#45;&gt;95cec122&#45;d0e4&#45;4021&#45;b08f&#45;850bd54e7148</title>
<path fill="none" stroke="red" d="M414,-89.83C414,-82.13 414,-72.97 414,-64.42"/>
<polygon fill="red" stroke="red" points="417.5,-64.41 414,-54.41 410.5,-64.41 417.5,-64.41"/>
</g>
</g>
</svg>
