<?xml version="1.0" encoding="UTF-8" standalone="no"?>
<!DOCTYPE svg PUBLIC "-//W3C//DTD SVG 1.1//EN"
 "http://www.w3.org/Graphics/SVG/1.1/DTD/svg11.dtd">
<!-- Generated by graphviz version 2.48.0 (20210717.1556)
 -->
<!-- Pages: 1 -->
<svg width="1083pt" height="871pt"
 viewBox="0.00 0.00 1083.00 871.00" xmlns="http://www.w3.org/2000/svg" xmlns:xlink="http://www.w3.org/1999/xlink">
<g id="graph0" class="graph" transform="scale(1 1) rotate(0) translate(4 867)">
<polygon fill="white" stroke="transparent" points="-4,4 -4,-867 1079,-867 1079,4 -4,4"/>
<g id="clust1" class="cluster">
<title>cluster&#45;3010ecab&#45;2116&#45;47cb&#45;9b80&#45;b8b025f3fd58</title>
<polygon fill="none" stroke="black" points="8,-8 8,-799 1067,-799 1067,-8 8,-8"/>
</g>
<g id="clust5" class="cluster">
<title>cluster&#45;9e7d5c62&#45;8bf2&#45;42a9&#45;8e8e&#45;aab8b45a1cb0</title>
<polygon fill="none" stroke="black" points="16,-296 16,-477 1059,-477 1059,-296 16,-296"/>
</g>
<g id="clust6" class="cluster">
<title>cluster&#45;2d09f09e&#45;d00f&#45;4dbe&#45;a4fc&#45;53a8d26b1884</title>
<polygon fill="none" stroke="black" points="431,-304 431,-403 639,-403 639,-304 431,-304"/>
</g>
<!-- e6bd7b34&#45;c584&#45;447d&#45;be12&#45;2a6c65fe0931 -->
<g id="node1" class="node">
<title>e6bd7b34&#45;c584&#45;447d&#45;be12&#45;2a6c65fe0931</title>
<g id="a_node1"><a xlink:href="../../index.html" xlink:title="Click to HomePage">
<polygon fill="none" stroke="brown" points="740,-863 614,-863 614,-827 740,-827 740,-863"/>
<text text-anchor="middle" x="677" y="-841.3" font-family="Times,serif" font-size="14.00">Click to HomePage</text>
</a>
</g>
</g>
<!-- e2b15920&#45;542f&#45;49d0&#45;89a9&#45;a1f3f82d5b13 -->
<g id="node2" class="node">
<title>e2b15920&#45;542f&#45;49d0&#45;89a9&#45;a1f3f82d5b13</title>
<polygon fill="none" stroke="mediumspringgreen" points="736,-785 606,-785 606,-761 736,-761 748,-773 736,-785"/>
<text text-anchor="middle" x="677" y="-769.3" font-family="Times,serif" font-size="14.00">America/Los_Angeles</text>
</g>
<!-- e6bd7b34&#45;c584&#45;447d&#45;be12&#45;2a6c65fe0931&#45;&gt;e2b15920&#45;542f&#45;49d0&#45;89a9&#45;a1f3f82d5b13 -->
<g id="edge1" class="edge">
<title>e6bd7b34&#45;c584&#45;447d&#45;be12&#45;2a6c65fe0931&#45;&gt;e2b15920&#45;542f&#45;49d0&#45;89a9&#45;a1f3f82d5b13</title>
<path fill="none" stroke="red" d="M677,-826.7C677,-818.98 677,-809.71 677,-801.11"/>
<polygon fill="red" stroke="red" points="680.5,-801.1 677,-791.1 673.5,-801.1 680.5,-801.1"/>
</g>
<!-- 28f19b89&#45;7da3&#45;41ea&#45;9284&#45;00ff3e9168f6 -->
<g id="node3" class="node">
<title>28f19b89&#45;7da3&#45;41ea&#45;9284&#45;00ff3e9168f6</title>
<polygon fill="none" stroke="#8b6914" stroke-width="2" points="815,-719 543,-719 539,-715 539,-651 811,-651 815,-655 815,-719"/>
<polyline fill="none" stroke="#8b6914" stroke-width="2" points="811,-715 539,-715 "/>
<polyline fill="none" stroke="#8b6914" stroke-width="2" points="811,-715 811,-651 "/>
<polyline fill="none" stroke="#8b6914" stroke-width="2" points="811,-715 815,-719 "/>
<text text-anchor="middle" x="677" y="-703.8" font-family="Times,serif" font-size="14.00">_export</text>
<text text-anchor="middle" x="677" y="-688.8" font-family="Times,serif" font-size="14.00">{&quot;db_info&quot;: {&quot;include &quot;: &quot;config/database.dig&quot;</text>
<text text-anchor="middle" x="677" y="-673.8" font-family="Times,serif" font-size="14.00"> &quot;src&quot;: &quot;inside workflow1 dig file&quot;</text>
<text text-anchor="middle" x="677" y="-658.8" font-family="Times,serif" font-size="14.00"> &quot;env&quot;: &quot;Updated env in workflow file&quot;}}</text>
</g>
<!-- e2b15920&#45;542f&#45;49d0&#45;89a9&#45;a1f3f82d5b13&#45;&gt;28f19b89&#45;7da3&#45;41ea&#45;9284&#45;00ff3e9168f6 -->
<g id="edge2" class="edge">
<title>e2b15920&#45;542f&#45;49d0&#45;89a9&#45;a1f3f82d5b13&#45;&gt;28f19b89&#45;7da3&#45;41ea&#45;9284&#45;00ff3e9168f6</title>
<path fill="none" stroke="red" d="M677,-754.6C677,-747.18 677,-738.16 677,-729.14"/>
<polygon fill="red" stroke="red" points="680.5,-729.03 677,-719.03 673.5,-729.03 680.5,-729.03"/>
</g>
<!-- f5e8a3af&#45;8e90&#45;480c&#45;afe1&#45;360bb909b237 -->
<g id="node4" class="node">
<title>f5e8a3af&#45;8e90&#45;480c&#45;afe1&#45;360bb909b237</title>
<polygon fill="none" stroke="#ff00ff" points="764,-615 590,-615 590,-611 586,-611 586,-607 590,-607 590,-585 586,-585 586,-581 590,-581 590,-577 764,-577 764,-615"/>
<polyline fill="none" stroke="#ff00ff" points="590,-611 594,-611 594,-607 590,-607 "/>
<polyline fill="none" stroke="#ff00ff" points="590,-585 594,-585 594,-581 590,-581 "/>
<text text-anchor="middle" x="677" y="-599.8" font-family="Times,serif" font-size="14.00">{&quot;cron&gt;&quot;: &quot;30 6,18 * * *&quot;}</text>
<text text-anchor="middle" x="677" y="-584.8" font-family="Times,serif" font-size="14.00">At 06:30 AM and 06:30 PM</text>
</g>
<!-- 28f19b89&#45;7da3&#45;41ea&#45;9284&#45;00ff3e9168f6&#45;&gt;f5e8a3af&#45;8e90&#45;480c&#45;afe1&#45;360bb909b237 -->
<g id="edge3" class="edge">
<title>28f19b89&#45;7da3&#45;41ea&#45;9284&#45;00ff3e9168f6&#45;&gt;f5e8a3af&#45;8e90&#45;480c&#45;afe1&#45;360bb909b237</title>
<path fill="none" stroke="red" d="M677,-650.61C677,-642.22 677,-633.29 677,-625.17"/>
<polygon fill="red" stroke="red" points="680.5,-625.09 677,-615.09 673.5,-625.09 680.5,-625.09"/>
</g>
<!-- 6bb91af0&#45;f456&#45;40c5&#45;a447&#45;2339f6b7ca41 -->
<g id="node5" class="node">
<title>6bb91af0&#45;f456&#45;40c5&#45;a447&#45;2339f6b7ca41</title>
<polygon fill="none" stroke="#912cee" points="720.5,-541 633.5,-541 633.5,-505 720.5,-505 720.5,-541"/>
<text text-anchor="middle" x="677" y="-519.3" font-family="Times,serif" font-size="14.00">+echo_task1</text>
</g>
<!-- f5e8a3af&#45;8e90&#45;480c&#45;afe1&#45;360bb909b237&#45;&gt;6bb91af0&#45;f456&#45;40c5&#45;a447&#45;2339f6b7ca41 -->
<g id="edge4" class="edge">
<title>f5e8a3af&#45;8e90&#45;480c&#45;afe1&#45;360bb909b237&#45;&gt;6bb91af0&#45;f456&#45;40c5&#45;a447&#45;2339f6b7ca41</title>
<path fill="none" stroke="red" d="M677,-576.72C677,-568.97 677,-559.79 677,-551.27"/>
<polygon fill="red" stroke="red" points="680.5,-551 677,-541 673.5,-551 680.5,-551"/>
</g>
<!-- 2ae2f70a&#45;ef0c&#45;4917&#45;910a&#45;953bd9802671 -->
<g id="node8" class="node">
<title>2ae2f70a&#45;ef0c&#45;4917&#45;910a&#45;953bd9802671</title>
<polygon fill="none" stroke="lightslategray" stroke-width="1.9" points="1050.5,-469 859.5,-469 859.5,-431 1050.5,-431 1050.5,-469"/>
<text text-anchor="middle" x="955" y="-453.8" font-family="Times,serif" font-size="14.00">+echo_task1_child2</text>
<text text-anchor="middle" x="955" y="-438.8" font-family="Times,serif" font-size="14.00">{&#39;echo&gt;&#39;: &#39;this is Child task 2!&#39;}</text>
</g>
<!-- 6bb91af0&#45;f456&#45;40c5&#45;a447&#45;2339f6b7ca41&#45;&gt;2ae2f70a&#45;ef0c&#45;4917&#45;910a&#45;953bd9802671 -->
<g id="edge11" class="edge">
<title>6bb91af0&#45;f456&#45;40c5&#45;a447&#45;2339f6b7ca41&#45;&gt;2ae2f70a&#45;ef0c&#45;4917&#45;910a&#45;953bd9802671</title>
<path fill="none" stroke="red" d="M720.74,-510.83C761.88,-500.32 824.48,-484.33 874.62,-471.53"/>
<polygon fill="red" stroke="red" points="875.64,-474.88 884.47,-469.01 873.91,-468.1 875.64,-474.88"/>
</g>
<!-- 7aca95cf&#45;be4f&#45;4dcb&#45;9d26&#45;3114b6d5f6bc -->
<g id="node12" class="node">
<title>7aca95cf&#45;be4f&#45;4dcb&#45;9d26&#45;3114b6d5f6bc</title>
<polygon fill="none" stroke="lightslategray" stroke-width="1.9" points="841.5,-469 24.5,-469 24.5,-431 841.5,-431 841.5,-469"/>
<text text-anchor="middle" x="433" y="-453.8" font-family="Times,serif" font-size="14.00">+echo_task1_child1</text>
<text text-anchor="middle" x="433" y="-438.8" font-family="Times,serif" font-size="14.00">{&#39;_export&#39;: {&#39;dest_tbl&#39;: &#39;dest_table_name&#39;, &#39;src_db&#39;: &#39;${dbname}&#39;, &#39;src_tbl1&#39;: &#39;${dbname}&#39;, &#39;src_tbl2&#39;: &#39;${dbname}&#39;}, &#39;echo&gt;&#39;: &#39;this is Child task 1!&#39;}</text>
</g>
<!-- 6bb91af0&#45;f456&#45;40c5&#45;a447&#45;2339f6b7ca41&#45;&gt;7aca95cf&#45;be4f&#45;4dcb&#45;9d26&#45;3114b6d5f6bc -->
<g id="edge10" class="edge">
<title>6bb91af0&#45;f456&#45;40c5&#45;a447&#45;2339f6b7ca41&#45;&gt;7aca95cf&#45;be4f&#45;4dcb&#45;9d26&#45;3114b6d5f6bc</title>
<path fill="none" stroke="red" d="M633.38,-509.31C597.72,-498.93 546.57,-484.05 504.87,-471.91"/>
<polygon fill="red" stroke="red" points="505.62,-468.49 495.04,-469.05 503.66,-475.21 505.62,-468.49"/>
</g>
<!-- 7c7853ed&#45;0f15&#45;4cda&#45;994c&#45;ae931325b45c -->
<g id="node6" class="node">
<title>7c7853ed&#45;0f15&#45;4cda&#45;994c&#45;ae931325b45c</title>
<polygon fill="none" stroke="#8b6914" stroke-width="2" points="631,-395 443,-395 439,-391 439,-312 627,-312 631,-316 631,-395"/>
<polyline fill="none" stroke="#8b6914" stroke-width="2" points="627,-391 439,-391 "/>
<polyline fill="none" stroke="#8b6914" stroke-width="2" points="627,-391 627,-312 "/>
<polyline fill="none" stroke="#8b6914" stroke-width="2" points="627,-391 631,-395 "/>
<text text-anchor="middle" x="535" y="-379.8" font-family="Times,serif" font-size="14.00">_export</text>
<text text-anchor="middle" x="535" y="-364.8" font-family="Times,serif" font-size="14.00">{&quot;dest_tbl&quot;: &quot;dest_table_name&quot;</text>
<text text-anchor="middle" x="535" y="-349.8" font-family="Times,serif" font-size="14.00"> &quot;src_db&quot;: &quot;${dbname}&quot;</text>
<text text-anchor="middle" x="535" y="-334.8" font-family="Times,serif" font-size="14.00"> &quot;src_tbl1&quot;: &quot;${dbname}&quot;</text>
<text text-anchor="middle" x="535" y="-319.8" font-family="Times,serif" font-size="14.00"> &quot;src_tbl2&quot;: &quot;${dbname}&quot;}</text>
</g>
<!-- b771634d&#45;861e&#45;49cb&#45;aec9&#45;0e09bc497a7c -->
<g id="node7" class="node">
<title>b771634d&#45;861e&#45;49cb&#45;aec9&#45;0e09bc497a7c</title>
<polygon fill="none" stroke="lightslategray" stroke-width="1.9" points="710,-276 474,-276 474,-238 710,-238 710,-276"/>
<text text-anchor="middle" x="592" y="-260.8" font-family="Times,serif" font-size="14.00">+echo_task2</text>
<text text-anchor="middle" x="592" y="-245.8" font-family="Times,serif" font-size="14.00">{&#39;echo&gt;&#39;: &#39;${db_info.global_variable}&#39;}</text>
</g>
<!-- 7c7853ed&#45;0f15&#45;4cda&#45;994c&#45;ae931325b45c&#45;&gt;b771634d&#45;861e&#45;49cb&#45;aec9&#45;0e09bc497a7c -->
<g id="edge5" class="edge">
<title>7c7853ed&#45;0f15&#45;4cda&#45;994c&#45;ae931325b45c&#45;&gt;b771634d&#45;861e&#45;49cb&#45;aec9&#45;0e09bc497a7c</title>
<path fill="none" stroke="red" d="M559.5,-311.88C565,-302.76 570.7,-293.32 575.76,-284.93"/>
<polygon fill="red" stroke="red" points="578.79,-286.68 580.96,-276.3 572.8,-283.06 578.79,-286.68"/>
</g>
<!-- 4df7ee16&#45;0370&#45;4972&#45;b976&#45;761d345b1b21 -->
<g id="node9" class="node">
<title>4df7ee16&#45;0370&#45;4972&#45;b976&#45;761d345b1b21</title>
<polygon fill="none" stroke="lightslategray" stroke-width="1.9" points="778,-202 406,-202 406,-164 778,-164 778,-202"/>
<text text-anchor="middle" x="592" y="-186.8" font-family="Times,serif" font-size="14.00">+echo_task3</text>
<text text-anchor="middle" x="592" y="-171.8" font-family="Times,serif" font-size="14.00">{&#39;echo&gt;&#39;: &#39;Source is ${db_info.src} and env is ${db_info.env}&#39;}</text>
</g>
<!-- b771634d&#45;861e&#45;49cb&#45;aec9&#45;0e09bc497a7c&#45;&gt;4df7ee16&#45;0370&#45;4972&#45;b976&#45;761d345b1b21 -->
<g id="edge7" class="edge">
<title>b771634d&#45;861e&#45;49cb&#45;aec9&#45;0e09bc497a7c&#45;&gt;4df7ee16&#45;0370&#45;4972&#45;b976&#45;761d345b1b21</title>
<path fill="none" stroke="red" d="M592,-237.83C592,-230.13 592,-220.97 592,-212.42"/>
<polygon fill="red" stroke="red" points="595.5,-212.41 592,-202.41 588.5,-212.41 595.5,-212.41"/>
</g>
<!-- 2ae2f70a&#45;ef0c&#45;4917&#45;910a&#45;953bd9802671&#45;&gt;b771634d&#45;861e&#45;49cb&#45;aec9&#45;0e09bc497a7c -->
<g id="edge6" class="edge">
<title>2ae2f70a&#45;ef0c&#45;4917&#45;910a&#45;953bd9802671&#45;&gt;b771634d&#45;861e&#45;49cb&#45;aec9&#45;0e09bc497a7c</title>
<path fill="none" stroke="red" d="M920.52,-430.86C853.99,-395.85 708.06,-319.07 635.18,-280.72"/>
<polygon fill="red" stroke="red" points="636.73,-277.58 626.25,-276.02 633.47,-283.77 636.73,-277.58"/>
</g>
<!-- 6daae51a&#45;2d57&#45;45dd&#45;95e4&#45;3895cffd22dd -->
<g id="node10" class="node">
<title>6daae51a&#45;2d57&#45;45dd&#45;95e4&#45;3895cffd22dd</title>
<g id="a_node10"><a xlink:href="../project1/workflow2.html" xlink:title="+call_workflow2&#10;workflow2.dig">
<polygon fill="none" stroke="cornflowerblue" stroke-width="3" points="648,-128 536,-128 536,-90 648,-90 648,-128"/>
<text text-anchor="middle" x="592" y="-112.8" font-family="Times,serif" font-size="14.00">+call_workflow2</text>
<text text-anchor="middle" x="592" y="-97.8" font-family="Times,serif" font-size="14.00">workflow2.dig</text>
</a>
</g>
</g>
<!-- 4df7ee16&#45;0370&#45;4972&#45;b976&#45;761d345b1b21&#45;&gt;6daae51a&#45;2d57&#45;45dd&#45;95e4&#45;3895cffd22dd -->
<g id="edge8" class="edge">
<title>4df7ee16&#45;0370&#45;4972&#45;b976&#45;761d345b1b21&#45;&gt;6daae51a&#45;2d57&#45;45dd&#45;95e4&#45;3895cffd22dd</title>
<path fill="none" stroke="red" d="M592,-163.83C592,-156.13 592,-146.97 592,-138.42"/>
<polygon fill="red" stroke="red" points="595.5,-138.41 592,-128.41 588.5,-138.41 595.5,-138.41"/>
</g>
<!-- 2d6ed16d&#45;e606&#45;4ea0&#45;870a&#45;7d9abba20791 -->
<g id="node11" class="node">
<title>2d6ed16d&#45;e606&#45;4ea0&#45;870a&#45;7d9abba20791</title>
<g id="a_node11"><a xlink:href="../lululemon_apac_wf_prd/daily_primary_core.html" xlink:title="+call_daily_primary&#10;daily_primary_core.dig">
<polygon fill="none" stroke="cornflowerblue" stroke-width="3" points="666,-54 518,-54 518,-16 666,-16 666,-54"/>
<text text-anchor="middle" x="592" y="-38.8" font-family="Times,serif" font-size="14.00">+call_daily_primary</text>
<text text-anchor="middle" x="592" y="-23.8" font-family="Times,serif" font-size="14.00">daily_primary_core.dig</text>
</a>
</g>
</g>
<!-- 6daae51a&#45;2d57&#45;45dd&#45;95e4&#45;3895cffd22dd&#45;&gt;2d6ed16d&#45;e606&#45;4ea0&#45;870a&#45;7d9abba20791 -->
<g id="edge9" class="edge">
<title>6daae51a&#45;2d57&#45;45dd&#45;95e4&#45;3895cffd22dd&#45;&gt;2d6ed16d&#45;e606&#45;4ea0&#45;870a&#45;7d9abba20791</title>
<path fill="none" stroke="red" d="M592,-89.83C592,-82.13 592,-72.97 592,-64.42"/>
<polygon fill="red" stroke="red" points="595.5,-64.41 592,-54.41 588.5,-64.41 595.5,-64.41"/>
</g>
<!-- 7aca95cf&#45;be4f&#45;4dcb&#45;9d26&#45;3114b6d5f6bc&#45;&gt;7c7853ed&#45;0f15&#45;4cda&#45;994c&#45;ae931325b45c -->
<g id="edge12" class="edge">
<title>7aca95cf&#45;be4f&#45;4dcb&#45;9d26&#45;3114b6d5f6bc&#45;&gt;7c7853ed&#45;0f15&#45;4cda&#45;994c&#45;ae931325b45c</title>
<path fill="none" stroke="red" d="M452.67,-430.78C461.51,-422.59 472.4,-412.49 483.34,-402.36"/>
<polygon fill="red" stroke="red" points="485.93,-404.73 490.89,-395.37 481.18,-399.59 485.93,-404.73"/>
</g>
</g>
</svg>
