<?xml version="1.0" encoding="UTF-8" standalone="no"?>
<!DOCTYPE svg PUBLIC "-//W3C//DTD SVG 1.1//EN"
 "http://www.w3.org/Graphics/SVG/1.1/DTD/svg11.dtd">
<!-- Generated by graphviz version 2.48.0 (20210717.1556)
 -->
<!-- Pages: 1 -->
<svg width="206pt" height="496pt"
 viewBox="0.00 0.00 206.00 496.00" xmlns="http://www.w3.org/2000/svg" xmlns:xlink="http://www.w3.org/1999/xlink">
<g id="graph0" class="graph" transform="scale(1 1) rotate(0) translate(4 492)">
<polygon fill="white" stroke="transparent" points="-4,4 -4,-492 202,-492 202,4 -4,4"/>
<g id="clust1" class="cluster">
<title>cluster&#45;966b0ac6&#45;9a4c&#45;46f9&#45;8926&#45;54d5492a80f9</title>
<polygon fill="none" stroke="black" points="8,-8 8,-424 190,-424 190,-8 8,-8"/>
</g>
<!-- 6a5c4e02&#45;a6ae&#45;4e9d&#45;917e&#45;111ed717bee1 -->
<g id="node1" class="node">
<title>6a5c4e02&#45;a6ae&#45;4e9d&#45;917e&#45;111ed717bee1</title>
<g id="a_node1"><a xlink:href="../../index.html" xlink:title="Click to HomePage">
<polygon fill="none" stroke="#ff3030" stroke-width="3" points="162,-488 36,-488 36,-452 162,-452 162,-488"/>
<text text-anchor="middle" x="99" y="-466.3" font-family="Times,serif" font-size="14.00">Click to HomePage</text>
</a>
</g>
</g>
<!-- 69ebe48c&#45;e92c&#45;4418&#45;810d&#45;c732bb3a9f0c -->
<g id="node2" class="node">
<title>69ebe48c&#45;e92c&#45;4418&#45;810d&#45;c732bb3a9f0c</title>
<polygon fill="none" stroke="mediumspringgreen" points="170,-416 28,-416 28,-380 170,-380 170,-416"/>
<text text-anchor="middle" x="99" y="-394.3" font-family="Times,serif" font-size="14.00">America/Los_Angeles</text>
</g>
<!-- 6a5c4e02&#45;a6ae&#45;4e9d&#45;917e&#45;111ed717bee1&#45;&gt;69ebe48c&#45;e92c&#45;4418&#45;810d&#45;c732bb3a9f0c -->
<g id="edge1" class="edge">
<title>6a5c4e02&#45;a6ae&#45;4e9d&#45;917e&#45;111ed717bee1&#45;&gt;69ebe48c&#45;e92c&#45;4418&#45;810d&#45;c732bb3a9f0c</title>
<path fill="none" stroke="red" d="M99,-451.7C99,-443.98 99,-434.71 99,-426.11"/>
<polygon fill="red" stroke="red" points="102.5,-426.1 99,-416.1 95.5,-426.1 102.5,-426.1"/>
</g>
<!-- 478ccfdb&#45;cf6b&#45;4fd4&#45;93f9&#45;b9f2cb3fdf39 -->
<g id="node3" class="node">
<title>478ccfdb&#45;cf6b&#45;4fd4&#45;93f9&#45;b9f2cb3fdf39</title>
<polygon fill="none" stroke="orangered" points="142.5,-344 55.5,-344 55.5,-308 142.5,-308 142.5,-344"/>
<text text-anchor="middle" x="99" y="-322.3" font-family="Times,serif" font-size="14.00">+echo_task1</text>
</g>
<!-- 69ebe48c&#45;e92c&#45;4418&#45;810d&#45;c732bb3a9f0c&#45;&gt;478ccfdb&#45;cf6b&#45;4fd4&#45;93f9&#45;b9f2cb3fdf39 -->
<g id="edge2" class="edge">
<title>69ebe48c&#45;e92c&#45;4418&#45;810d&#45;c732bb3a9f0c&#45;&gt;478ccfdb&#45;cf6b&#45;4fd4&#45;93f9&#45;b9f2cb3fdf39</title>
<path fill="none" stroke="red" d="M99,-379.7C99,-371.98 99,-362.71 99,-354.11"/>
<polygon fill="red" stroke="red" points="102.5,-354.1 99,-344.1 95.5,-354.1 102.5,-354.1"/>
</g>
<!-- 52c46bda&#45;0b5c&#45;4d3c&#45;a493&#45;34b924ba4c8f -->
<g id="node4" class="node">
<title>52c46bda&#45;0b5c&#45;4d3c&#45;a493&#45;34b924ba4c8f</title>
<polygon fill="none" stroke="orangered" points="142.5,-272 55.5,-272 55.5,-236 142.5,-236 142.5,-272"/>
<text text-anchor="middle" x="99" y="-250.3" font-family="Times,serif" font-size="14.00">+echo_task2</text>
</g>
<!-- 478ccfdb&#45;cf6b&#45;4fd4&#45;93f9&#45;b9f2cb3fdf39&#45;&gt;52c46bda&#45;0b5c&#45;4d3c&#45;a493&#45;34b924ba4c8f -->
<g id="edge3" class="edge">
<title>478ccfdb&#45;cf6b&#45;4fd4&#45;93f9&#45;b9f2cb3fdf39&#45;&gt;52c46bda&#45;0b5c&#45;4d3c&#45;a493&#45;34b924ba4c8f</title>
<path fill="none" stroke="red" d="M99,-307.7C99,-299.98 99,-290.71 99,-282.11"/>
<polygon fill="red" stroke="red" points="102.5,-282.1 99,-272.1 95.5,-282.1 102.5,-282.1"/>
</g>
<!-- 7865f125&#45;be5e&#45;4415&#45;ac9b&#45;48d38640fb19 -->
<g id="node5" class="node">
<title>7865f125&#45;be5e&#45;4415&#45;ac9b&#45;48d38640fb19</title>
<polygon fill="none" stroke="orangered" points="142.5,-200 55.5,-200 55.5,-164 142.5,-164 142.5,-200"/>
<text text-anchor="middle" x="99" y="-178.3" font-family="Times,serif" font-size="14.00">+echo_task3</text>
</g>
<!-- 52c46bda&#45;0b5c&#45;4d3c&#45;a493&#45;34b924ba4c8f&#45;&gt;7865f125&#45;be5e&#45;4415&#45;ac9b&#45;48d38640fb19 -->
<g id="edge4" class="edge">
<title>52c46bda&#45;0b5c&#45;4d3c&#45;a493&#45;34b924ba4c8f&#45;&gt;7865f125&#45;be5e&#45;4415&#45;ac9b&#45;48d38640fb19</title>
<path fill="none" stroke="red" d="M99,-235.7C99,-227.98 99,-218.71 99,-210.11"/>
<polygon fill="red" stroke="red" points="102.5,-210.1 99,-200.1 95.5,-210.1 102.5,-210.1"/>
</g>
<!-- 3d996154&#45;0c11&#45;42f1&#45;9926&#45;688a2c222a26 -->
<g id="node6" class="node">
<title>3d996154&#45;0c11&#45;42f1&#45;9926&#45;688a2c222a26</title>
<polygon fill="none" stroke="blue" points="163,-128 35,-128 35,-90 163,-90 163,-128"/>
<text text-anchor="middle" x="99" y="-112.8" font-family="Times,serif" font-size="14.00">+run_query1</text>
<text text-anchor="middle" x="99" y="-97.8" font-family="Times,serif" font-size="14.00">queries/example.sql</text>
</g>
<!-- 7865f125&#45;be5e&#45;4415&#45;ac9b&#45;48d38640fb19&#45;&gt;3d996154&#45;0c11&#45;42f1&#45;9926&#45;688a2c222a26 -->
<g id="edge5" class="edge">
<title>7865f125&#45;be5e&#45;4415&#45;ac9b&#45;48d38640fb19&#45;&gt;3d996154&#45;0c11&#45;42f1&#45;9926&#45;688a2c222a26</title>
<path fill="none" stroke="red" d="M99,-163.81C99,-156.11 99,-146.82 99,-138.15"/>
<polygon fill="red" stroke="red" points="102.5,-138.02 99,-128.02 95.5,-138.02 102.5,-138.02"/>
</g>
<!-- f5e3acda&#45;c604&#45;4b4f&#45;b056&#45;4c300a6de0e4 -->
<g id="node7" class="node">
<title>f5e3acda&#45;c604&#45;4b4f&#45;b056&#45;4c300a6de0e4</title>
<g id="a_node7"><a xlink:href="../project2/workflow3.html" xlink:title="+call_project3_workflow3&#10;workflow3.dig">
<polygon fill="none" stroke="#ff3030" stroke-width="3" points="181.5,-54 16.5,-54 16.5,-16 181.5,-16 181.5,-54"/>
<text text-anchor="middle" x="99" y="-38.8" font-family="Times,serif" font-size="14.00">+call_project3_workflow3</text>
<text text-anchor="middle" x="99" y="-23.8" font-family="Times,serif" font-size="14.00">workflow3.dig</text>
</a>
</g>
</g>
<!-- 3d996154&#45;0c11&#45;42f1&#45;9926&#45;688a2c222a26&#45;&gt;f5e3acda&#45;c604&#45;4b4f&#45;b056&#45;4c300a6de0e4 -->
<g id="edge6" class="edge">
<title>3d996154&#45;0c11&#45;42f1&#45;9926&#45;688a2c222a26&#45;&gt;f5e3acda&#45;c604&#45;4b4f&#45;b056&#45;4c300a6de0e4</title>
<path fill="none" stroke="red" d="M99,-89.83C99,-82.13 99,-72.97 99,-64.42"/>
<polygon fill="red" stroke="red" points="102.5,-64.41 99,-54.41 95.5,-64.41 102.5,-64.41"/>
</g>
</g>
</svg>
