<?xml version="1.0" encoding="UTF-8" standalone="no"?>
<!DOCTYPE svg PUBLIC "-//W3C//DTD SVG 1.1//EN"
 "http://www.w3.org/Graphics/SVG/1.1/DTD/svg11.dtd">
<!-- Generated by graphviz version 2.48.0 (20210717.1556)
 -->
<!-- Pages: 1 -->
<svg width="206pt" height="496pt"
 viewBox="0.00 0.00 206.00 496.00" xmlns="http://www.w3.org/2000/svg" xmlns:xlink="http://www.w3.org/1999/xlink">
<g id="graph0" class="graph" transform="scale(1 1) rotate(0) translate(4 492)">
<polygon fill="white" stroke="transparent" points="-4,4 -4,-492 202,-492 202,4 -4,4"/>
<g id="clust1" class="cluster">
<title>cluster&#45;d81903af&#45;1745&#45;4b42&#45;b912&#45;b614ddcc60bb</title>
<polygon fill="none" stroke="black" points="8,-8 8,-424 190,-424 190,-8 8,-8"/>
</g>
<!-- 9f1edc5b&#45;9658&#45;4c33&#45;a3d4&#45;42f3cc16a7f9 -->
<g id="node1" class="node">
<title>9f1edc5b&#45;9658&#45;4c33&#45;a3d4&#45;42f3cc16a7f9</title>
<polygon fill="none" stroke="#ff3030" stroke-width="3" points="126,-488 72,-488 72,-452 126,-452 126,-488"/>
<text text-anchor="middle" x="99" y="-466.3" font-family="Times,serif" font-size="14.00">root</text>
</g>
<!-- d9b2ba02&#45;de98&#45;4d81&#45;9917&#45;04feb93f34ff -->
<g id="node2" class="node">
<title>d9b2ba02&#45;de98&#45;4d81&#45;9917&#45;04feb93f34ff</title>
<polygon fill="none" stroke="mediumspringgreen" points="170,-416 28,-416 28,-380 170,-380 170,-416"/>
<text text-anchor="middle" x="99" y="-394.3" font-family="Times,serif" font-size="14.00">America/Los_Angeles</text>
</g>
<!-- 9f1edc5b&#45;9658&#45;4c33&#45;a3d4&#45;42f3cc16a7f9&#45;&gt;d9b2ba02&#45;de98&#45;4d81&#45;9917&#45;04feb93f34ff -->
<g id="edge1" class="edge">
<title>9f1edc5b&#45;9658&#45;4c33&#45;a3d4&#45;42f3cc16a7f9&#45;&gt;d9b2ba02&#45;de98&#45;4d81&#45;9917&#45;04feb93f34ff</title>
<path fill="none" stroke="red" d="M99,-451.7C99,-443.98 99,-434.71 99,-426.11"/>
<polygon fill="red" stroke="red" points="102.5,-426.1 99,-416.1 95.5,-426.1 102.5,-426.1"/>
</g>
<!-- b0493724&#45;775d&#45;4f8e&#45;8306&#45;8af31f746539 -->
<g id="node3" class="node">
<title>b0493724&#45;775d&#45;4f8e&#45;8306&#45;8af31f746539</title>
<polygon fill="none" stroke="orangered" points="142.5,-344 55.5,-344 55.5,-308 142.5,-308 142.5,-344"/>
<text text-anchor="middle" x="99" y="-322.3" font-family="Times,serif" font-size="14.00">+echo_task1</text>
</g>
<!-- d9b2ba02&#45;de98&#45;4d81&#45;9917&#45;04feb93f34ff&#45;&gt;b0493724&#45;775d&#45;4f8e&#45;8306&#45;8af31f746539 -->
<g id="edge2" class="edge">
<title>d9b2ba02&#45;de98&#45;4d81&#45;9917&#45;04feb93f34ff&#45;&gt;b0493724&#45;775d&#45;4f8e&#45;8306&#45;8af31f746539</title>
<path fill="none" stroke="red" d="M99,-379.7C99,-371.98 99,-362.71 99,-354.11"/>
<polygon fill="red" stroke="red" points="102.5,-354.1 99,-344.1 95.5,-354.1 102.5,-354.1"/>
</g>
<!-- e96287c3&#45;e2d6&#45;47b3&#45;a51d&#45;677193e832a2 -->
<g id="node4" class="node">
<title>e96287c3&#45;e2d6&#45;47b3&#45;a51d&#45;677193e832a2</title>
<polygon fill="none" stroke="orangered" points="142.5,-272 55.5,-272 55.5,-236 142.5,-236 142.5,-272"/>
<text text-anchor="middle" x="99" y="-250.3" font-family="Times,serif" font-size="14.00">+echo_task2</text>
</g>
<!-- b0493724&#45;775d&#45;4f8e&#45;8306&#45;8af31f746539&#45;&gt;e96287c3&#45;e2d6&#45;47b3&#45;a51d&#45;677193e832a2 -->
<g id="edge3" class="edge">
<title>b0493724&#45;775d&#45;4f8e&#45;8306&#45;8af31f746539&#45;&gt;e96287c3&#45;e2d6&#45;47b3&#45;a51d&#45;677193e832a2</title>
<path fill="none" stroke="red" d="M99,-307.7C99,-299.98 99,-290.71 99,-282.11"/>
<polygon fill="red" stroke="red" points="102.5,-282.1 99,-272.1 95.5,-282.1 102.5,-282.1"/>
</g>
<!-- e8c8c907&#45;edfe&#45;4e57&#45;8316&#45;39edee863c87 -->
<g id="node5" class="node">
<title>e8c8c907&#45;edfe&#45;4e57&#45;8316&#45;39edee863c87</title>
<polygon fill="none" stroke="orangered" points="142.5,-200 55.5,-200 55.5,-164 142.5,-164 142.5,-200"/>
<text text-anchor="middle" x="99" y="-178.3" font-family="Times,serif" font-size="14.00">+echo_task3</text>
</g>
<!-- e96287c3&#45;e2d6&#45;47b3&#45;a51d&#45;677193e832a2&#45;&gt;e8c8c907&#45;edfe&#45;4e57&#45;8316&#45;39edee863c87 -->
<g id="edge4" class="edge">
<title>e96287c3&#45;e2d6&#45;47b3&#45;a51d&#45;677193e832a2&#45;&gt;e8c8c907&#45;edfe&#45;4e57&#45;8316&#45;39edee863c87</title>
<path fill="none" stroke="red" d="M99,-235.7C99,-227.98 99,-218.71 99,-210.11"/>
<polygon fill="red" stroke="red" points="102.5,-210.1 99,-200.1 95.5,-210.1 102.5,-210.1"/>
</g>
<!-- 21279f83&#45;da67&#45;462d&#45;afac&#45;a3e28974a9a9 -->
<g id="node6" class="node">
<title>21279f83&#45;da67&#45;462d&#45;afac&#45;a3e28974a9a9</title>
<polygon fill="none" stroke="blue" points="163,-128 35,-128 35,-90 163,-90 163,-128"/>
<text text-anchor="middle" x="99" y="-112.8" font-family="Times,serif" font-size="14.00">+run_query1</text>
<text text-anchor="middle" x="99" y="-97.8" font-family="Times,serif" font-size="14.00">queries/example.sql</text>
</g>
<!-- e8c8c907&#45;edfe&#45;4e57&#45;8316&#45;39edee863c87&#45;&gt;21279f83&#45;da67&#45;462d&#45;afac&#45;a3e28974a9a9 -->
<g id="edge5" class="edge">
<title>e8c8c907&#45;edfe&#45;4e57&#45;8316&#45;39edee863c87&#45;&gt;21279f83&#45;da67&#45;462d&#45;afac&#45;a3e28974a9a9</title>
<path fill="none" stroke="red" d="M99,-163.81C99,-156.11 99,-146.82 99,-138.15"/>
<polygon fill="red" stroke="red" points="102.5,-138.02 99,-128.02 95.5,-138.02 102.5,-138.02"/>
</g>
<!-- f5bddbdb&#45;f326&#45;471e&#45;952f&#45;bd7f78fb32a9 -->
<g id="node7" class="node">
<title>f5bddbdb&#45;f326&#45;471e&#45;952f&#45;bd7f78fb32a9</title>
<g id="a_node7"><a xlink:href="../project2/workflow3.html" xlink:title="+call_project3_workflow3&#10;workflow3.dig">
<polygon fill="none" stroke="#ff3030" stroke-width="3" points="181.5,-54 16.5,-54 16.5,-16 181.5,-16 181.5,-54"/>
<text text-anchor="middle" x="99" y="-38.8" font-family="Times,serif" font-size="14.00">+call_project3_workflow3</text>
<text text-anchor="middle" x="99" y="-23.8" font-family="Times,serif" font-size="14.00">workflow3.dig</text>
</a>
</g>
</g>
<!-- 21279f83&#45;da67&#45;462d&#45;afac&#45;a3e28974a9a9&#45;&gt;f5bddbdb&#45;f326&#45;471e&#45;952f&#45;bd7f78fb32a9 -->
<g id="edge6" class="edge">
<title>21279f83&#45;da67&#45;462d&#45;afac&#45;a3e28974a9a9&#45;&gt;f5bddbdb&#45;f326&#45;471e&#45;952f&#45;bd7f78fb32a9</title>
<path fill="none" stroke="red" d="M99,-89.83C99,-82.13 99,-72.97 99,-64.42"/>
<polygon fill="red" stroke="red" points="102.5,-64.41 99,-54.41 95.5,-64.41 102.5,-64.41"/>
</g>
</g>
</svg>
