<?xml version="1.0" encoding="UTF-8" standalone="no"?>
<!DOCTYPE svg PUBLIC "-//W3C//DTD SVG 1.1//EN"
 "http://www.w3.org/Graphics/SVG/1.1/DTD/svg11.dtd">
<!-- Generated by graphviz version 2.48.0 (20210717.1556)
 -->
<!-- Pages: 1 -->
<svg width="836pt" height="725pt"
 viewBox="0.00 0.00 836.00 725.00" xmlns="http://www.w3.org/2000/svg" xmlns:xlink="http://www.w3.org/1999/xlink">
<g id="graph0" class="graph" transform="scale(1 1) rotate(0) translate(4 721)">
<polygon fill="white" stroke="transparent" points="-4,4 -4,-721 832,-721 832,4 -4,4"/>
<g id="clust1" class="cluster">
<title>cluster&#45;98cff68b&#45;2418&#45;4987&#45;bd64&#45;d0e9a580edb2</title>
<polygon fill="none" stroke="black" points="8,-8 8,-653 820,-653 820,-8 8,-8"/>
</g>
<g id="clust4" class="cluster">
<title>cluster&#45;76da1ff9&#45;1679&#45;4ceb&#45;aa70&#45;7fb523a7f6ff</title>
<polygon fill="none" stroke="black" points="310,-304 310,-403 518,-403 518,-304 310,-304"/>
</g>
<!-- 5f392c15&#45;0f39&#45;4e51&#45;b478&#45;616aefec5e34 -->
<g id="node1" class="node">
<title>5f392c15&#45;0f39&#45;4e51&#45;b478&#45;616aefec5e34</title>
<g id="a_node1"><a xlink:href="../../index.html" xlink:title="Click to HomePage">
<polygon fill="none" stroke="brown" points="477,-717 351,-717 351,-681 477,-681 477,-717"/>
<text text-anchor="middle" x="414" y="-695.3" font-family="Times,serif" font-size="14.00">Click to HomePage</text>
</a>
</g>
</g>
<!-- 2f4c0953&#45;a526&#45;4ea0&#45;8c54&#45;22c446e8061e -->
<g id="node2" class="node">
<title>2f4c0953&#45;a526&#45;4ea0&#45;8c54&#45;22c446e8061e</title>
<polygon fill="none" stroke="mediumspringgreen" points="473,-639 343,-639 343,-615 473,-615 485,-627 473,-639"/>
<text text-anchor="middle" x="414" y="-623.3" font-family="Times,serif" font-size="14.00">America/Los_Angeles</text>
</g>
<!-- 5f392c15&#45;0f39&#45;4e51&#45;b478&#45;616aefec5e34&#45;&gt;2f4c0953&#45;a526&#45;4ea0&#45;8c54&#45;22c446e8061e -->
<g id="edge1" class="edge">
<title>5f392c15&#45;0f39&#45;4e51&#45;b478&#45;616aefec5e34&#45;&gt;2f4c0953&#45;a526&#45;4ea0&#45;8c54&#45;22c446e8061e</title>
<path fill="none" stroke="red" d="M414,-680.7C414,-672.98 414,-663.71 414,-655.11"/>
<polygon fill="red" stroke="red" points="417.5,-655.1 414,-645.1 410.5,-655.1 417.5,-655.1"/>
</g>
<!-- 92702258&#45;3b2f&#45;42fb&#45;adf9&#45;bd004675c73b -->
<g id="node3" class="node">
<title>92702258&#45;3b2f&#45;42fb&#45;adf9&#45;bd004675c73b</title>
<polygon fill="none" stroke="#8b6914" stroke-width="2" points="552,-573 280,-573 276,-569 276,-505 548,-505 552,-509 552,-573"/>
<polyline fill="none" stroke="#8b6914" stroke-width="2" points="548,-569 276,-569 "/>
<polyline fill="none" stroke="#8b6914" stroke-width="2" points="548,-569 548,-505 "/>
<polyline fill="none" stroke="#8b6914" stroke-width="2" points="548,-569 552,-573 "/>
<text text-anchor="middle" x="414" y="-557.8" font-family="Times,serif" font-size="14.00">_export</text>
<text text-anchor="middle" x="414" y="-542.8" font-family="Times,serif" font-size="14.00">{&quot;db_info&quot;: {&quot;include &quot;: &quot;config/database.dig&quot;</text>
<text text-anchor="middle" x="414" y="-527.8" font-family="Times,serif" font-size="14.00"> &quot;src&quot;: &quot;inside workflow1 dig file&quot;</text>
<text text-anchor="middle" x="414" y="-512.8" font-family="Times,serif" font-size="14.00"> &quot;env&quot;: &quot;Updated env in workflow file&quot;}}</text>
</g>
<!-- 2f4c0953&#45;a526&#45;4ea0&#45;8c54&#45;22c446e8061e&#45;&gt;92702258&#45;3b2f&#45;42fb&#45;adf9&#45;bd004675c73b -->
<g id="edge2" class="edge">
<title>2f4c0953&#45;a526&#45;4ea0&#45;8c54&#45;22c446e8061e&#45;&gt;92702258&#45;3b2f&#45;42fb&#45;adf9&#45;bd004675c73b</title>
<path fill="none" stroke="red" d="M414,-608.6C414,-601.18 414,-592.16 414,-583.14"/>
<polygon fill="red" stroke="red" points="417.5,-583.03 414,-573.03 410.5,-583.03 417.5,-583.03"/>
</g>
<!-- f6def401&#45;91ea&#45;4fb3&#45;b12d&#45;5093764a8e24 -->
<g id="node4" class="node">
<title>f6def401&#45;91ea&#45;4fb3&#45;b12d&#45;5093764a8e24</title>
<polygon fill="none" stroke="lightslategray" stroke-width="1.9" points="811.5,-469 16.5,-469 16.5,-431 811.5,-431 811.5,-469"/>
<text text-anchor="middle" x="414" y="-453.8" font-family="Times,serif" font-size="14.00">+echo_task1</text>
<text text-anchor="middle" x="414" y="-438.8" font-family="Times,serif" font-size="14.00">{&#39;_export&#39;: {&#39;dest_tbl&#39;: &#39;dest_table_name&#39;, &#39;src_db&#39;: &#39;${dbname}&#39;, &#39;src_tbl1&#39;: &#39;${dbname}&#39;, &#39;src_tbl2&#39;: &#39;${dbname}&#39;}, &#39;echo&gt;&#39;: &#39;this is test task!&#39;}</text>
</g>
<!-- 92702258&#45;3b2f&#45;42fb&#45;adf9&#45;bd004675c73b&#45;&gt;f6def401&#45;91ea&#45;4fb3&#45;b12d&#45;5093764a8e24 -->
<g id="edge3" class="edge">
<title>92702258&#45;3b2f&#45;42fb&#45;adf9&#45;bd004675c73b&#45;&gt;f6def401&#45;91ea&#45;4fb3&#45;b12d&#45;5093764a8e24</title>
<path fill="none" stroke="red" d="M414,-504.61C414,-496.22 414,-487.29 414,-479.17"/>
<polygon fill="red" stroke="red" points="417.5,-479.09 414,-469.09 410.5,-479.09 417.5,-479.09"/>
</g>
<!-- d5af8093&#45;064e&#45;46eb&#45;8360&#45;8351c65fdc51 -->
<g id="node5" class="node">
<title>d5af8093&#45;064e&#45;46eb&#45;8360&#45;8351c65fdc51</title>
<polygon fill="none" stroke="#8b6914" stroke-width="2" points="510,-395 322,-395 318,-391 318,-312 506,-312 510,-316 510,-395"/>
<polyline fill="none" stroke="#8b6914" stroke-width="2" points="506,-391 318,-391 "/>
<polyline fill="none" stroke="#8b6914" stroke-width="2" points="506,-391 506,-312 "/>
<polyline fill="none" stroke="#8b6914" stroke-width="2" points="506,-391 510,-395 "/>
<text text-anchor="middle" x="414" y="-379.8" font-family="Times,serif" font-size="14.00">_export</text>
<text text-anchor="middle" x="414" y="-364.8" font-family="Times,serif" font-size="14.00">{&quot;dest_tbl&quot;: &quot;dest_table_name&quot;</text>
<text text-anchor="middle" x="414" y="-349.8" font-family="Times,serif" font-size="14.00"> &quot;src_db&quot;: &quot;${dbname}&quot;</text>
<text text-anchor="middle" x="414" y="-334.8" font-family="Times,serif" font-size="14.00"> &quot;src_tbl1&quot;: &quot;${dbname}&quot;</text>
<text text-anchor="middle" x="414" y="-319.8" font-family="Times,serif" font-size="14.00"> &quot;src_tbl2&quot;: &quot;${dbname}&quot;}</text>
</g>
<!-- f6def401&#45;91ea&#45;4fb3&#45;b12d&#45;5093764a8e24&#45;&gt;d5af8093&#45;064e&#45;46eb&#45;8360&#45;8351c65fdc51 -->
<g id="edge8" class="edge">
<title>f6def401&#45;91ea&#45;4fb3&#45;b12d&#45;5093764a8e24&#45;&gt;d5af8093&#45;064e&#45;46eb&#45;8360&#45;8351c65fdc51</title>
<path fill="none" stroke="red" d="M414,-430.78C414,-423.45 414,-414.61 414,-405.57"/>
<polygon fill="red" stroke="red" points="417.5,-405.37 414,-395.37 410.5,-405.37 417.5,-405.37"/>
</g>
<!-- a3ee8736&#45;321c&#45;4f4a&#45;9714&#45;5ad9ac2fca55 -->
<g id="node6" class="node">
<title>a3ee8736&#45;321c&#45;4f4a&#45;9714&#45;5ad9ac2fca55</title>
<polygon fill="none" stroke="lightslategray" stroke-width="1.9" points="532,-276 296,-276 296,-238 532,-238 532,-276"/>
<text text-anchor="middle" x="414" y="-260.8" font-family="Times,serif" font-size="14.00">+echo_task2</text>
<text text-anchor="middle" x="414" y="-245.8" font-family="Times,serif" font-size="14.00">{&#39;echo&gt;&#39;: &#39;${db_info.global_variable}&#39;}</text>
</g>
<!-- d5af8093&#45;064e&#45;46eb&#45;8360&#45;8351c65fdc51&#45;&gt;a3ee8736&#45;321c&#45;4f4a&#45;9714&#45;5ad9ac2fca55 -->
<g id="edge4" class="edge">
<title>d5af8093&#45;064e&#45;46eb&#45;8360&#45;8351c65fdc51&#45;&gt;a3ee8736&#45;321c&#45;4f4a&#45;9714&#45;5ad9ac2fca55</title>
<path fill="none" stroke="red" d="M414,-311.88C414,-303.35 414,-294.52 414,-286.55"/>
<polygon fill="red" stroke="red" points="417.5,-286.3 414,-276.3 410.5,-286.3 417.5,-286.3"/>
</g>
<!-- 173acfb8&#45;10d2&#45;4ff2&#45;8df5&#45;4915d44e41b3 -->
<g id="node7" class="node">
<title>173acfb8&#45;10d2&#45;4ff2&#45;8df5&#45;4915d44e41b3</title>
<polygon fill="none" stroke="lightslategray" stroke-width="1.9" points="600,-202 228,-202 228,-164 600,-164 600,-202"/>
<text text-anchor="middle" x="414" y="-186.8" font-family="Times,serif" font-size="14.00">+echo_task3</text>
<text text-anchor="middle" x="414" y="-171.8" font-family="Times,serif" font-size="14.00">{&#39;echo&gt;&#39;: &#39;Source is ${db_info.src} and env is ${db_info.env}&#39;}</text>
</g>
<!-- a3ee8736&#45;321c&#45;4f4a&#45;9714&#45;5ad9ac2fca55&#45;&gt;173acfb8&#45;10d2&#45;4ff2&#45;8df5&#45;4915d44e41b3 -->
<g id="edge5" class="edge">
<title>a3ee8736&#45;321c&#45;4f4a&#45;9714&#45;5ad9ac2fca55&#45;&gt;173acfb8&#45;10d2&#45;4ff2&#45;8df5&#45;4915d44e41b3</title>
<path fill="none" stroke="red" d="M414,-237.83C414,-230.13 414,-220.97 414,-212.42"/>
<polygon fill="red" stroke="red" points="417.5,-212.41 414,-202.41 410.5,-212.41 417.5,-212.41"/>
</g>
<!-- 1c87c67a&#45;cfc5&#45;4f94&#45;b215&#45;3098a676ce66 -->
<g id="node8" class="node">
<title>1c87c67a&#45;cfc5&#45;4f94&#45;b215&#45;3098a676ce66</title>
<g id="a_node8"><a xlink:title="select&#10;col1,&#10;col2,&#10;col3&#10;from&#10;sourcedb.sourcetable;">
<polygon fill="none" stroke="#008000" stroke-width="1.5" points="478,-128 350,-128 350,-90 478,-90 478,-128"/>
<text text-anchor="middle" x="414" y="-112.8" font-family="Times,serif" font-size="14.00">+run_query1</text>
<text text-anchor="middle" x="414" y="-97.8" font-family="Times,serif" font-size="14.00">queries/example.sql</text>
</a>
</g>
</g>
<!-- 173acfb8&#45;10d2&#45;4ff2&#45;8df5&#45;4915d44e41b3&#45;&gt;1c87c67a&#45;cfc5&#45;4f94&#45;b215&#45;3098a676ce66 -->
<g id="edge6" class="edge">
<title>173acfb8&#45;10d2&#45;4ff2&#45;8df5&#45;4915d44e41b3&#45;&gt;1c87c67a&#45;cfc5&#45;4f94&#45;b215&#45;3098a676ce66</title>
<path fill="none" stroke="red" d="M414,-163.83C414,-156.13 414,-146.97 414,-138.42"/>
<polygon fill="red" stroke="red" points="417.5,-138.41 414,-128.41 410.5,-138.41 417.5,-138.41"/>
</g>
<!-- ff4b7d3d&#45;ab2e&#45;4c14&#45;b720&#45;3e7bd7d1e663 -->
<g id="node9" class="node">
<title>ff4b7d3d&#45;ab2e&#45;4c14&#45;b720&#45;3e7bd7d1e663</title>
<g id="a_node9"><a xlink:href="../project2/workflow3.html" xlink:title="+call_project3_workflow3&#10;workflow3.dig">
<polygon fill="none" stroke="cornflowerblue" stroke-width="3" points="496.5,-54 331.5,-54 331.5,-16 496.5,-16 496.5,-54"/>
<text text-anchor="middle" x="414" y="-38.8" font-family="Times,serif" font-size="14.00">+call_project3_workflow3</text>
<text text-anchor="middle" x="414" y="-23.8" font-family="Times,serif" font-size="14.00">workflow3.dig</text>
</a>
</g>
</g>
<!-- 1c87c67a&#45;cfc5&#45;4f94&#45;b215&#45;3098a676ce66&#45;&gt;ff4b7d3d&#45;ab2e&#45;4c14&#45;b720&#45;3e7bd7d1e663 -->
<g id="edge7" class="edge">
<title>1c87c67a&#45;cfc5&#45;4f94&#45;b215&#45;3098a676ce66&#45;&gt;ff4b7d3d&#45;ab2e&#45;4c14&#45;b720&#45;3e7bd7d1e663</title>
<path fill="none" stroke="red" d="M414,-89.83C414,-82.13 414,-72.97 414,-64.42"/>
<polygon fill="red" stroke="red" points="417.5,-64.41 414,-54.41 410.5,-64.41 417.5,-64.41"/>
</g>
</g>
</svg>
