<?xml version="1.0" encoding="UTF-8" standalone="no"?>
<!DOCTYPE svg PUBLIC "-//W3C//DTD SVG 1.1//EN"
 "http://www.w3.org/Graphics/SVG/1.1/DTD/svg11.dtd">
<!-- Generated by graphviz version 2.48.0 (20210717.1556)
 -->
<!-- Pages: 1 -->
<svg width="333pt" height="566pt"
 viewBox="0.00 0.00 333.00 566.00" xmlns="http://www.w3.org/2000/svg" xmlns:xlink="http://www.w3.org/1999/xlink">
<g id="graph0" class="graph" transform="scale(1 1) rotate(0) translate(4 562)">
<polygon fill="white" stroke="transparent" points="-4,4 -4,-562 329,-562 329,4 -4,4"/>
<g id="clust1" class="cluster">
<title>cluster&#45;d27a8e56&#45;5a3c&#45;4e8e&#45;97f3&#45;fed9a536fcd1</title>
<polygon fill="none" stroke="black" points="8,-8 8,-494 317,-494 317,-8 8,-8"/>
</g>
<g id="clust4" class="cluster">
<title>cluster&#45;57dae72a&#45;f140&#45;4160&#45;bc88&#45;0d8d0552b6dd</title>
<polygon fill="none" stroke="black" points="16,-226 16,-278 309,-278 309,-226 16,-226"/>
</g>
<!-- 1fbff8fe&#45;dec3&#45;4574&#45;9d2b&#45;b17b407d9ff9 -->
<g id="node1" class="node">
<title>1fbff8fe&#45;dec3&#45;4574&#45;9d2b&#45;b17b407d9ff9</title>
<polygon fill="none" stroke="#ff3030" stroke-width="3" points="189,-558 135,-558 135,-522 189,-522 189,-558"/>
<text text-anchor="middle" x="162" y="-536.3" font-family="Times,serif" font-size="14.00">root</text>
</g>
<!-- 01e0587c&#45;3396&#45;4fd1&#45;a3c2&#45;56bdf2cae515 -->
<g id="node2" class="node">
<title>01e0587c&#45;3396&#45;4fd1&#45;a3c2&#45;56bdf2cae515</title>
<polygon fill="none" stroke="mediumspringgreen" points="233,-486 91,-486 91,-450 233,-450 233,-486"/>
<text text-anchor="middle" x="162" y="-464.3" font-family="Times,serif" font-size="14.00">America/Los_Angeles</text>
</g>
<!-- 1fbff8fe&#45;dec3&#45;4574&#45;9d2b&#45;b17b407d9ff9&#45;&gt;01e0587c&#45;3396&#45;4fd1&#45;a3c2&#45;56bdf2cae515 -->
<g id="edge1" class="edge">
<title>1fbff8fe&#45;dec3&#45;4574&#45;9d2b&#45;b17b407d9ff9&#45;&gt;01e0587c&#45;3396&#45;4fd1&#45;a3c2&#45;56bdf2cae515</title>
<path fill="none" stroke="red" d="M162,-521.7C162,-513.98 162,-504.71 162,-496.11"/>
<polygon fill="red" stroke="red" points="165.5,-496.1 162,-486.1 158.5,-496.1 165.5,-496.1"/>
</g>
<!-- a0e1f8c7&#45;4a31&#45;42d6&#45;a31f&#45;562a012c816e -->
<g id="node3" class="node">
<title>a0e1f8c7&#45;4a31&#45;42d6&#45;a31f&#45;562a012c816e</title>
<polygon fill="none" stroke="#ff00ff" points="245,-414 79,-414 79,-378 245,-378 245,-414"/>
<text text-anchor="middle" x="162" y="-392.3" font-family="Times,serif" font-size="14.00">{&quot;cron&gt;&quot;: &quot;30 6,18 * * *&quot;}</text>
</g>
<!-- 01e0587c&#45;3396&#45;4fd1&#45;a3c2&#45;56bdf2cae515&#45;&gt;a0e1f8c7&#45;4a31&#45;42d6&#45;a31f&#45;562a012c816e -->
<g id="edge2" class="edge">
<title>01e0587c&#45;3396&#45;4fd1&#45;a3c2&#45;56bdf2cae515&#45;&gt;a0e1f8c7&#45;4a31&#45;42d6&#45;a31f&#45;562a012c816e</title>
<path fill="none" stroke="red" d="M162,-449.7C162,-441.98 162,-432.71 162,-424.11"/>
<polygon fill="red" stroke="red" points="165.5,-424.1 162,-414.1 158.5,-424.1 165.5,-424.1"/>
</g>
<!-- 45f60fc0&#45;b2ec&#45;4f2f&#45;abb8&#45;4975b0990701 -->
<g id="node4" class="node">
<title>45f60fc0&#45;b2ec&#45;4f2f&#45;abb8&#45;4975b0990701</title>
<polygon fill="none" stroke="#ff3030" stroke-width="3" points="205.5,-342 118.5,-342 118.5,-306 205.5,-306 205.5,-342"/>
<text text-anchor="middle" x="162" y="-320.3" font-family="Times,serif" font-size="14.00">+echo_task1</text>
</g>
<!-- a0e1f8c7&#45;4a31&#45;42d6&#45;a31f&#45;562a012c816e&#45;&gt;45f60fc0&#45;b2ec&#45;4f2f&#45;abb8&#45;4975b0990701 -->
<g id="edge3" class="edge">
<title>a0e1f8c7&#45;4a31&#45;42d6&#45;a31f&#45;562a012c816e&#45;&gt;45f60fc0&#45;b2ec&#45;4f2f&#45;abb8&#45;4975b0990701</title>
<path fill="none" stroke="red" d="M162,-377.7C162,-369.98 162,-360.71 162,-352.11"/>
<polygon fill="red" stroke="red" points="165.5,-352.1 162,-342.1 158.5,-352.1 165.5,-352.1"/>
</g>
<!-- b8266a47&#45;f410&#45;44e0&#45;9a51&#45;5cee5f7db362 -->
<g id="node5" class="node">
<title>b8266a47&#45;f410&#45;44e0&#45;9a51&#45;5cee5f7db362</title>
<polygon fill="none" stroke="orangered" points="300.5,-270 171.5,-270 171.5,-234 300.5,-234 300.5,-270"/>
<text text-anchor="middle" x="236" y="-248.3" font-family="Times,serif" font-size="14.00">+echo_task1_child1</text>
</g>
<!-- 45f60fc0&#45;b2ec&#45;4f2f&#45;abb8&#45;4975b0990701&#45;&gt;b8266a47&#45;f410&#45;44e0&#45;9a51&#45;5cee5f7db362 -->
<g id="edge8" class="edge">
<title>45f60fc0&#45;b2ec&#45;4f2f&#45;abb8&#45;4975b0990701&#45;&gt;b8266a47&#45;f410&#45;44e0&#45;9a51&#45;5cee5f7db362</title>
<path fill="none" stroke="red" d="M180.29,-305.7C189.43,-297.05 200.64,-286.45 210.6,-277.03"/>
<polygon fill="red" stroke="red" points="213.06,-279.52 217.92,-270.1 208.25,-274.43 213.06,-279.52"/>
</g>
<!-- 8a2258dd&#45;1d1d&#45;4d0b&#45;aa12&#45;d1d6c6389def -->
<g id="node7" class="node">
<title>8a2258dd&#45;1d1d&#45;4d0b&#45;aa12&#45;d1d6c6389def</title>
<polygon fill="none" stroke="orangered" points="153.5,-270 24.5,-270 24.5,-234 153.5,-234 153.5,-270"/>
<text text-anchor="middle" x="89" y="-248.3" font-family="Times,serif" font-size="14.00">+echo_task1_child2</text>
</g>
<!-- 45f60fc0&#45;b2ec&#45;4f2f&#45;abb8&#45;4975b0990701&#45;&gt;8a2258dd&#45;1d1d&#45;4d0b&#45;aa12&#45;d1d6c6389def -->
<g id="edge9" class="edge">
<title>45f60fc0&#45;b2ec&#45;4f2f&#45;abb8&#45;4975b0990701&#45;&gt;8a2258dd&#45;1d1d&#45;4d0b&#45;aa12&#45;d1d6c6389def</title>
<path fill="none" stroke="red" d="M143.96,-305.7C134.94,-297.05 123.88,-286.45 114.06,-277.03"/>
<polygon fill="red" stroke="red" points="116.48,-274.5 106.84,-270.1 111.63,-279.55 116.48,-274.5"/>
</g>
<!-- b618be27&#45;78c4&#45;4bd0&#45;b0f7&#45;839880cb5061 -->
<g id="node6" class="node">
<title>b618be27&#45;78c4&#45;4bd0&#45;b0f7&#45;839880cb5061</title>
<polygon fill="none" stroke="orangered" points="205.5,-198 118.5,-198 118.5,-162 205.5,-162 205.5,-198"/>
<text text-anchor="middle" x="162" y="-176.3" font-family="Times,serif" font-size="14.00">+echo_task2</text>
</g>
<!-- b8266a47&#45;f410&#45;44e0&#45;9a51&#45;5cee5f7db362&#45;&gt;b618be27&#45;78c4&#45;4bd0&#45;b0f7&#45;839880cb5061 -->
<g id="edge4" class="edge">
<title>b8266a47&#45;f410&#45;44e0&#45;9a51&#45;5cee5f7db362&#45;&gt;b618be27&#45;78c4&#45;4bd0&#45;b0f7&#45;839880cb5061</title>
<path fill="none" stroke="red" d="M217.71,-233.7C208.57,-225.05 197.36,-214.45 187.4,-205.03"/>
<polygon fill="red" stroke="red" points="189.75,-202.43 180.08,-198.1 184.94,-207.52 189.75,-202.43"/>
</g>
<!-- 20d93d8f&#45;e6e4&#45;450e&#45;8ca9&#45;2cf2948f60a6 -->
<g id="node8" class="node">
<title>20d93d8f&#45;e6e4&#45;450e&#45;8ca9&#45;2cf2948f60a6</title>
<polygon fill="none" stroke="orangered" points="205.5,-126 118.5,-126 118.5,-90 205.5,-90 205.5,-126"/>
<text text-anchor="middle" x="162" y="-104.3" font-family="Times,serif" font-size="14.00">+echo_task3</text>
</g>
<!-- b618be27&#45;78c4&#45;4bd0&#45;b0f7&#45;839880cb5061&#45;&gt;20d93d8f&#45;e6e4&#45;450e&#45;8ca9&#45;2cf2948f60a6 -->
<g id="edge6" class="edge">
<title>b618be27&#45;78c4&#45;4bd0&#45;b0f7&#45;839880cb5061&#45;&gt;20d93d8f&#45;e6e4&#45;450e&#45;8ca9&#45;2cf2948f60a6</title>
<path fill="none" stroke="red" d="M162,-161.7C162,-153.98 162,-144.71 162,-136.11"/>
<polygon fill="red" stroke="red" points="165.5,-136.1 162,-126.1 158.5,-136.1 165.5,-136.1"/>
</g>
<!-- 8a2258dd&#45;1d1d&#45;4d0b&#45;aa12&#45;d1d6c6389def&#45;&gt;b618be27&#45;78c4&#45;4bd0&#45;b0f7&#45;839880cb5061 -->
<g id="edge5" class="edge">
<title>8a2258dd&#45;1d1d&#45;4d0b&#45;aa12&#45;d1d6c6389def&#45;&gt;b618be27&#45;78c4&#45;4bd0&#45;b0f7&#45;839880cb5061</title>
<path fill="none" stroke="red" d="M107.04,-233.7C116.06,-225.05 127.12,-214.45 136.94,-205.03"/>
<polygon fill="red" stroke="red" points="139.37,-207.55 144.16,-198.1 134.52,-202.5 139.37,-207.55"/>
</g>
<!-- a1df4a32&#45;ba8b&#45;4399&#45;b672&#45;c7a71bc98d3c -->
<g id="node9" class="node">
<title>a1df4a32&#45;ba8b&#45;4399&#45;b672&#45;c7a71bc98d3c</title>
<g id="a_node9"><a xlink:href="../project1/workflow2.html" xlink:title="+call_workflow2&#10;workflow2.dig">
<polygon fill="none" stroke="#ff3030" stroke-width="3" points="218,-54 106,-54 106,-16 218,-16 218,-54"/>
<text text-anchor="middle" x="162" y="-38.8" font-family="Times,serif" font-size="14.00">+call_workflow2</text>
<text text-anchor="middle" x="162" y="-23.8" font-family="Times,serif" font-size="14.00">workflow2.dig</text>
</a>
</g>
</g>
<!-- 20d93d8f&#45;e6e4&#45;450e&#45;8ca9&#45;2cf2948f60a6&#45;&gt;a1df4a32&#45;ba8b&#45;4399&#45;b672&#45;c7a71bc98d3c -->
<g id="edge7" class="edge">
<title>20d93d8f&#45;e6e4&#45;450e&#45;8ca9&#45;2cf2948f60a6&#45;&gt;a1df4a32&#45;ba8b&#45;4399&#45;b672&#45;c7a71bc98d3c</title>
<path fill="none" stroke="red" d="M162,-89.81C162,-82.11 162,-72.82 162,-64.15"/>
<polygon fill="red" stroke="red" points="165.5,-64.02 162,-54.02 158.5,-64.02 165.5,-64.02"/>
</g>
</g>
</svg>
