<?xml version="1.0" encoding="UTF-8" standalone="no"?>
<!DOCTYPE svg PUBLIC "-//W3C//DTD SVG 1.1//EN"
 "http://www.w3.org/Graphics/SVG/1.1/DTD/svg11.dtd">
<!-- Generated by graphviz version 2.48.0 (20210717.1556)
 -->
<!-- Pages: 1 -->
<svg width="206pt" height="496pt"
 viewBox="0.00 0.00 206.00 496.00" xmlns="http://www.w3.org/2000/svg" xmlns:xlink="http://www.w3.org/1999/xlink">
<g id="graph0" class="graph" transform="scale(1 1) rotate(0) translate(4 492)">
<polygon fill="white" stroke="transparent" points="-4,4 -4,-492 202,-492 202,4 -4,4"/>
<g id="clust1" class="cluster">
<title>cluster&#45;d7a3bf97&#45;fa15&#45;4491&#45;9b75&#45;c0a988eae2af</title>
<polygon fill="none" stroke="black" points="8,-8 8,-424 190,-424 190,-8 8,-8"/>
</g>
<!-- 25f526de&#45;fdb4&#45;4ca5&#45;b7c0&#45;1217d2c70240 -->
<g id="node1" class="node">
<title>25f526de&#45;fdb4&#45;4ca5&#45;b7c0&#45;1217d2c70240</title>
<g id="a_node1"><a xlink:href="../../index.html" xlink:title="Click to HomePage">
<polygon fill="none" stroke="#ff3030" stroke-width="3" points="162,-488 36,-488 36,-452 162,-452 162,-488"/>
<text text-anchor="middle" x="99" y="-466.3" font-family="Times,serif" font-size="14.00">Click to HomePage</text>
</a>
</g>
</g>
<!-- 241d45e2&#45;c93a&#45;4700&#45;b37e&#45;7c310d65152b -->
<g id="node2" class="node">
<title>241d45e2&#45;c93a&#45;4700&#45;b37e&#45;7c310d65152b</title>
<g id="a_node2"><a xlink:href="../../index.html" xlink:title="America/Los_Angeles">
<polygon fill="none" stroke="mediumspringgreen" points="170,-416 28,-416 28,-380 170,-380 170,-416"/>
<text text-anchor="middle" x="99" y="-394.3" font-family="Times,serif" font-size="14.00">America/Los_Angeles</text>
</a>
</g>
</g>
<!-- 25f526de&#45;fdb4&#45;4ca5&#45;b7c0&#45;1217d2c70240&#45;&gt;241d45e2&#45;c93a&#45;4700&#45;b37e&#45;7c310d65152b -->
<g id="edge1" class="edge">
<title>25f526de&#45;fdb4&#45;4ca5&#45;b7c0&#45;1217d2c70240&#45;&gt;241d45e2&#45;c93a&#45;4700&#45;b37e&#45;7c310d65152b</title>
<path fill="none" stroke="red" d="M99,-451.7C99,-443.98 99,-434.71 99,-426.11"/>
<polygon fill="red" stroke="red" points="102.5,-426.1 99,-416.1 95.5,-426.1 102.5,-426.1"/>
</g>
<!-- fee35563&#45;8c40&#45;4313&#45;87ff&#45;9c01ca313ace -->
<g id="node3" class="node">
<title>fee35563&#45;8c40&#45;4313&#45;87ff&#45;9c01ca313ace</title>
<g id="a_node3"><a xlink:href="../../index.html" xlink:title="+echo_task1">
<polygon fill="none" stroke="orangered" points="142.5,-344 55.5,-344 55.5,-308 142.5,-308 142.5,-344"/>
<text text-anchor="middle" x="99" y="-322.3" font-family="Times,serif" font-size="14.00">+echo_task1</text>
</a>
</g>
</g>
<!-- 241d45e2&#45;c93a&#45;4700&#45;b37e&#45;7c310d65152b&#45;&gt;fee35563&#45;8c40&#45;4313&#45;87ff&#45;9c01ca313ace -->
<g id="edge2" class="edge">
<title>241d45e2&#45;c93a&#45;4700&#45;b37e&#45;7c310d65152b&#45;&gt;fee35563&#45;8c40&#45;4313&#45;87ff&#45;9c01ca313ace</title>
<path fill="none" stroke="red" d="M99,-379.7C99,-371.98 99,-362.71 99,-354.11"/>
<polygon fill="red" stroke="red" points="102.5,-354.1 99,-344.1 95.5,-354.1 102.5,-354.1"/>
</g>
<!-- 3a14de83&#45;f8dc&#45;49af&#45;9275&#45;babe11f5039e -->
<g id="node4" class="node">
<title>3a14de83&#45;f8dc&#45;49af&#45;9275&#45;babe11f5039e</title>
<g id="a_node4"><a xlink:href="../../index.html" xlink:title="+echo_task2">
<polygon fill="none" stroke="orangered" points="142.5,-272 55.5,-272 55.5,-236 142.5,-236 142.5,-272"/>
<text text-anchor="middle" x="99" y="-250.3" font-family="Times,serif" font-size="14.00">+echo_task2</text>
</a>
</g>
</g>
<!-- fee35563&#45;8c40&#45;4313&#45;87ff&#45;9c01ca313ace&#45;&gt;3a14de83&#45;f8dc&#45;49af&#45;9275&#45;babe11f5039e -->
<g id="edge3" class="edge">
<title>fee35563&#45;8c40&#45;4313&#45;87ff&#45;9c01ca313ace&#45;&gt;3a14de83&#45;f8dc&#45;49af&#45;9275&#45;babe11f5039e</title>
<path fill="none" stroke="red" d="M99,-307.7C99,-299.98 99,-290.71 99,-282.11"/>
<polygon fill="red" stroke="red" points="102.5,-282.1 99,-272.1 95.5,-282.1 102.5,-282.1"/>
</g>
<!-- 38925971&#45;1478&#45;48ee&#45;8e38&#45;8aa90ff39c68 -->
<g id="node5" class="node">
<title>38925971&#45;1478&#45;48ee&#45;8e38&#45;8aa90ff39c68</title>
<g id="a_node5"><a xlink:href="../../index.html" xlink:title="+echo_task3">
<polygon fill="none" stroke="orangered" points="142.5,-200 55.5,-200 55.5,-164 142.5,-164 142.5,-200"/>
<text text-anchor="middle" x="99" y="-178.3" font-family="Times,serif" font-size="14.00">+echo_task3</text>
</a>
</g>
</g>
<!-- 3a14de83&#45;f8dc&#45;49af&#45;9275&#45;babe11f5039e&#45;&gt;38925971&#45;1478&#45;48ee&#45;8e38&#45;8aa90ff39c68 -->
<g id="edge4" class="edge">
<title>3a14de83&#45;f8dc&#45;49af&#45;9275&#45;babe11f5039e&#45;&gt;38925971&#45;1478&#45;48ee&#45;8e38&#45;8aa90ff39c68</title>
<path fill="none" stroke="red" d="M99,-235.7C99,-227.98 99,-218.71 99,-210.11"/>
<polygon fill="red" stroke="red" points="102.5,-210.1 99,-200.1 95.5,-210.1 102.5,-210.1"/>
</g>
<!-- 1bb091b1&#45;2ca2&#45;4c90&#45;9872&#45;8d8c9f91ee1b -->
<g id="node6" class="node">
<title>1bb091b1&#45;2ca2&#45;4c90&#45;9872&#45;8d8c9f91ee1b</title>
<g id="a_node6"><a xlink:href="../../index.html" xlink:title="+run_query1&#10;queries/example.sql">
<polygon fill="none" stroke="blue" points="163,-128 35,-128 35,-90 163,-90 163,-128"/>
<text text-anchor="middle" x="99" y="-112.8" font-family="Times,serif" font-size="14.00">+run_query1</text>
<text text-anchor="middle" x="99" y="-97.8" font-family="Times,serif" font-size="14.00">queries/example.sql</text>
</a>
</g>
</g>
<!-- 38925971&#45;1478&#45;48ee&#45;8e38&#45;8aa90ff39c68&#45;&gt;1bb091b1&#45;2ca2&#45;4c90&#45;9872&#45;8d8c9f91ee1b -->
<g id="edge5" class="edge">
<title>38925971&#45;1478&#45;48ee&#45;8e38&#45;8aa90ff39c68&#45;&gt;1bb091b1&#45;2ca2&#45;4c90&#45;9872&#45;8d8c9f91ee1b</title>
<path fill="none" stroke="red" d="M99,-163.81C99,-156.11 99,-146.82 99,-138.15"/>
<polygon fill="red" stroke="red" points="102.5,-138.02 99,-128.02 95.5,-138.02 102.5,-138.02"/>
</g>
<!-- a000f5fb&#45;d85a&#45;4f72&#45;a954&#45;96975bc6c2da -->
<g id="node7" class="node">
<title>a000f5fb&#45;d85a&#45;4f72&#45;a954&#45;96975bc6c2da</title>
<g id="a_node7"><a xlink:href="../project2/workflow3.html" xlink:title="+call_project3_workflow3&#10;workflow3.dig">
<polygon fill="none" stroke="#ff3030" stroke-width="3" points="181.5,-54 16.5,-54 16.5,-16 181.5,-16 181.5,-54"/>
<text text-anchor="middle" x="99" y="-38.8" font-family="Times,serif" font-size="14.00">+call_project3_workflow3</text>
<text text-anchor="middle" x="99" y="-23.8" font-family="Times,serif" font-size="14.00">workflow3.dig</text>
</a>
</g>
</g>
<!-- 1bb091b1&#45;2ca2&#45;4c90&#45;9872&#45;8d8c9f91ee1b&#45;&gt;a000f5fb&#45;d85a&#45;4f72&#45;a954&#45;96975bc6c2da -->
<g id="edge6" class="edge">
<title>1bb091b1&#45;2ca2&#45;4c90&#45;9872&#45;8d8c9f91ee1b&#45;&gt;a000f5fb&#45;d85a&#45;4f72&#45;a954&#45;96975bc6c2da</title>
<path fill="none" stroke="red" d="M99,-89.83C99,-82.13 99,-72.97 99,-64.42"/>
<polygon fill="red" stroke="red" points="102.5,-64.41 99,-54.41 95.5,-64.41 102.5,-64.41"/>
</g>
</g>
</svg>
