<?xml version="1.0" encoding="UTF-8" standalone="no"?>
<!DOCTYPE svg PUBLIC "-//W3C//DTD SVG 1.1//EN"
 "http://www.w3.org/Graphics/SVG/1.1/DTD/svg11.dtd">
<!-- Generated by graphviz version 2.48.0 (20210717.1556)
 -->
<!-- Pages: 1 -->
<svg width="1083pt" height="797pt"
 viewBox="0.00 0.00 1083.00 797.00" xmlns="http://www.w3.org/2000/svg" xmlns:xlink="http://www.w3.org/1999/xlink">
<g id="graph0" class="graph" transform="scale(1 1) rotate(0) translate(4 793)">
<polygon fill="white" stroke="transparent" points="-4,4 -4,-793 1079,-793 1079,4 -4,4"/>
<g id="clust1" class="cluster">
<title>cluster&#45;6235ba26&#45;3672&#45;4018&#45;a16b&#45;db9ed2f0da45</title>
<polygon fill="none" stroke="black" points="8,-8 8,-725 1067,-725 1067,-8 8,-8"/>
</g>
<g id="clust5" class="cluster">
<title>cluster&#45;895e26e4&#45;8bab&#45;4f7b&#45;bff7&#45;685197be7dc8</title>
<polygon fill="none" stroke="black" points="16,-222 16,-403 1059,-403 1059,-222 16,-222"/>
</g>
<g id="clust6" class="cluster">
<title>cluster&#45;864d462a&#45;ed45&#45;4027&#45;9665&#45;0421d67bdbf2</title>
<polygon fill="none" stroke="black" points="431,-230 431,-329 639,-329 639,-230 431,-230"/>
</g>
<!-- af5966ff&#45;70df&#45;481d&#45;866a&#45;b196028545a6 -->
<g id="node1" class="node">
<title>af5966ff&#45;70df&#45;481d&#45;866a&#45;b196028545a6</title>
<g id="a_node1"><a xlink:href="../../index.html" xlink:title="Click to HomePage">
<polygon fill="none" stroke="brown" points="740,-789 614,-789 614,-753 740,-753 740,-789"/>
<text text-anchor="middle" x="677" y="-767.3" font-family="Times,serif" font-size="14.00">Click to HomePage</text>
</a>
</g>
</g>
<!-- 76a9f499&#45;0f16&#45;43fb&#45;bc51&#45;0829a2029cba -->
<g id="node2" class="node">
<title>76a9f499&#45;0f16&#45;43fb&#45;bc51&#45;0829a2029cba</title>
<polygon fill="none" stroke="mediumspringgreen" points="736,-711 606,-711 606,-687 736,-687 748,-699 736,-711"/>
<text text-anchor="middle" x="677" y="-695.3" font-family="Times,serif" font-size="14.00">America/Los_Angeles</text>
</g>
<!-- af5966ff&#45;70df&#45;481d&#45;866a&#45;b196028545a6&#45;&gt;76a9f499&#45;0f16&#45;43fb&#45;bc51&#45;0829a2029cba -->
<g id="edge1" class="edge">
<title>af5966ff&#45;70df&#45;481d&#45;866a&#45;b196028545a6&#45;&gt;76a9f499&#45;0f16&#45;43fb&#45;bc51&#45;0829a2029cba</title>
<path fill="none" stroke="red" d="M677,-752.7C677,-744.98 677,-735.71 677,-727.11"/>
<polygon fill="red" stroke="red" points="680.5,-727.1 677,-717.1 673.5,-727.1 680.5,-727.1"/>
</g>
<!-- 2b58f858&#45;7a86&#45;4d15&#45;88d1&#45;17d26492a9cd -->
<g id="node3" class="node">
<title>2b58f858&#45;7a86&#45;4d15&#45;88d1&#45;17d26492a9cd</title>
<polygon fill="none" stroke="#8b6914" stroke-width="2" points="815,-645 543,-645 539,-641 539,-577 811,-577 815,-581 815,-645"/>
<polyline fill="none" stroke="#8b6914" stroke-width="2" points="811,-641 539,-641 "/>
<polyline fill="none" stroke="#8b6914" stroke-width="2" points="811,-641 811,-577 "/>
<polyline fill="none" stroke="#8b6914" stroke-width="2" points="811,-641 815,-645 "/>
<text text-anchor="middle" x="677" y="-629.8" font-family="Times,serif" font-size="14.00">_export</text>
<text text-anchor="middle" x="677" y="-614.8" font-family="Times,serif" font-size="14.00">{&quot;db_info&quot;: {&quot;include &quot;: &quot;config/database.dig&quot;</text>
<text text-anchor="middle" x="677" y="-599.8" font-family="Times,serif" font-size="14.00"> &quot;src&quot;: &quot;inside workflow1 dig file&quot;</text>
<text text-anchor="middle" x="677" y="-584.8" font-family="Times,serif" font-size="14.00"> &quot;env&quot;: &quot;Updated env in workflow file&quot;}}</text>
</g>
<!-- 76a9f499&#45;0f16&#45;43fb&#45;bc51&#45;0829a2029cba&#45;&gt;2b58f858&#45;7a86&#45;4d15&#45;88d1&#45;17d26492a9cd -->
<g id="edge2" class="edge">
<title>76a9f499&#45;0f16&#45;43fb&#45;bc51&#45;0829a2029cba&#45;&gt;2b58f858&#45;7a86&#45;4d15&#45;88d1&#45;17d26492a9cd</title>
<path fill="none" stroke="red" d="M677,-680.6C677,-673.18 677,-664.16 677,-655.14"/>
<polygon fill="red" stroke="red" points="680.5,-655.03 677,-645.03 673.5,-655.03 680.5,-655.03"/>
</g>
<!-- e3d26c5c&#45;78ff&#45;4071&#45;8a14&#45;680a155ce9ed -->
<g id="node4" class="node">
<title>e3d26c5c&#45;78ff&#45;4071&#45;8a14&#45;680a155ce9ed</title>
<polygon fill="none" stroke="#ff00ff" points="764,-541 590,-541 590,-537 586,-537 586,-533 590,-533 590,-511 586,-511 586,-507 590,-507 590,-503 764,-503 764,-541"/>
<polyline fill="none" stroke="#ff00ff" points="590,-537 594,-537 594,-533 590,-533 "/>
<polyline fill="none" stroke="#ff00ff" points="590,-511 594,-511 594,-507 590,-507 "/>
<text text-anchor="middle" x="677" y="-525.8" font-family="Times,serif" font-size="14.00">{&quot;cron&gt;&quot;: &quot;30 6,18 * * *&quot;}</text>
<text text-anchor="middle" x="677" y="-510.8" font-family="Times,serif" font-size="14.00">At 06:30 AM and 06:30 PM</text>
</g>
<!-- 2b58f858&#45;7a86&#45;4d15&#45;88d1&#45;17d26492a9cd&#45;&gt;e3d26c5c&#45;78ff&#45;4071&#45;8a14&#45;680a155ce9ed -->
<g id="edge3" class="edge">
<title>2b58f858&#45;7a86&#45;4d15&#45;88d1&#45;17d26492a9cd&#45;&gt;e3d26c5c&#45;78ff&#45;4071&#45;8a14&#45;680a155ce9ed</title>
<path fill="none" stroke="red" d="M677,-576.61C677,-568.22 677,-559.29 677,-551.17"/>
<polygon fill="red" stroke="red" points="680.5,-551.09 677,-541.09 673.5,-551.09 680.5,-551.09"/>
</g>
<!-- e47de21d&#45;f263&#45;4363&#45;afaa&#45;17716893f6c0 -->
<g id="node5" class="node">
<title>e47de21d&#45;f263&#45;4363&#45;afaa&#45;17716893f6c0</title>
<polygon fill="none" stroke="#912cee" points="720.5,-467 633.5,-467 633.5,-431 720.5,-431 720.5,-467"/>
<text text-anchor="middle" x="677" y="-445.3" font-family="Times,serif" font-size="14.00">+echo_task1</text>
</g>
<!-- e3d26c5c&#45;78ff&#45;4071&#45;8a14&#45;680a155ce9ed&#45;&gt;e47de21d&#45;f263&#45;4363&#45;afaa&#45;17716893f6c0 -->
<g id="edge4" class="edge">
<title>e3d26c5c&#45;78ff&#45;4071&#45;8a14&#45;680a155ce9ed&#45;&gt;e47de21d&#45;f263&#45;4363&#45;afaa&#45;17716893f6c0</title>
<path fill="none" stroke="red" d="M677,-502.72C677,-494.97 677,-485.79 677,-477.27"/>
<polygon fill="red" stroke="red" points="680.5,-477 677,-467 673.5,-477 680.5,-477"/>
</g>
<!-- a55f0b5c&#45;be41&#45;491e&#45;aecc&#45;96343455c212 -->
<g id="node8" class="node">
<title>a55f0b5c&#45;be41&#45;491e&#45;aecc&#45;96343455c212</title>
<polygon fill="none" stroke="lightslategray" stroke-width="1.9" points="1050.5,-395 859.5,-395 859.5,-357 1050.5,-357 1050.5,-395"/>
<text text-anchor="middle" x="955" y="-379.8" font-family="Times,serif" font-size="14.00">+echo_task1_child2</text>
<text text-anchor="middle" x="955" y="-364.8" font-family="Times,serif" font-size="14.00">{&#39;echo&gt;&#39;: &#39;this is Child task 2!&#39;}</text>
</g>
<!-- e47de21d&#45;f263&#45;4363&#45;afaa&#45;17716893f6c0&#45;&gt;a55f0b5c&#45;be41&#45;491e&#45;aecc&#45;96343455c212 -->
<g id="edge10" class="edge">
<title>e47de21d&#45;f263&#45;4363&#45;afaa&#45;17716893f6c0&#45;&gt;a55f0b5c&#45;be41&#45;491e&#45;aecc&#45;96343455c212</title>
<path fill="none" stroke="red" d="M720.74,-436.83C761.88,-426.32 824.48,-410.33 874.62,-397.53"/>
<polygon fill="red" stroke="red" points="875.64,-400.88 884.47,-395.01 873.91,-394.1 875.64,-400.88"/>
</g>
<!-- 08db9f6e&#45;88f8&#45;488b&#45;9c73&#45;af56f7c7ce8f -->
<g id="node11" class="node">
<title>08db9f6e&#45;88f8&#45;488b&#45;9c73&#45;af56f7c7ce8f</title>
<polygon fill="none" stroke="lightslategray" stroke-width="1.9" points="841.5,-395 24.5,-395 24.5,-357 841.5,-357 841.5,-395"/>
<text text-anchor="middle" x="433" y="-379.8" font-family="Times,serif" font-size="14.00">+echo_task1_child1</text>
<text text-anchor="middle" x="433" y="-364.8" font-family="Times,serif" font-size="14.00">{&#39;_export&#39;: {&#39;dest_tbl&#39;: &#39;dest_table_name&#39;, &#39;src_db&#39;: &#39;${dbname}&#39;, &#39;src_tbl1&#39;: &#39;${dbname}&#39;, &#39;src_tbl2&#39;: &#39;${dbname}&#39;}, &#39;echo&gt;&#39;: &#39;this is Child task 1!&#39;}</text>
</g>
<!-- e47de21d&#45;f263&#45;4363&#45;afaa&#45;17716893f6c0&#45;&gt;08db9f6e&#45;88f8&#45;488b&#45;9c73&#45;af56f7c7ce8f -->
<g id="edge9" class="edge">
<title>e47de21d&#45;f263&#45;4363&#45;afaa&#45;17716893f6c0&#45;&gt;08db9f6e&#45;88f8&#45;488b&#45;9c73&#45;af56f7c7ce8f</title>
<path fill="none" stroke="red" d="M633.38,-435.31C597.72,-424.93 546.57,-410.05 504.87,-397.91"/>
<polygon fill="red" stroke="red" points="505.62,-394.49 495.04,-395.05 503.66,-401.21 505.62,-394.49"/>
</g>
<!-- f00701d6&#45;13d9&#45;46ef&#45;a5fd&#45;58720cd47798 -->
<g id="node6" class="node">
<title>f00701d6&#45;13d9&#45;46ef&#45;a5fd&#45;58720cd47798</title>
<polygon fill="none" stroke="#8b6914" stroke-width="2" points="631,-321 443,-321 439,-317 439,-238 627,-238 631,-242 631,-321"/>
<polyline fill="none" stroke="#8b6914" stroke-width="2" points="627,-317 439,-317 "/>
<polyline fill="none" stroke="#8b6914" stroke-width="2" points="627,-317 627,-238 "/>
<polyline fill="none" stroke="#8b6914" stroke-width="2" points="627,-317 631,-321 "/>
<text text-anchor="middle" x="535" y="-305.8" font-family="Times,serif" font-size="14.00">_export</text>
<text text-anchor="middle" x="535" y="-290.8" font-family="Times,serif" font-size="14.00">{&quot;dest_tbl&quot;: &quot;dest_table_name&quot;</text>
<text text-anchor="middle" x="535" y="-275.8" font-family="Times,serif" font-size="14.00"> &quot;src_db&quot;: &quot;${dbname}&quot;</text>
<text text-anchor="middle" x="535" y="-260.8" font-family="Times,serif" font-size="14.00"> &quot;src_tbl1&quot;: &quot;${dbname}&quot;</text>
<text text-anchor="middle" x="535" y="-245.8" font-family="Times,serif" font-size="14.00"> &quot;src_tbl2&quot;: &quot;${dbname}&quot;}</text>
</g>
<!-- 5316fb3c&#45;d936&#45;47a6&#45;a29c&#45;87f47f50092e -->
<g id="node7" class="node">
<title>5316fb3c&#45;d936&#45;47a6&#45;a29c&#45;87f47f50092e</title>
<polygon fill="none" stroke="lightslategray" stroke-width="1.9" points="710,-202 474,-202 474,-164 710,-164 710,-202"/>
<text text-anchor="middle" x="592" y="-186.8" font-family="Times,serif" font-size="14.00">+echo_task2</text>
<text text-anchor="middle" x="592" y="-171.8" font-family="Times,serif" font-size="14.00">{&#39;echo&gt;&#39;: &#39;${db_info.global_variable}&#39;}</text>
</g>
<!-- f00701d6&#45;13d9&#45;46ef&#45;a5fd&#45;58720cd47798&#45;&gt;5316fb3c&#45;d936&#45;47a6&#45;a29c&#45;87f47f50092e -->
<g id="edge5" class="edge">
<title>f00701d6&#45;13d9&#45;46ef&#45;a5fd&#45;58720cd47798&#45;&gt;5316fb3c&#45;d936&#45;47a6&#45;a29c&#45;87f47f50092e</title>
<path fill="none" stroke="red" d="M559.5,-237.88C565,-228.76 570.7,-219.32 575.76,-210.93"/>
<polygon fill="red" stroke="red" points="578.79,-212.68 580.96,-202.3 572.8,-209.06 578.79,-212.68"/>
</g>
<!-- cdfa040e&#45;578f&#45;4c44&#45;85bc&#45;7453841a4b84 -->
<g id="node9" class="node">
<title>cdfa040e&#45;578f&#45;4c44&#45;85bc&#45;7453841a4b84</title>
<polygon fill="none" stroke="lightslategray" stroke-width="1.9" points="778,-128 406,-128 406,-90 778,-90 778,-128"/>
<text text-anchor="middle" x="592" y="-112.8" font-family="Times,serif" font-size="14.00">+echo_task3</text>
<text text-anchor="middle" x="592" y="-97.8" font-family="Times,serif" font-size="14.00">{&#39;echo&gt;&#39;: &#39;Source is ${db_info.src} and env is ${db_info.env}&#39;}</text>
</g>
<!-- 5316fb3c&#45;d936&#45;47a6&#45;a29c&#45;87f47f50092e&#45;&gt;cdfa040e&#45;578f&#45;4c44&#45;85bc&#45;7453841a4b84 -->
<g id="edge7" class="edge">
<title>5316fb3c&#45;d936&#45;47a6&#45;a29c&#45;87f47f50092e&#45;&gt;cdfa040e&#45;578f&#45;4c44&#45;85bc&#45;7453841a4b84</title>
<path fill="none" stroke="red" d="M592,-163.83C592,-156.13 592,-146.97 592,-138.42"/>
<polygon fill="red" stroke="red" points="595.5,-138.41 592,-128.41 588.5,-138.41 595.5,-138.41"/>
</g>
<!-- a55f0b5c&#45;be41&#45;491e&#45;aecc&#45;96343455c212&#45;&gt;5316fb3c&#45;d936&#45;47a6&#45;a29c&#45;87f47f50092e -->
<g id="edge6" class="edge">
<title>a55f0b5c&#45;be41&#45;491e&#45;aecc&#45;96343455c212&#45;&gt;5316fb3c&#45;d936&#45;47a6&#45;a29c&#45;87f47f50092e</title>
<path fill="none" stroke="red" d="M920.52,-356.86C853.99,-321.85 708.06,-245.07 635.18,-206.72"/>
<polygon fill="red" stroke="red" points="636.73,-203.58 626.25,-202.02 633.47,-209.77 636.73,-203.58"/>
</g>
<!-- 38fb4ddd&#45;e841&#45;4cff&#45;94a5&#45;5818af2b0f74 -->
<g id="node10" class="node">
<title>38fb4ddd&#45;e841&#45;4cff&#45;94a5&#45;5818af2b0f74</title>
<g id="a_node10"><a xlink:href="../project1/workflow2.html" xlink:title="+call_workflow2&#10;workflow2.dig">
<polygon fill="none" stroke="cornflowerblue" stroke-width="3" points="648,-54 536,-54 536,-16 648,-16 648,-54"/>
<text text-anchor="middle" x="592" y="-38.8" font-family="Times,serif" font-size="14.00">+call_workflow2</text>
<text text-anchor="middle" x="592" y="-23.8" font-family="Times,serif" font-size="14.00">workflow2.dig</text>
</a>
</g>
</g>
<!-- cdfa040e&#45;578f&#45;4c44&#45;85bc&#45;7453841a4b84&#45;&gt;38fb4ddd&#45;e841&#45;4cff&#45;94a5&#45;5818af2b0f74 -->
<g id="edge8" class="edge">
<title>cdfa040e&#45;578f&#45;4c44&#45;85bc&#45;7453841a4b84&#45;&gt;38fb4ddd&#45;e841&#45;4cff&#45;94a5&#45;5818af2b0f74</title>
<path fill="none" stroke="red" d="M592,-89.83C592,-82.13 592,-72.97 592,-64.42"/>
<polygon fill="red" stroke="red" points="595.5,-64.41 592,-54.41 588.5,-64.41 595.5,-64.41"/>
</g>
<!-- 08db9f6e&#45;88f8&#45;488b&#45;9c73&#45;af56f7c7ce8f&#45;&gt;f00701d6&#45;13d9&#45;46ef&#45;a5fd&#45;58720cd47798 -->
<g id="edge11" class="edge">
<title>08db9f6e&#45;88f8&#45;488b&#45;9c73&#45;af56f7c7ce8f&#45;&gt;f00701d6&#45;13d9&#45;46ef&#45;a5fd&#45;58720cd47798</title>
<path fill="none" stroke="red" d="M452.67,-356.78C461.51,-348.59 472.4,-338.49 483.34,-328.36"/>
<polygon fill="red" stroke="red" points="485.93,-330.73 490.89,-321.37 481.18,-325.59 485.93,-330.73"/>
</g>
</g>
</svg>
