<?xml version="1.0" encoding="UTF-8" standalone="no"?>
<!DOCTYPE svg PUBLIC "-//W3C//DTD SVG 1.1//EN"
 "http://www.w3.org/Graphics/SVG/1.1/DTD/svg11.dtd">
<!-- Generated by graphviz version 2.48.0 (20210717.1556)
 -->
<!-- Pages: 1 -->
<svg width="333pt" height="566pt"
 viewBox="0.00 0.00 333.00 566.00" xmlns="http://www.w3.org/2000/svg" xmlns:xlink="http://www.w3.org/1999/xlink">
<g id="graph0" class="graph" transform="scale(1 1) rotate(0) translate(4 562)">
<polygon fill="white" stroke="transparent" points="-4,4 -4,-562 329,-562 329,4 -4,4"/>
<g id="clust1" class="cluster">
<title>cluster&#45;f54c6a4d&#45;2678&#45;43a7&#45;b73b&#45;d508cbb62cd6</title>
<polygon fill="none" stroke="black" points="8,-8 8,-494 317,-494 317,-8 8,-8"/>
</g>
<g id="clust4" class="cluster">
<title>cluster&#45;16e05054&#45;a95d&#45;4d6d&#45;b89f&#45;0f7a71d8a038</title>
<polygon fill="none" stroke="black" points="16,-226 16,-278 309,-278 309,-226 16,-226"/>
</g>
<!-- 0f3f358c&#45;88b8&#45;4c29&#45;b396&#45;7003d4ccf72e -->
<g id="node1" class="node">
<title>0f3f358c&#45;88b8&#45;4c29&#45;b396&#45;7003d4ccf72e</title>
<g id="a_node1"><a xlink:href="../../index.html" xlink:title="Click to HomePage">
<polygon fill="none" stroke="#ff3030" stroke-width="3" points="225,-558 99,-558 99,-522 225,-522 225,-558"/>
<text text-anchor="middle" x="162" y="-536.3" font-family="Times,serif" font-size="14.00">Click to HomePage</text>
</a>
</g>
</g>
<!-- d7cf6b6c&#45;2aa8&#45;47b8&#45;b56c&#45;860cbfa44978 -->
<g id="node2" class="node">
<title>d7cf6b6c&#45;2aa8&#45;47b8&#45;b56c&#45;860cbfa44978</title>
<polygon fill="none" stroke="mediumspringgreen" points="233,-486 91,-486 91,-450 233,-450 233,-486"/>
<text text-anchor="middle" x="162" y="-464.3" font-family="Times,serif" font-size="14.00">America/Los_Angeles</text>
</g>
<!-- 0f3f358c&#45;88b8&#45;4c29&#45;b396&#45;7003d4ccf72e&#45;&gt;d7cf6b6c&#45;2aa8&#45;47b8&#45;b56c&#45;860cbfa44978 -->
<g id="edge1" class="edge">
<title>0f3f358c&#45;88b8&#45;4c29&#45;b396&#45;7003d4ccf72e&#45;&gt;d7cf6b6c&#45;2aa8&#45;47b8&#45;b56c&#45;860cbfa44978</title>
<path fill="none" stroke="red" d="M162,-521.7C162,-513.98 162,-504.71 162,-496.11"/>
<polygon fill="red" stroke="red" points="165.5,-496.1 162,-486.1 158.5,-496.1 165.5,-496.1"/>
</g>
<!-- c9a8880f&#45;82f2&#45;4030&#45;b15e&#45;b67e0f9d3561 -->
<g id="node3" class="node">
<title>c9a8880f&#45;82f2&#45;4030&#45;b15e&#45;b67e0f9d3561</title>
<polygon fill="none" stroke="#ff00ff" points="245,-414 79,-414 79,-378 245,-378 245,-414"/>
<text text-anchor="middle" x="162" y="-392.3" font-family="Times,serif" font-size="14.00">{&quot;cron&gt;&quot;: &quot;30 6,18 * * *&quot;}</text>
</g>
<!-- d7cf6b6c&#45;2aa8&#45;47b8&#45;b56c&#45;860cbfa44978&#45;&gt;c9a8880f&#45;82f2&#45;4030&#45;b15e&#45;b67e0f9d3561 -->
<g id="edge2" class="edge">
<title>d7cf6b6c&#45;2aa8&#45;47b8&#45;b56c&#45;860cbfa44978&#45;&gt;c9a8880f&#45;82f2&#45;4030&#45;b15e&#45;b67e0f9d3561</title>
<path fill="none" stroke="red" d="M162,-449.7C162,-441.98 162,-432.71 162,-424.11"/>
<polygon fill="red" stroke="red" points="165.5,-424.1 162,-414.1 158.5,-424.1 165.5,-424.1"/>
</g>
<!-- 592da671&#45;50ce&#45;4c8d&#45;9f30&#45;28fc721c3288 -->
<g id="node4" class="node">
<title>592da671&#45;50ce&#45;4c8d&#45;9f30&#45;28fc721c3288</title>
<polygon fill="none" stroke="#ff3030" stroke-width="3" points="205.5,-342 118.5,-342 118.5,-306 205.5,-306 205.5,-342"/>
<text text-anchor="middle" x="162" y="-320.3" font-family="Times,serif" font-size="14.00">+echo_task1</text>
</g>
<!-- c9a8880f&#45;82f2&#45;4030&#45;b15e&#45;b67e0f9d3561&#45;&gt;592da671&#45;50ce&#45;4c8d&#45;9f30&#45;28fc721c3288 -->
<g id="edge3" class="edge">
<title>c9a8880f&#45;82f2&#45;4030&#45;b15e&#45;b67e0f9d3561&#45;&gt;592da671&#45;50ce&#45;4c8d&#45;9f30&#45;28fc721c3288</title>
<path fill="none" stroke="red" d="M162,-377.7C162,-369.98 162,-360.71 162,-352.11"/>
<polygon fill="red" stroke="red" points="165.5,-352.1 162,-342.1 158.5,-352.1 165.5,-352.1"/>
</g>
<!-- 663f0733&#45;e13f&#45;4c75&#45;8eb9&#45;2e4d06fec966 -->
<g id="node5" class="node">
<title>663f0733&#45;e13f&#45;4c75&#45;8eb9&#45;2e4d06fec966</title>
<polygon fill="none" stroke="orangered" points="300.5,-270 171.5,-270 171.5,-234 300.5,-234 300.5,-270"/>
<text text-anchor="middle" x="236" y="-248.3" font-family="Times,serif" font-size="14.00">+echo_task1_child1</text>
</g>
<!-- 592da671&#45;50ce&#45;4c8d&#45;9f30&#45;28fc721c3288&#45;&gt;663f0733&#45;e13f&#45;4c75&#45;8eb9&#45;2e4d06fec966 -->
<g id="edge8" class="edge">
<title>592da671&#45;50ce&#45;4c8d&#45;9f30&#45;28fc721c3288&#45;&gt;663f0733&#45;e13f&#45;4c75&#45;8eb9&#45;2e4d06fec966</title>
<path fill="none" stroke="red" d="M180.29,-305.7C189.43,-297.05 200.64,-286.45 210.6,-277.03"/>
<polygon fill="red" stroke="red" points="213.06,-279.52 217.92,-270.1 208.25,-274.43 213.06,-279.52"/>
</g>
<!-- ec06a1dc&#45;c29d&#45;4f63&#45;8bd7&#45;7c35b7f0b4d3 -->
<g id="node7" class="node">
<title>ec06a1dc&#45;c29d&#45;4f63&#45;8bd7&#45;7c35b7f0b4d3</title>
<polygon fill="none" stroke="orangered" points="153.5,-270 24.5,-270 24.5,-234 153.5,-234 153.5,-270"/>
<text text-anchor="middle" x="89" y="-248.3" font-family="Times,serif" font-size="14.00">+echo_task1_child2</text>
</g>
<!-- 592da671&#45;50ce&#45;4c8d&#45;9f30&#45;28fc721c3288&#45;&gt;ec06a1dc&#45;c29d&#45;4f63&#45;8bd7&#45;7c35b7f0b4d3 -->
<g id="edge9" class="edge">
<title>592da671&#45;50ce&#45;4c8d&#45;9f30&#45;28fc721c3288&#45;&gt;ec06a1dc&#45;c29d&#45;4f63&#45;8bd7&#45;7c35b7f0b4d3</title>
<path fill="none" stroke="red" d="M143.96,-305.7C134.94,-297.05 123.88,-286.45 114.06,-277.03"/>
<polygon fill="red" stroke="red" points="116.48,-274.5 106.84,-270.1 111.63,-279.55 116.48,-274.5"/>
</g>
<!-- 47a75fe6&#45;563f&#45;491e&#45;8fd0&#45;f8a42b3d1ba9 -->
<g id="node6" class="node">
<title>47a75fe6&#45;563f&#45;491e&#45;8fd0&#45;f8a42b3d1ba9</title>
<polygon fill="none" stroke="orangered" points="205.5,-198 118.5,-198 118.5,-162 205.5,-162 205.5,-198"/>
<text text-anchor="middle" x="162" y="-176.3" font-family="Times,serif" font-size="14.00">+echo_task2</text>
</g>
<!-- 663f0733&#45;e13f&#45;4c75&#45;8eb9&#45;2e4d06fec966&#45;&gt;47a75fe6&#45;563f&#45;491e&#45;8fd0&#45;f8a42b3d1ba9 -->
<g id="edge4" class="edge">
<title>663f0733&#45;e13f&#45;4c75&#45;8eb9&#45;2e4d06fec966&#45;&gt;47a75fe6&#45;563f&#45;491e&#45;8fd0&#45;f8a42b3d1ba9</title>
<path fill="none" stroke="red" d="M217.71,-233.7C208.57,-225.05 197.36,-214.45 187.4,-205.03"/>
<polygon fill="red" stroke="red" points="189.75,-202.43 180.08,-198.1 184.94,-207.52 189.75,-202.43"/>
</g>
<!-- b0b0c865&#45;71a5&#45;487e&#45;a016&#45;e225c945ef16 -->
<g id="node8" class="node">
<title>b0b0c865&#45;71a5&#45;487e&#45;a016&#45;e225c945ef16</title>
<polygon fill="none" stroke="orangered" points="205.5,-126 118.5,-126 118.5,-90 205.5,-90 205.5,-126"/>
<text text-anchor="middle" x="162" y="-104.3" font-family="Times,serif" font-size="14.00">+echo_task3</text>
</g>
<!-- 47a75fe6&#45;563f&#45;491e&#45;8fd0&#45;f8a42b3d1ba9&#45;&gt;b0b0c865&#45;71a5&#45;487e&#45;a016&#45;e225c945ef16 -->
<g id="edge6" class="edge">
<title>47a75fe6&#45;563f&#45;491e&#45;8fd0&#45;f8a42b3d1ba9&#45;&gt;b0b0c865&#45;71a5&#45;487e&#45;a016&#45;e225c945ef16</title>
<path fill="none" stroke="red" d="M162,-161.7C162,-153.98 162,-144.71 162,-136.11"/>
<polygon fill="red" stroke="red" points="165.5,-136.1 162,-126.1 158.5,-136.1 165.5,-136.1"/>
</g>
<!-- ec06a1dc&#45;c29d&#45;4f63&#45;8bd7&#45;7c35b7f0b4d3&#45;&gt;47a75fe6&#45;563f&#45;491e&#45;8fd0&#45;f8a42b3d1ba9 -->
<g id="edge5" class="edge">
<title>ec06a1dc&#45;c29d&#45;4f63&#45;8bd7&#45;7c35b7f0b4d3&#45;&gt;47a75fe6&#45;563f&#45;491e&#45;8fd0&#45;f8a42b3d1ba9</title>
<path fill="none" stroke="red" d="M107.04,-233.7C116.06,-225.05 127.12,-214.45 136.94,-205.03"/>
<polygon fill="red" stroke="red" points="139.37,-207.55 144.16,-198.1 134.52,-202.5 139.37,-207.55"/>
</g>
<!-- dbef065e&#45;2bfa&#45;4e12&#45;ac53&#45;7edbd01c509e -->
<g id="node9" class="node">
<title>dbef065e&#45;2bfa&#45;4e12&#45;ac53&#45;7edbd01c509e</title>
<g id="a_node9"><a xlink:href="../project1/workflow2.html" xlink:title="+call_workflow2&#10;workflow2.dig">
<polygon fill="none" stroke="#ff3030" stroke-width="3" points="218,-54 106,-54 106,-16 218,-16 218,-54"/>
<text text-anchor="middle" x="162" y="-38.8" font-family="Times,serif" font-size="14.00">+call_workflow2</text>
<text text-anchor="middle" x="162" y="-23.8" font-family="Times,serif" font-size="14.00">workflow2.dig</text>
</a>
</g>
</g>
<!-- b0b0c865&#45;71a5&#45;487e&#45;a016&#45;e225c945ef16&#45;&gt;dbef065e&#45;2bfa&#45;4e12&#45;ac53&#45;7edbd01c509e -->
<g id="edge7" class="edge">
<title>b0b0c865&#45;71a5&#45;487e&#45;a016&#45;e225c945ef16&#45;&gt;dbef065e&#45;2bfa&#45;4e12&#45;ac53&#45;7edbd01c509e</title>
<path fill="none" stroke="red" d="M162,-89.81C162,-82.11 162,-72.82 162,-64.15"/>
<polygon fill="red" stroke="red" points="165.5,-64.02 162,-54.02 158.5,-64.02 165.5,-64.02"/>
</g>
</g>
</svg>
