<?xml version="1.0" encoding="UTF-8" standalone="no"?>
<!DOCTYPE svg PUBLIC "-//W3C//DTD SVG 1.1//EN"
 "http://www.w3.org/Graphics/SVG/1.1/DTD/svg11.dtd">
<!-- Generated by graphviz version 2.48.0 (20210717.1556)
 -->
<!-- Pages: 1 -->
<svg width="206pt" height="496pt"
 viewBox="0.00 0.00 206.00 496.00" xmlns="http://www.w3.org/2000/svg" xmlns:xlink="http://www.w3.org/1999/xlink">
<g id="graph0" class="graph" transform="scale(1 1) rotate(0) translate(4 492)">
<polygon fill="white" stroke="transparent" points="-4,4 -4,-492 202,-492 202,4 -4,4"/>
<g id="clust1" class="cluster">
<title>cluster&#45;227a2f9d&#45;9fdf&#45;4103&#45;8243&#45;8288ac1e2d0f</title>
<polygon fill="none" stroke="black" points="8,-8 8,-424 190,-424 190,-8 8,-8"/>
</g>
<!-- 60cf816d&#45;79db&#45;48b2&#45;aeeb&#45;58aceed4fa2b -->
<g id="node1" class="node">
<title>60cf816d&#45;79db&#45;48b2&#45;aeeb&#45;58aceed4fa2b</title>
<g id="a_node1"><a xlink:href="../../index.html" xlink:title="Click to HomePage">
<polygon fill="none" stroke="#ff3030" stroke-width="3" points="162,-488 36,-488 36,-452 162,-452 162,-488"/>
<text text-anchor="middle" x="99" y="-466.3" font-family="Times,serif" font-size="14.00">Click to HomePage</text>
</a>
</g>
</g>
<!-- b2d6ce76&#45;c07c&#45;41fe&#45;9c36&#45;e5617d023e7a -->
<g id="node2" class="node">
<title>b2d6ce76&#45;c07c&#45;41fe&#45;9c36&#45;e5617d023e7a</title>
<polygon fill="none" stroke="mediumspringgreen" points="170,-416 28,-416 28,-380 170,-380 170,-416"/>
<text text-anchor="middle" x="99" y="-394.3" font-family="Times,serif" font-size="14.00">America/Los_Angeles</text>
</g>
<!-- 60cf816d&#45;79db&#45;48b2&#45;aeeb&#45;58aceed4fa2b&#45;&gt;b2d6ce76&#45;c07c&#45;41fe&#45;9c36&#45;e5617d023e7a -->
<g id="edge1" class="edge">
<title>60cf816d&#45;79db&#45;48b2&#45;aeeb&#45;58aceed4fa2b&#45;&gt;b2d6ce76&#45;c07c&#45;41fe&#45;9c36&#45;e5617d023e7a</title>
<path fill="none" stroke="red" d="M99,-451.7C99,-443.98 99,-434.71 99,-426.11"/>
<polygon fill="red" stroke="red" points="102.5,-426.1 99,-416.1 95.5,-426.1 102.5,-426.1"/>
</g>
<!-- 1373e498&#45;43d8&#45;462e&#45;884c&#45;1984ecff1b98 -->
<g id="node3" class="node">
<title>1373e498&#45;43d8&#45;462e&#45;884c&#45;1984ecff1b98</title>
<polygon fill="none" stroke="orangered" points="142.5,-344 55.5,-344 55.5,-308 142.5,-308 142.5,-344"/>
<text text-anchor="middle" x="99" y="-322.3" font-family="Times,serif" font-size="14.00">+echo_task1</text>
</g>
<!-- b2d6ce76&#45;c07c&#45;41fe&#45;9c36&#45;e5617d023e7a&#45;&gt;1373e498&#45;43d8&#45;462e&#45;884c&#45;1984ecff1b98 -->
<g id="edge2" class="edge">
<title>b2d6ce76&#45;c07c&#45;41fe&#45;9c36&#45;e5617d023e7a&#45;&gt;1373e498&#45;43d8&#45;462e&#45;884c&#45;1984ecff1b98</title>
<path fill="none" stroke="red" d="M99,-379.7C99,-371.98 99,-362.71 99,-354.11"/>
<polygon fill="red" stroke="red" points="102.5,-354.1 99,-344.1 95.5,-354.1 102.5,-354.1"/>
</g>
<!-- 6f88cc38&#45;efe7&#45;4afd&#45;9ca4&#45;32fbc0e0d1d4 -->
<g id="node4" class="node">
<title>6f88cc38&#45;efe7&#45;4afd&#45;9ca4&#45;32fbc0e0d1d4</title>
<polygon fill="none" stroke="orangered" points="142.5,-272 55.5,-272 55.5,-236 142.5,-236 142.5,-272"/>
<text text-anchor="middle" x="99" y="-250.3" font-family="Times,serif" font-size="14.00">+echo_task2</text>
</g>
<!-- 1373e498&#45;43d8&#45;462e&#45;884c&#45;1984ecff1b98&#45;&gt;6f88cc38&#45;efe7&#45;4afd&#45;9ca4&#45;32fbc0e0d1d4 -->
<g id="edge3" class="edge">
<title>1373e498&#45;43d8&#45;462e&#45;884c&#45;1984ecff1b98&#45;&gt;6f88cc38&#45;efe7&#45;4afd&#45;9ca4&#45;32fbc0e0d1d4</title>
<path fill="none" stroke="red" d="M99,-307.7C99,-299.98 99,-290.71 99,-282.11"/>
<polygon fill="red" stroke="red" points="102.5,-282.1 99,-272.1 95.5,-282.1 102.5,-282.1"/>
</g>
<!-- 3087a1c0&#45;21f6&#45;41b4&#45;8600&#45;c6716b198eef -->
<g id="node5" class="node">
<title>3087a1c0&#45;21f6&#45;41b4&#45;8600&#45;c6716b198eef</title>
<polygon fill="none" stroke="orangered" points="142.5,-200 55.5,-200 55.5,-164 142.5,-164 142.5,-200"/>
<text text-anchor="middle" x="99" y="-178.3" font-family="Times,serif" font-size="14.00">+echo_task3</text>
</g>
<!-- 6f88cc38&#45;efe7&#45;4afd&#45;9ca4&#45;32fbc0e0d1d4&#45;&gt;3087a1c0&#45;21f6&#45;41b4&#45;8600&#45;c6716b198eef -->
<g id="edge4" class="edge">
<title>6f88cc38&#45;efe7&#45;4afd&#45;9ca4&#45;32fbc0e0d1d4&#45;&gt;3087a1c0&#45;21f6&#45;41b4&#45;8600&#45;c6716b198eef</title>
<path fill="none" stroke="red" d="M99,-235.7C99,-227.98 99,-218.71 99,-210.11"/>
<polygon fill="red" stroke="red" points="102.5,-210.1 99,-200.1 95.5,-210.1 102.5,-210.1"/>
</g>
<!-- 88b6972a&#45;c3e5&#45;4ec1&#45;ae1b&#45;b0a68c75dce6 -->
<g id="node6" class="node">
<title>88b6972a&#45;c3e5&#45;4ec1&#45;ae1b&#45;b0a68c75dce6</title>
<polygon fill="none" stroke="blue" points="163,-128 35,-128 35,-90 163,-90 163,-128"/>
<text text-anchor="middle" x="99" y="-112.8" font-family="Times,serif" font-size="14.00">+run_query1</text>
<text text-anchor="middle" x="99" y="-97.8" font-family="Times,serif" font-size="14.00">queries/example.sql</text>
</g>
<!-- 3087a1c0&#45;21f6&#45;41b4&#45;8600&#45;c6716b198eef&#45;&gt;88b6972a&#45;c3e5&#45;4ec1&#45;ae1b&#45;b0a68c75dce6 -->
<g id="edge5" class="edge">
<title>3087a1c0&#45;21f6&#45;41b4&#45;8600&#45;c6716b198eef&#45;&gt;88b6972a&#45;c3e5&#45;4ec1&#45;ae1b&#45;b0a68c75dce6</title>
<path fill="none" stroke="red" d="M99,-163.81C99,-156.11 99,-146.82 99,-138.15"/>
<polygon fill="red" stroke="red" points="102.5,-138.02 99,-128.02 95.5,-138.02 102.5,-138.02"/>
</g>
<!-- 08501850&#45;a471&#45;42fd&#45;b3ed&#45;d295ce73dfef -->
<g id="node7" class="node">
<title>08501850&#45;a471&#45;42fd&#45;b3ed&#45;d295ce73dfef</title>
<g id="a_node7"><a xlink:href="../project2/workflow3.html" xlink:title="+call_project3_workflow3&#10;workflow3.dig">
<polygon fill="none" stroke="#ff3030" stroke-width="3" points="181.5,-54 16.5,-54 16.5,-16 181.5,-16 181.5,-54"/>
<text text-anchor="middle" x="99" y="-38.8" font-family="Times,serif" font-size="14.00">+call_project3_workflow3</text>
<text text-anchor="middle" x="99" y="-23.8" font-family="Times,serif" font-size="14.00">workflow3.dig</text>
</a>
</g>
</g>
<!-- 88b6972a&#45;c3e5&#45;4ec1&#45;ae1b&#45;b0a68c75dce6&#45;&gt;08501850&#45;a471&#45;42fd&#45;b3ed&#45;d295ce73dfef -->
<g id="edge6" class="edge">
<title>88b6972a&#45;c3e5&#45;4ec1&#45;ae1b&#45;b0a68c75dce6&#45;&gt;08501850&#45;a471&#45;42fd&#45;b3ed&#45;d295ce73dfef</title>
<path fill="none" stroke="red" d="M99,-89.83C99,-82.13 99,-72.97 99,-64.42"/>
<polygon fill="red" stroke="red" points="102.5,-64.41 99,-54.41 95.5,-64.41 102.5,-64.41"/>
</g>
</g>
</svg>
