<?xml version="1.0" encoding="UTF-8" standalone="no"?>
<!DOCTYPE svg PUBLIC "-//W3C//DTD SVG 1.1//EN"
 "http://www.w3.org/Graphics/SVG/1.1/DTD/svg11.dtd">
<!-- Generated by graphviz version 2.48.0 (20210717.1556)
 -->
<!-- Pages: 1 -->
<svg width="333pt" height="566pt"
 viewBox="0.00 0.00 333.00 566.00" xmlns="http://www.w3.org/2000/svg" xmlns:xlink="http://www.w3.org/1999/xlink">
<g id="graph0" class="graph" transform="scale(1 1) rotate(0) translate(4 562)">
<polygon fill="white" stroke="transparent" points="-4,4 -4,-562 329,-562 329,4 -4,4"/>
<g id="clust1" class="cluster">
<title>cluster&#45;8252afe2&#45;b0d6&#45;446e&#45;a8b2&#45;60ede93158be</title>
<polygon fill="none" stroke="black" points="8,-8 8,-494 317,-494 317,-8 8,-8"/>
</g>
<g id="clust4" class="cluster">
<title>cluster&#45;8e02c7cd&#45;b0ec&#45;49b4&#45;9765&#45;5d097d446545</title>
<polygon fill="none" stroke="black" points="16,-226 16,-278 309,-278 309,-226 16,-226"/>
</g>
<!-- 1cdbb01c&#45;f768&#45;4fec&#45;83ac&#45;1fcb316ab03b -->
<g id="node1" class="node">
<title>1cdbb01c&#45;f768&#45;4fec&#45;83ac&#45;1fcb316ab03b</title>
<g id="a_node1"><a xlink:href="../../index.html" xlink:title="Click to HomePage">
<polygon fill="none" stroke="#ff3030" stroke-width="3" points="225,-558 99,-558 99,-522 225,-522 225,-558"/>
<text text-anchor="middle" x="162" y="-536.3" font-family="Times,serif" font-size="14.00">Click to HomePage</text>
</a>
</g>
</g>
<!-- 5e7c74ff&#45;b10d&#45;4845&#45;85e5&#45;966e213bd32f -->
<g id="node2" class="node">
<title>5e7c74ff&#45;b10d&#45;4845&#45;85e5&#45;966e213bd32f</title>
<g id="a_node2"><a xlink:href="../../index.html" xlink:title="America/Los_Angeles">
<polygon fill="none" stroke="mediumspringgreen" points="233,-486 91,-486 91,-450 233,-450 233,-486"/>
<text text-anchor="middle" x="162" y="-464.3" font-family="Times,serif" font-size="14.00">America/Los_Angeles</text>
</a>
</g>
</g>
<!-- 1cdbb01c&#45;f768&#45;4fec&#45;83ac&#45;1fcb316ab03b&#45;&gt;5e7c74ff&#45;b10d&#45;4845&#45;85e5&#45;966e213bd32f -->
<g id="edge1" class="edge">
<title>1cdbb01c&#45;f768&#45;4fec&#45;83ac&#45;1fcb316ab03b&#45;&gt;5e7c74ff&#45;b10d&#45;4845&#45;85e5&#45;966e213bd32f</title>
<path fill="none" stroke="red" d="M162,-521.7C162,-513.98 162,-504.71 162,-496.11"/>
<polygon fill="red" stroke="red" points="165.5,-496.1 162,-486.1 158.5,-496.1 165.5,-496.1"/>
</g>
<!-- fecb4e91&#45;5c0d&#45;47f4&#45;90b9&#45;39e3f3772db0 -->
<g id="node3" class="node">
<title>fecb4e91&#45;5c0d&#45;47f4&#45;90b9&#45;39e3f3772db0</title>
<g id="a_node3"><a xlink:href="../../index.html" xlink:title="{&quot;cron&gt;&quot;: &quot;30 6,18 * * *&quot;}">
<polygon fill="none" stroke="#ff00ff" points="245,-414 79,-414 79,-378 245,-378 245,-414"/>
<text text-anchor="middle" x="162" y="-392.3" font-family="Times,serif" font-size="14.00">{&quot;cron&gt;&quot;: &quot;30 6,18 * * *&quot;}</text>
</a>
</g>
</g>
<!-- 5e7c74ff&#45;b10d&#45;4845&#45;85e5&#45;966e213bd32f&#45;&gt;fecb4e91&#45;5c0d&#45;47f4&#45;90b9&#45;39e3f3772db0 -->
<g id="edge2" class="edge">
<title>5e7c74ff&#45;b10d&#45;4845&#45;85e5&#45;966e213bd32f&#45;&gt;fecb4e91&#45;5c0d&#45;47f4&#45;90b9&#45;39e3f3772db0</title>
<path fill="none" stroke="red" d="M162,-449.7C162,-441.98 162,-432.71 162,-424.11"/>
<polygon fill="red" stroke="red" points="165.5,-424.1 162,-414.1 158.5,-424.1 165.5,-424.1"/>
</g>
<!-- 97c22ff7&#45;8e3d&#45;4a80&#45;87f5&#45;957606bfc6ac -->
<g id="node4" class="node">
<title>97c22ff7&#45;8e3d&#45;4a80&#45;87f5&#45;957606bfc6ac</title>
<g id="a_node4"><a xlink:href="../../index.html" xlink:title="+echo_task1">
<polygon fill="none" stroke="#ff3030" stroke-width="3" points="205.5,-342 118.5,-342 118.5,-306 205.5,-306 205.5,-342"/>
<text text-anchor="middle" x="162" y="-320.3" font-family="Times,serif" font-size="14.00">+echo_task1</text>
</a>
</g>
</g>
<!-- fecb4e91&#45;5c0d&#45;47f4&#45;90b9&#45;39e3f3772db0&#45;&gt;97c22ff7&#45;8e3d&#45;4a80&#45;87f5&#45;957606bfc6ac -->
<g id="edge3" class="edge">
<title>fecb4e91&#45;5c0d&#45;47f4&#45;90b9&#45;39e3f3772db0&#45;&gt;97c22ff7&#45;8e3d&#45;4a80&#45;87f5&#45;957606bfc6ac</title>
<path fill="none" stroke="red" d="M162,-377.7C162,-369.98 162,-360.71 162,-352.11"/>
<polygon fill="red" stroke="red" points="165.5,-352.1 162,-342.1 158.5,-352.1 165.5,-352.1"/>
</g>
<!-- e0acf319&#45;cee5&#45;470c&#45;aaff&#45;8e16013da784 -->
<g id="node5" class="node">
<title>e0acf319&#45;cee5&#45;470c&#45;aaff&#45;8e16013da784</title>
<g id="a_node5"><a xlink:href="../../index.html" xlink:title="+echo_task1_child1">
<polygon fill="none" stroke="orangered" points="300.5,-270 171.5,-270 171.5,-234 300.5,-234 300.5,-270"/>
<text text-anchor="middle" x="236" y="-248.3" font-family="Times,serif" font-size="14.00">+echo_task1_child1</text>
</a>
</g>
</g>
<!-- 97c22ff7&#45;8e3d&#45;4a80&#45;87f5&#45;957606bfc6ac&#45;&gt;e0acf319&#45;cee5&#45;470c&#45;aaff&#45;8e16013da784 -->
<g id="edge8" class="edge">
<title>97c22ff7&#45;8e3d&#45;4a80&#45;87f5&#45;957606bfc6ac&#45;&gt;e0acf319&#45;cee5&#45;470c&#45;aaff&#45;8e16013da784</title>
<path fill="none" stroke="red" d="M180.29,-305.7C189.43,-297.05 200.64,-286.45 210.6,-277.03"/>
<polygon fill="red" stroke="red" points="213.06,-279.52 217.92,-270.1 208.25,-274.43 213.06,-279.52"/>
</g>
<!-- 4da91efb&#45;776b&#45;4fa2&#45;b2c6&#45;e3349ea52915 -->
<g id="node7" class="node">
<title>4da91efb&#45;776b&#45;4fa2&#45;b2c6&#45;e3349ea52915</title>
<g id="a_node7"><a xlink:href="../../index.html" xlink:title="+echo_task1_child2">
<polygon fill="none" stroke="orangered" points="153.5,-270 24.5,-270 24.5,-234 153.5,-234 153.5,-270"/>
<text text-anchor="middle" x="89" y="-248.3" font-family="Times,serif" font-size="14.00">+echo_task1_child2</text>
</a>
</g>
</g>
<!-- 97c22ff7&#45;8e3d&#45;4a80&#45;87f5&#45;957606bfc6ac&#45;&gt;4da91efb&#45;776b&#45;4fa2&#45;b2c6&#45;e3349ea52915 -->
<g id="edge9" class="edge">
<title>97c22ff7&#45;8e3d&#45;4a80&#45;87f5&#45;957606bfc6ac&#45;&gt;4da91efb&#45;776b&#45;4fa2&#45;b2c6&#45;e3349ea52915</title>
<path fill="none" stroke="red" d="M143.96,-305.7C134.94,-297.05 123.88,-286.45 114.06,-277.03"/>
<polygon fill="red" stroke="red" points="116.48,-274.5 106.84,-270.1 111.63,-279.55 116.48,-274.5"/>
</g>
<!-- e28a3fe8&#45;aebd&#45;4753&#45;b74c&#45;e3bea9018660 -->
<g id="node6" class="node">
<title>e28a3fe8&#45;aebd&#45;4753&#45;b74c&#45;e3bea9018660</title>
<g id="a_node6"><a xlink:href="../../index.html" xlink:title="+echo_task2">
<polygon fill="none" stroke="orangered" points="205.5,-198 118.5,-198 118.5,-162 205.5,-162 205.5,-198"/>
<text text-anchor="middle" x="162" y="-176.3" font-family="Times,serif" font-size="14.00">+echo_task2</text>
</a>
</g>
</g>
<!-- e0acf319&#45;cee5&#45;470c&#45;aaff&#45;8e16013da784&#45;&gt;e28a3fe8&#45;aebd&#45;4753&#45;b74c&#45;e3bea9018660 -->
<g id="edge4" class="edge">
<title>e0acf319&#45;cee5&#45;470c&#45;aaff&#45;8e16013da784&#45;&gt;e28a3fe8&#45;aebd&#45;4753&#45;b74c&#45;e3bea9018660</title>
<path fill="none" stroke="red" d="M217.71,-233.7C208.57,-225.05 197.36,-214.45 187.4,-205.03"/>
<polygon fill="red" stroke="red" points="189.75,-202.43 180.08,-198.1 184.94,-207.52 189.75,-202.43"/>
</g>
<!-- 1ab452e7&#45;0202&#45;4556&#45;b5f3&#45;df331cb8d2df -->
<g id="node8" class="node">
<title>1ab452e7&#45;0202&#45;4556&#45;b5f3&#45;df331cb8d2df</title>
<g id="a_node8"><a xlink:href="../../index.html" xlink:title="+echo_task3">
<polygon fill="none" stroke="orangered" points="205.5,-126 118.5,-126 118.5,-90 205.5,-90 205.5,-126"/>
<text text-anchor="middle" x="162" y="-104.3" font-family="Times,serif" font-size="14.00">+echo_task3</text>
</a>
</g>
</g>
<!-- e28a3fe8&#45;aebd&#45;4753&#45;b74c&#45;e3bea9018660&#45;&gt;1ab452e7&#45;0202&#45;4556&#45;b5f3&#45;df331cb8d2df -->
<g id="edge6" class="edge">
<title>e28a3fe8&#45;aebd&#45;4753&#45;b74c&#45;e3bea9018660&#45;&gt;1ab452e7&#45;0202&#45;4556&#45;b5f3&#45;df331cb8d2df</title>
<path fill="none" stroke="red" d="M162,-161.7C162,-153.98 162,-144.71 162,-136.11"/>
<polygon fill="red" stroke="red" points="165.5,-136.1 162,-126.1 158.5,-136.1 165.5,-136.1"/>
</g>
<!-- 4da91efb&#45;776b&#45;4fa2&#45;b2c6&#45;e3349ea52915&#45;&gt;e28a3fe8&#45;aebd&#45;4753&#45;b74c&#45;e3bea9018660 -->
<g id="edge5" class="edge">
<title>4da91efb&#45;776b&#45;4fa2&#45;b2c6&#45;e3349ea52915&#45;&gt;e28a3fe8&#45;aebd&#45;4753&#45;b74c&#45;e3bea9018660</title>
<path fill="none" stroke="red" d="M107.04,-233.7C116.06,-225.05 127.12,-214.45 136.94,-205.03"/>
<polygon fill="red" stroke="red" points="139.37,-207.55 144.16,-198.1 134.52,-202.5 139.37,-207.55"/>
</g>
<!-- 118ef502&#45;13b0&#45;4343&#45;a4f7&#45;238a3f31da86 -->
<g id="node9" class="node">
<title>118ef502&#45;13b0&#45;4343&#45;a4f7&#45;238a3f31da86</title>
<g id="a_node9"><a xlink:href="../project1/workflow2.html" xlink:title="+call_workflow2&#10;workflow2.dig">
<polygon fill="none" stroke="#ff3030" stroke-width="3" points="218,-54 106,-54 106,-16 218,-16 218,-54"/>
<text text-anchor="middle" x="162" y="-38.8" font-family="Times,serif" font-size="14.00">+call_workflow2</text>
<text text-anchor="middle" x="162" y="-23.8" font-family="Times,serif" font-size="14.00">workflow2.dig</text>
</a>
</g>
</g>
<!-- 1ab452e7&#45;0202&#45;4556&#45;b5f3&#45;df331cb8d2df&#45;&gt;118ef502&#45;13b0&#45;4343&#45;a4f7&#45;238a3f31da86 -->
<g id="edge7" class="edge">
<title>1ab452e7&#45;0202&#45;4556&#45;b5f3&#45;df331cb8d2df&#45;&gt;118ef502&#45;13b0&#45;4343&#45;a4f7&#45;238a3f31da86</title>
<path fill="none" stroke="red" d="M162,-89.81C162,-82.11 162,-72.82 162,-64.15"/>
<polygon fill="red" stroke="red" points="165.5,-64.02 162,-54.02 158.5,-64.02 165.5,-64.02"/>
</g>
</g>
</svg>
